<?xml version="1.0" encoding="utf-8"?>
<svg xmlns="http://www.w3.org/2000/svg" viewBox="-15 30 530 184.4256" width="1" height="1">
    <defs>
        <radialGradient id="a" cx="-16.114" cy="20.532" r="18.384" gradientTransform="matrix(1.18882, 0, 0, 1.117702, 123.932391, 155.548141)" gradientUnits="userSpaceOnUse">
            <stop offset="0" stop-color="#ffffff"/>
            <stop offset="0.5" stop-color="#4c6b96"/>
            <stop offset="1" stop-color="#231f20"/>
        </radialGradient>
    </defs>
    <path d="M 48.912 36.885 L 25.828 36.885 C 21.789 36.885 18.615 40.496 18.615 45.092 L 18.615 61.504 C 18.615 66.099 21.789 69.711 25.828 69.711 L 48.912 69.711 C 52.951 69.711 56.125 66.099 56.125 61.504 L 56.125 45.092 C 56.125 40.496 52.951 36.885 48.912 36.885 Z" style="fill: rgb(14, 116, 144); fill-opacity: 0.4;"/>
    <path d="M 123.131 36.812 L 100.047 36.812 C 96.008 36.812 92.834 40.423 92.834 45.019 L 92.834 61.431 C 92.834 66.026 96.008 69.638 100.047 69.638 L 123.131 69.638 C 127.17 69.638 130.344 66.026 130.344 61.431 L 130.344 45.019 C 130.344 40.423 127.17 36.812 123.131 36.812 Z" style="fill: rgb(14, 116, 144); fill-opacity: 0.4;"/>
    <path d="M 82.256 82.523 L 59.172 82.523 C 55.133 82.523 51.959 86.134 51.959 90.73 L 51.959 107.142 C 51.959 111.737 55.133 115.349 59.172 115.349 L 82.256 115.349 C 86.295 115.349 89.469 111.737 89.469 107.142 L 89.469 90.73 C 89.469 86.134 86.295 82.523 82.256 82.523 Z" style="fill: rgb(14, 116, 144); fill-opacity: 0.4;"/>
    <path d="M 82.257 128.234 L 59.173 128.234 C 55.134 128.234 51.96 131.845 51.96 136.441 L 51.96 152.853 C 51.96 157.448 55.134 161.06 59.173 161.06 L 82.257 161.06 C 86.296 161.06 89.47 157.448 89.47 152.853 L 89.47 136.441 C 89.47 131.845 86.296 128.234 82.257 128.234 Z" style="fill: rgb(14, 116, 144); fill-opacity: 0.4;"/>
    <path d="M 34.244 101.267 L 11.16 101.267 C 7.121 101.267 3.947 104.878 3.947 109.474 L 3.947 125.886 C 3.947 130.481 7.121 134.093 11.16 134.093 L 34.244 134.093 C 38.283 134.093 41.457 130.481 41.457 125.886 L 41.457 109.474 C 41.457 104.878 38.283 101.267 34.244 101.267 Z" style="fill: rgb(14, 116, 144); fill-opacity: 0.4;"/>
    <path d="M 122.813 167.698 L 99.729 167.698 C 95.69 167.698 92.516 171.309 92.516 175.905 L 92.516 192.317 C 92.516 196.912 95.69 200.524 99.729 200.524 L 122.813 200.524 C 126.852 200.524 130.026 196.912 130.026 192.317 L 130.026 175.905 C 130.026 171.309 126.852 167.698 122.813 167.698 Z" style="fill: rgb(14, 116, 144); fill-opacity: 0.4;"/>
    <path d="M 49.042 168.026 L 25.958 168.026 C 21.919 168.026 18.745 171.637 18.745 176.233 L 18.745 192.645 C 18.745 197.24 21.919 200.852 25.958 200.852 L 49.042 200.852 C 53.081 200.852 56.255 197.24 56.255 192.645 L 56.255 176.233 C 56.255 171.637 53.081 168.026 49.042 168.026 Z" style="fill: rgb(14, 116, 144); fill-opacity: 0.4;"/>
    <path d="M 401.904 167.698 L 378.82 167.698 C 374.781 167.698 371.607 171.309 371.607 175.905 L 371.607 192.317 C 371.607 196.912 374.781 200.524 378.82 200.524 L 401.904 200.524 C 405.943 200.524 409.117 196.912 409.117 192.317 L 409.117 175.905 C 409.117 171.309 405.943 167.698 401.904 167.698 Z" style="fill: rgb(14, 116, 144); fill-opacity: 0.4;"/>
    <path d="M 489.709 101.268 L 466.625 101.268 C 462.586 101.268 459.412 104.879 459.412 109.475 L 459.412 125.887 C 459.412 130.482 462.586 134.094 466.625 134.094 L 489.709 134.094 C 493.748 134.094 496.922 130.482 496.922 125.887 L 496.922 109.475 C 496.922 104.879 493.748 101.268 489.709 101.268 Z" style="fill: rgb(14, 116, 144); fill-opacity: 0.4;"/>
    <path d="M 474.582 167.698 L 451.498 167.698 C 447.459 167.698 444.285 171.309 444.285 175.905 L 444.285 192.317 C 444.285 196.912 447.459 200.524 451.498 200.524 L 474.582 200.524 C 478.621 200.524 481.795 196.912 481.795 192.317 L 481.795 175.905 C 481.795 171.309 478.621 167.698 474.582 167.698 Z" style="fill: rgb(14, 116, 144); fill-opacity: 0.4;"/>
    <path d="M 474.253 36.812 L 451.169 36.812 C 447.13 36.812 443.956 40.423 443.956 45.019 L 443.956 61.431 C 443.956 66.026 447.13 69.638 451.169 69.638 L 474.253 69.638 C 478.292 69.638 481.466 66.026 481.466 61.431 L 481.466 45.019 C 481.466 40.423 478.292 36.812 474.253 36.812 Z" style="fill: rgb(14, 116, 144); fill-opacity: 0.4;"/>
    <path d="M 441.367 128.563 L 418.283 128.563 C 414.244 128.563 411.07 132.174 411.07 136.77 L 411.07 153.182 C 411.07 157.777 414.244 161.389 418.283 161.389 L 441.367 161.389 C 445.406 161.389 448.58 157.777 448.58 153.182 L 448.58 136.77 C 448.58 132.174 445.406 128.563 441.367 128.563 Z" style="fill: rgb(14, 116, 144); fill-opacity: 0.4;"/>
    <path d="M 441.367 82.523 L 418.283 82.523 C 414.244 82.523 411.07 86.134 411.07 90.73 L 411.07 107.142 C 411.07 111.737 414.244 115.349 418.283 115.349 L 441.367 115.349 C 445.406 115.349 448.58 111.737 448.58 107.142 L 448.58 90.73 C 448.58 86.134 445.406 82.523 441.367 82.523 Z" style="fill: rgb(14, 116, 144); fill-opacity: 0.4;"/>
    <path d="M 401.904 36.811 L 378.82 36.811 C 374.781 36.811 371.607 40.422 371.607 45.018 L 371.607 61.43 C 371.607 66.025 374.781 69.637 378.82 69.637 L 401.904 69.637 C 405.943 69.637 409.117 66.025 409.117 61.43 L 409.117 45.018 C 409.117 40.422 405.943 36.811 401.904 36.811 Z" style="fill: rgb(14, 116, 144); fill-opacity: 0.4;"/>
    <path d="M 81.431 144.57 C 81.431 151.127 76.377 156.439 70.14 156.439 C 63.902 156.439 58.848 151.127 58.848 144.57 C 58.848 138.014 63.902 132.702 70.14 132.702 C 76.377 132.702 81.431 138.014 81.431 144.57 Z M 75.076 137.091 C 73.93 137.133 72.93 137.797 72.184 138.717 C 71.357 139.726 70.809 140.922 70.412 142.14 C 69.705 141.535 69.162 140.742 68.026 140.398 C 67.114 140.104 66.129 140.298 65.376 140.908 C 64.99 141.225 64.71 141.658 64.567 142.149 C 64.228 143.312 64.927 144.35 65.243 144.721 L 65.938 145.502 C 66.078 145.653 66.427 146.054 66.254 146.626 C 66.074 147.252 65.361 147.653 64.626 147.418 C 64.299 147.313 63.828 147.056 63.935 146.695 C 63.979 146.545 64.078 146.436 64.133 146.309 C 64.181 146.2 64.206 146.116 64.221 146.07 C 64.353 145.61 64.173 145.01 63.702 144.86 C 63.265 144.716 62.821 144.83 62.644 145.419 C 62.449 146.092 62.754 147.31 64.393 147.844 C 66.316 148.461 67.936 147.364 68.168 145.93 C 68.312 145.034 67.925 144.366 67.219 143.511 L 66.643 142.839 C 66.293 142.476 66.176 141.85 66.536 141.371 C 66.841 140.965 67.275 140.795 67.985 140.997 C 69.024 141.294 69.484 142.046 70.256 142.657 C 69.937 143.755 69.726 144.856 69.54 145.845 L 69.426 146.582 C 68.874 149.619 68.455 151.289 67.36 152.247 C 67.139 152.41 66.824 152.656 66.353 152.675 C 66.102 152.679 66.017 152.502 66.017 152.421 C 66.01 152.239 66.158 152.154 66.257 152.072 C 66.4 151.992 66.625 151.848 66.606 151.405 C 66.591 150.879 66.176 150.423 65.577 150.443 C 65.128 150.458 64.445 150.902 64.47 151.714 C 64.496 152.556 65.242 153.186 66.362 153.143 C 66.966 153.123 68.304 152.865 69.623 151.215 C 71.159 149.326 71.59 147.159 71.913 145.571 L 72.274 143.48 C 72.475 143.504 72.688 143.519 72.923 143.527 C 74.835 143.569 75.791 142.526 75.805 141.77 C 75.817 141.31 75.52 140.857 75.107 140.869 C 74.744 140.882 74.43 141.144 74.347 141.519 C 74.259 141.94 74.957 142.322 74.413 142.693 C 74.027 142.955 73.333 143.141 72.358 142.99 L 72.535 141.958 C 72.899 140.004 73.343 137.6 75.038 137.543 C 75.163 137.536 75.614 137.546 75.622 137.86 C 75.626 137.964 75.605 137.996 75.487 138.231 C 75.376 138.386 75.321 138.575 75.329 138.764 C 75.343 139.263 75.703 139.591 76.229 139.571 C 76.927 139.548 77.126 138.829 77.119 138.463 C 77.09 137.597 76.222 137.056 75.074 137.092 L 75.076 137.091 Z" style=""/>
    <ellipse cx="111.426" cy="183.834" rx="16.643" ry="8.232" style="fill: url('#a');"/>
    <ellipse cx="111.426" cy="183.834" rx="15.994" ry="7.62" style="fill: rgb(98, 128, 182);"/>
    <path d="M 114.666 186.292 L 115.458 182.454 C 115.689 181.786 115.521 181.053 115.016 180.533 C 114.325 180.072 113.48 179.864 112.639 179.946 L 111.268 179.946 L 111.662 178.047 C 111.693 177.897 111.569 177.757 111.406 177.756 L 109.504 177.756 C 109.379 177.756 109.272 177.839 109.248 177.954 L 108.406 182.029 C 108.342 181.593 108.144 181.184 107.838 180.85 C 107.15 180.204 106.193 179.873 105.223 179.949 L 101.559 179.949 C 101.434 179.949 101.327 180.033 101.303 180.146 L 99.598 188.395 C 99.568 188.545 99.691 188.686 99.854 188.686 L 101.761 188.686 C 101.884 188.687 101.992 188.603 102.016 188.488 L 102.428 186.492 L 103.855 186.492 C 104.485 186.509 105.114 186.434 105.718 186.269 C 106.229 186.11 106.696 185.848 107.086 185.498 C 107.406 185.226 107.678 184.908 107.894 184.555 L 107.553 186.204 C 107.523 186.354 107.646 186.495 107.809 186.495 L 109.711 186.495 C 109.836 186.496 109.943 186.412 109.966 186.297 L 110.901 181.77 L 112.202 181.77 C 112.757 181.77 112.917 181.874 112.964 181.918 C 113.011 181.963 113.082 182.102 112.994 182.553 L 112.238 186.203 C 112.208 186.353 112.331 186.494 112.494 186.494 L 114.419 186.494 C 114.542 186.489 114.644 186.406 114.666 186.292 Z M 105.875 183.125 C 105.817 183.595 105.58 184.028 105.208 184.346 C 104.74 184.62 104.192 184.744 103.644 184.705 L 102.798 184.705 L 103.41 181.741 L 104.505 181.741 C 105.31 181.741 105.633 181.903 105.765 182.038 C 105.966 182.37 106.006 182.765 105.875 183.125 Z" style="fill: rgb(255, 255, 255);"/>
    <path d="M 122.775 180.851 C 122.086 180.205 121.129 179.874 120.159 179.95 L 116.484 179.95 C 116.36 179.95 116.253 180.034 116.229 180.147 L 114.524 188.396 C 114.494 188.547 114.617 188.687 114.78 188.687 L 116.692 188.687 C 116.816 188.688 116.923 188.604 116.946 188.489 L 117.36 186.494 L 118.786 186.494 C 119.417 186.511 120.046 186.435 120.65 186.27 C 121.161 186.112 121.628 185.848 122.017 185.499 C 122.685 184.934 123.135 184.178 123.296 183.346 C 123.556 182.485 123.363 181.558 122.775 180.851 Z M 120.793 183.125 C 120.735 183.595 120.498 184.028 120.127 184.346 C 119.657 184.62 119.109 184.744 118.559 184.703 L 117.715 184.703 L 118.328 181.74 L 119.423 181.74 C 120.227 181.74 120.551 181.902 120.681 182.037 C 120.884 182.369 120.925 182.765 120.793 183.125 Z" style="fill: rgb(255, 255, 255);"/>
    <path d="M 104.505 181.496 C 105.023 181.436 105.547 181.57 105.957 181.874 C 106.222 182.259 106.286 182.737 106.129 183.17 C 106.061 183.7 105.79 184.185 105.366 184.538 C 104.855 184.847 104.25 184.993 103.644 184.951 L 102.482 184.951 L 103.195 181.499 L 104.505 181.496 Z M 99.848 188.443 L 101.761 188.443 L 102.212 186.25 L 103.85 186.25 C 104.452 186.265 105.055 186.195 105.633 186.036 C 106.108 185.889 106.543 185.644 106.906 185.319 C 107.531 184.789 107.955 184.078 108.106 183.298 C 108.35 182.512 108.179 181.664 107.647 181.014 C 107.01 180.42 106.124 180.121 105.229 180.196 L 101.559 180.196 L 99.848 188.443 Z" style="fill: rgb(0, 0, 4);"/>
    <path d="M 109.509 178.001 L 111.411 178.001 L 110.951 180.195 L 112.64 180.195 C 113.416 180.118 114.195 180.304 114.84 180.717 C 115.273 181.181 115.411 181.827 115.202 182.412 L 114.408 186.25 L 112.484 186.25 L 113.24 182.601 C 113.346 182.319 113.31 182.007 113.144 181.75 C 112.87 181.567 112.528 181.487 112.193 181.527 L 110.677 181.527 L 109.7 186.253 L 107.798 186.253 L 109.509 178.001 Z" style="fill: rgb(0, 0, 4);"/>
    <path d="M 119.424 181.496 C 119.942 181.436 120.464 181.57 120.874 181.874 C 121.142 182.259 121.204 182.737 121.047 183.17 C 120.98 183.7 120.709 184.185 120.284 184.538 C 119.771 184.848 119.167 184.993 118.559 184.951 L 117.397 184.951 L 118.11 181.499 L 119.424 181.496 Z M 114.766 188.443 L 116.679 188.443 L 117.131 186.25 L 118.768 186.25 C 119.372 186.265 119.973 186.195 120.551 186.036 C 121.027 185.889 121.461 185.644 121.823 185.319 C 122.45 184.789 122.873 184.078 123.025 183.298 C 123.268 182.512 123.098 181.664 122.567 181.014 C 121.928 180.42 121.043 180.121 120.147 180.196 L 116.471 180.196 L 114.766 188.443 Z" style="fill: rgb(0, 0, 4);"/>
    <g transform="matrix(0.10682699829339981, 0, 0, 0.09666900336742401, 57.90160751342774, 86.89152526855469)" style="">
        <path d="M255.855641,59.619717 C255.950565,59.9710596 256,60.3333149 256,60.6972536 L256,117.265345 C256,118.743206 255.209409,120.108149 253.927418,120.843385 L206.448786,148.178786 L206.448786,202.359798 C206.448786,203.834322 205.665123,205.195421 204.386515,205.937838 L105.27893,262.990563 C105.05208,263.119455 104.804608,263.201946 104.557135,263.289593 C104.464333,263.320527 104.376687,263.377239 104.278729,263.403017 C103.585929,263.58546 102.857701,263.58546 102.164901,263.403017 C102.051476,263.372083 101.948363,263.310215 101.840093,263.26897 C101.613244,263.186479 101.376082,263.1143 101.159544,262.990563 L2.07258227,205.937838 C0.7913718,205.201819 0,203.837372 0,202.359798 L0,32.6555248 C0,32.2843161 0.0515567729,31.9234187 0.144358964,31.5728326 C0.175293028,31.454252 0.24747251,31.3459828 0.288717928,31.2274022 C0.366053087,31.0108638 0.438232569,30.7891697 0.55165747,30.5880982 C0.628992629,30.4540506 0.742417529,30.3457814 0.83521972,30.2220451 C0.953800298,30.0570635 1.06206952,29.8869261 1.20127281,29.7425672 C1.31985339,29.6239866 1.4745237,29.5363401 1.60857131,29.4332265 C1.75808595,29.3094903 1.89213356,29.1754427 2.06227091,29.0774848 L2.06742659,29.0774848 L51.6134853,0.551122364 C52.8901903,-0.183535768 54.4613221,-0.183535768 55.7380271,0.551122364 L105.284086,29.0774848 L105.294397,29.0774848 C105.459379,29.1805983 105.598582,29.3094903 105.748097,29.4280708 C105.882144,29.5311844 106.031659,29.6239866 106.15024,29.7374115 C106.294599,29.8869261 106.397712,30.0570635 106.521448,30.2220451 C106.609095,30.3457814 106.727676,30.4540506 106.799855,30.5880982 C106.918436,30.7943253 106.985459,31.0108638 107.06795,31.2274022 C107.109196,31.3459828 107.181375,31.454252 107.212309,31.5779883 C107.307234,31.9293308 107.355765,32.2915861 107.356668,32.6555248 L107.356668,138.651094 L148.643332,114.878266 L148.643332,60.6920979 C148.643332,60.3312005 148.694889,59.9651474 148.787691,59.619717 C148.823781,59.4959808 148.890804,59.3877116 148.93205,59.269131 C149.014541,59.0525925 149.08672,58.8308984 149.200145,58.629827 C149.27748,58.4957794 149.390905,58.3875102 149.478552,58.2637739 C149.602288,58.0987922 149.705401,57.9286549 149.84976,57.7842959 C149.968341,57.6657153 150.117856,57.5780688 150.251903,57.4749553 C150.406573,57.351219 150.540621,57.2171714 150.705603,57.1192136 L150.710758,57.1192136 L200.261973,28.5928511 C201.538395,27.8571345 203.110093,27.8571345 204.386515,28.5928511 L253.932573,57.1192136 C254.107866,57.2223271 254.241914,57.351219 254.396584,57.4697996 C254.525476,57.5729132 254.674991,57.6657153 254.793572,57.7791402 C254.93793,57.9286549 255.041044,58.0987922 255.16478,58.2637739 C255.257582,58.3875102 255.371007,58.4957794 255.443187,58.629827 C255.561767,58.8308984 255.628791,59.0525925 255.711282,59.269131 C255.757683,59.3877116 255.824707,59.4959808 255.855641,59.619717 Z M247.740605,114.878266 L247.740605,67.8378666 L230.402062,77.8192579 L206.448786,91.6106946 L206.448786,138.651094 L247.745761,114.878266 L247.740605,114.878266 Z M198.194546,199.97272 L198.194546,152.901386 L174.633101,166.357704 L107.351512,204.757188 L107.351512,252.27191 L198.194546,199.97272 Z M8.25939501,39.7961379 L8.25939501,199.97272 L99.0921175,252.266755 L99.0921175,204.762344 L51.6392637,177.906421 L51.6237967,177.89611 L51.603174,177.885798 C51.443348,177.792996 51.3093004,177.658949 51.1597857,177.545524 C51.0308938,177.44241 50.8813791,177.359919 50.7679542,177.246494 L50.7576429,177.231027 C50.6235953,177.102135 50.5307931,176.942309 50.4173682,176.79795 C50.3142546,176.658747 50.1905184,176.540167 50.1080276,176.395808 L50.1028719,176.380341 C50.0100697,176.22567 49.9533572,176.040066 49.8863334,175.864773 C49.8193096,175.710103 49.7316631,175.565744 49.6904177,175.400762 L49.6904177,175.395606 C49.6388609,175.19969 49.6285496,174.993463 49.6079269,174.792392 C49.5873041,174.637722 49.5460587,174.483051 49.5460587,174.328381 L49.5460587,174.31807 L49.5460587,63.5689658 L25.5979377,49.7723734 L8.25939501,39.8012935 L8.25939501,39.7961379 Z M53.6809119,8.89300821 L12.3994039,32.6555248 L53.6706006,56.4180414 L94.9469529,32.6503692 L53.6706006,8.89300821 L53.6809119,8.89300821 Z M75.1491521,157.19091 L99.0972731,143.404629 L99.0972731,39.7961379 L81.7587304,49.7775291 L57.8054537,63.5689658 L57.8054537,167.177457 L75.1491521,157.19091 Z M202.324244,36.934737 L161.047891,60.6972536 L202.324244,84.4597702 L243.59544,60.6920979 L202.324244,36.934737 Z M198.194546,91.6106946 L174.24127,77.8192579 L156.902727,67.8378666 L156.902727,114.878266 L180.850848,128.664547 L198.194546,138.651094 L198.194546,91.6106946 Z M103.216659,197.616575 L163.759778,163.052915 L194.023603,145.781396 L152.778185,122.034346 L105.289242,149.374903 L62.0073307,174.292291 L103.216659,197.616575 Z" fill="#FF2D20"/>
    </g>
    <path d="M 397.717 42.47 L 402.881 42.47 L 389.971 65.536 L 377.06 42.47 L 386.936 42.47 L 389.971 47.819 L 392.94 42.47 L 397.717 42.47 Z" style="fill: rgb(65, 184, 131);"/>
    <path d="M 377.06 42.47 L 389.971 65.536 L 402.881 42.47 L 397.717 42.47 L 389.971 56.309 L 382.16 42.47 L 377.06 42.47 Z" style="fill: rgb(65, 184, 131);"/>
    <path d="M 382.16 42.47 L 389.971 56.376 L 397.717 42.47 L 392.94 42.47 L 389.971 47.819 L 386.936 42.47 L 382.16 42.47 Z" style="fill: rgb(53, 73, 94);"/>
    <g transform="matrix(0.10057099908590317, 0, 0, 0.09506800770759583, 377.9952697753906, 172.82933044433594)" style="">
        <path d="M210.483381,73.8236374 C207.827698,72.9095503 205.075867,72.0446761 202.24247,71.2267368 C202.708172,69.3261098 203.135596,67.4500894 203.515631,65.6059664 C209.753843,35.3248922 205.675082,10.9302478 191.747328,2.89849283 C178.392359,-4.80289661 156.551327,3.22703567 134.492936,22.4237776 C132.371761,24.2697233 130.244662,26.2241201 128.118477,28.2723861 C126.701777,26.917204 125.287358,25.6075897 123.876584,24.3549348 C100.758745,3.82852863 77.5866802,-4.82157937 63.6725966,3.23341515 C50.3303869,10.9571328 46.3792156,33.8904224 51.9945178,62.5880206 C52.5367729,65.3599011 53.1706189,68.1905639 53.8873982,71.068617 C50.6078941,71.9995641 47.4418534,72.9920277 44.4125156,74.0478303 C17.3093297,83.497195 0,98.3066828 0,113.667995 C0,129.533287 18.5815786,145.446423 46.8116526,155.095373 C49.0394553,155.856809 51.3511025,156.576778 53.7333796,157.260293 C52.9600965,160.37302 52.2875179,163.423318 51.7229345,166.398431 C46.3687351,194.597975 50.5500231,216.989464 63.8566899,224.664425 C77.6012619,232.590464 100.66852,224.443422 123.130185,204.809231 C124.905501,203.257196 126.687196,201.611293 128.472081,199.886102 C130.785552,202.113904 133.095375,204.222319 135.392897,206.199955 C157.14963,224.922338 178.637969,232.482469 191.932332,224.786092 C205.663234,216.837268 210.125675,192.78347 204.332202,163.5181 C203.88974,161.283006 203.374826,158.99961 202.796573,156.675661 C204.416503,156.196743 206.006814,155.702335 207.557482,155.188332 C236.905331,145.46465 256,129.745175 256,113.667995 C256,98.2510906 238.132466,83.3418093 210.483381,73.8236374 L210.483381,73.8236374 Z M204.118035,144.807565 C202.718197,145.270987 201.281904,145.718918 199.818271,146.153177 C196.578411,135.896354 192.205739,124.989735 186.854729,113.72131 C191.961041,102.721277 196.164656,91.9540963 199.313837,81.7638014 C201.93261,82.5215915 204.474374,83.3208483 206.923636,84.1643056 C230.613348,92.3195488 245.063763,104.377206 245.063763,113.667995 C245.063763,123.564379 229.457753,136.411268 204.118035,144.807565 L204.118035,144.807565 Z M193.603754,165.642007 C196.165567,178.582766 196.531475,190.282717 194.834536,199.429057 C193.309843,207.64764 190.243595,213.12715 186.452366,215.321689 C178.384612,219.991462 161.131788,213.921395 142.525146,197.909832 C140.392124,196.074366 138.243609,194.114502 136.088259,192.040261 C143.301619,184.151133 150.510878,174.979732 157.54698,164.793993 C169.922699,163.695814 181.614905,161.900447 192.218042,159.449363 C192.740247,161.555956 193.204126,163.621993 193.603754,165.642007 L193.603754,165.642007 Z M87.2761866,214.514686 C79.3938934,217.298414 73.1160375,217.378157 69.3211631,215.189998 C61.2461189,210.532528 57.8891498,192.554265 62.4682434,168.438039 C62.9927272,165.676183 63.6170041,162.839142 64.3365173,159.939216 C74.8234575,162.258154 86.4299951,163.926841 98.8353334,164.932519 C105.918826,174.899534 113.336329,184.06091 120.811247,192.08264 C119.178102,193.65928 117.551336,195.16028 115.933685,196.574699 C106.001303,205.256705 96.0479605,211.41654 87.2761866,214.514686 L87.2761866,214.514686 Z M50.3486141,144.746959 C37.8658105,140.48046 27.5570398,134.935332 20.4908634,128.884403 C14.1414664,123.446815 10.9357817,118.048415 10.9357817,113.667995 C10.9357817,104.34622 24.8334611,92.4562517 48.0123604,84.3748281 C50.8247961,83.3942121 53.7689223,82.4701001 56.8242337,81.6020363 C60.0276398,92.0224477 64.229889,102.917218 69.3011135,113.93411 C64.1642716,125.11459 59.9023288,136.182975 56.6674809,146.725506 C54.489347,146.099407 52.3791089,145.440499 50.3486141,144.746959 L50.3486141,144.746959 Z M62.7270678,60.4878073 C57.9160346,35.9004118 61.1112387,17.3525532 69.1516515,12.6982729 C77.7160924,7.74005624 96.6544653,14.8094222 116.614922,32.5329619 C117.890816,33.6657739 119.171723,34.8514442 120.456275,36.0781256 C113.018267,44.0647686 105.66866,53.1573386 98.6480514,63.0655695 C86.6081646,64.1815215 75.0831931,65.9741531 64.4868907,68.3746571 C63.8206914,65.6948233 63.2305903,63.0619242 62.7270678,60.4878073 L62.7270678,60.4878073 Z M173.153901,87.7550367 C170.620796,83.3796304 168.020249,79.1076627 165.369124,74.9523483 C173.537126,75.9849113 181.362914,77.3555864 188.712066,79.0329319 C186.505679,86.1041206 183.755673,93.4974728 180.518546,101.076741 C178.196419,96.6680702 175.740322,92.2229454 173.153901,87.7550367 L173.153901,87.7550367 Z M128.122121,43.8938899 C133.166461,49.3588189 138.218091,55.4603279 143.186789,62.0803968 C138.179814,61.8439007 133.110868,61.720868 128.000001,61.720868 C122.937434,61.720868 117.905854,61.8411667 112.929865,62.0735617 C117.903575,55.515009 122.99895,49.4217021 128.122121,43.8938899 L128.122121,43.8938899 Z M82.8018984,87.830679 C80.2715265,92.2183886 77.8609975,96.6393627 75.5753239,101.068539 C72.3906004,93.5156998 69.6661103,86.0886276 67.440586,78.9171899 C74.7446255,77.2826781 82.5335049,75.9461789 90.6495601,74.9332099 C87.9610684,79.1268011 85.3391054,83.4302106 82.8018984,87.8297677 L82.8018984,87.830679 L82.8018984,87.830679 Z M90.8833221,153.182899 C82.4979621,152.247395 74.5919739,150.979704 67.289757,149.390303 C69.5508242,142.09082 72.3354636,134.505173 75.5876271,126.789657 C77.8792246,131.215644 80.2993228,135.638441 82.8451877,140.03572 L82.8456433,140.03572 C85.4388987,144.515476 88.1255676,148.90364 90.8833221,153.182899 L90.8833221,153.182899 Z M128.424691,184.213105 C123.24137,178.620587 118.071264,172.434323 113.021912,165.780078 C117.923624,165.972373 122.921029,166.0708 128.000001,166.0708 C133.217953,166.0708 138.376211,165.953235 143.45336,165.727219 C138.468257,172.501308 133.434855,178.697141 128.424691,184.213105 L128.424691,184.213105 Z M180.622896,126.396409 C184.044571,134.195313 186.929004,141.741317 189.219234,148.9164 C181.796719,150.609693 173.782736,151.973534 165.339049,152.986959 C167.996555,148.775595 170.619884,144.430263 173.197646,139.960532 C175.805484,135.438399 178.28163,130.90943 180.622896,126.396409 L180.622896,126.396409 Z M163.724586,134.496971 C159.722835,141.435557 155.614455,148.059271 151.443648,154.311611 C143.847063,154.854776 135.998946,155.134562 128.000001,155.134562 C120.033408,155.134562 112.284171,154.887129 104.822013,154.402745 C100.48306,148.068386 96.285368,141.425078 92.3091341,134.556664 L92.3100455,134.556664 C88.3442923,127.706935 84.6943232,120.799333 81.3870228,113.930466 C84.6934118,107.045648 88.3338117,100.130301 92.276781,93.292874 L92.2758697,93.294241 C96.2293193,86.4385872 100.390102,79.8276317 104.688954,73.5329157 C112.302398,72.9573964 120.109505,72.6571055 127.999545,72.6571055 L128.000001,72.6571055 C135.925583,72.6571055 143.742714,72.9596746 151.353879,73.5402067 C155.587114,79.7888993 159.719645,86.3784378 163.688588,93.2350031 C167.702644,100.168578 171.389978,107.037901 174.724618,113.77508 C171.400003,120.627999 167.720871,127.566587 163.724586,134.496971 L163.724586,134.496971 Z M186.284677,12.3729198 C194.857321,17.3165548 198.191049,37.2542268 192.804953,63.3986692 C192.461372,65.0669011 192.074504,66.7661189 191.654369,68.4881206 C181.03346,66.0374921 169.500286,64.2138746 157.425315,63.0810626 C150.391035,53.0639249 143.101577,43.9572289 135.784778,36.073113 C137.751934,34.1806885 139.716356,32.3762092 141.672575,30.673346 C160.572216,14.2257007 178.236518,7.73185406 186.284677,12.3729198 L186.284677,12.3729198 Z M128.000001,90.8080696 C140.624975,90.8080696 150.859926,101.042565 150.859926,113.667995 C150.859926,126.292969 140.624975,136.527922 128.000001,136.527922 C115.375026,136.527922 105.140075,126.292969 105.140075,113.667995 C105.140075,101.042565 115.375026,90.8080696 128.000001,90.8080696 L128.000001,90.8080696 Z" fill="#00D8FF"/>
    </g>
    <path d="M 454.592 49.53 C 455.611 45.775 458.159 43.897 462.235 43.897 C 468.351 43.897 469.115 48.122 472.173 48.826 C 474.211 49.296 475.995 48.592 477.524 46.713 C 476.504 50.469 473.956 52.346 469.88 52.346 C 463.765 52.346 463 48.122 459.943 47.418 C 457.904 46.949 456.121 47.653 454.592 49.53 Z M 446.948 57.978 C 447.967 54.224 450.515 52.346 454.592 52.346 C 460.707 52.346 461.472 56.57 464.529 57.274 C 466.567 57.744 468.351 57.04 469.88 55.162 C 468.86 58.918 466.312 60.795 462.235 60.795 C 456.121 60.795 455.357 56.57 452.298 55.866 C 450.26 55.398 448.477 56.102 446.948 57.978 Z" style="fill: rgb(68, 168, 179);"/>
    <g transform="matrix(0.08344100415706635, 0, 0, 0.08987200260162354, 419.1830749511719, 87.49154663085938)" style="">
        <path d="M0,222.991225 C0,241.223474 14.7785318,256 33.0087747,256 L222.991225,256 C241.223474,256 256,241.221468 256,222.991225 L256,33.0087747 C256,14.7765263 241.221468,0 222.991225,0 L33.0087747,0 C14.7765263,0 0,14.7785318 0,33.0087747 L0,222.991225 Z" fill="#563D7C"/>
        <path d="M106.157563,113.238095 L106.157563,76.9845938 L138.069328,76.9845938 C141.108559,76.9845938 144.039202,77.2378593 146.861345,77.7443978 C149.683488,78.2509362 152.179961,79.1554557 154.35084,80.4579832 C156.52172,81.7605107 158.258397,83.5695496 159.560924,85.8851541 C160.863452,88.2007585 161.514706,91.1675823 161.514706,94.7857143 C161.514706,101.298352 159.560944,106.001853 155.653361,108.896359 C151.745779,111.790864 146.752832,113.238095 140.67437,113.238095 L106.157563,113.238095 L106.157563,113.238095 Z M72.07493,50.5 L72.07493,205.5 L147.186975,205.5 C154.133788,205.5 160.899594,204.631661 167.484594,202.894958 C174.069594,201.158255 179.93088,198.480877 185.068627,194.862745 C190.206375,191.244613 194.294803,186.577293 197.334034,180.860644 C200.373264,175.143996 201.892857,168.37819 201.892857,160.563025 C201.892857,150.866431 199.541107,142.581033 194.837535,135.706583 C190.133963,128.832132 183.00635,124.020088 173.454482,121.270308 C180.401295,117.941627 185.647508,113.672295 189.193277,108.462185 C192.739047,103.252075 194.511905,96.7395349 194.511905,88.9243697 C194.511905,81.6881057 193.317939,75.6097352 190.929972,70.6890756 C188.542005,65.7684161 185.177193,61.8247114 180.835434,58.8578431 C176.493676,55.8909749 171.283644,53.756309 165.205182,52.4537815 C159.12672,51.151254 152.397096,50.5 145.016106,50.5 L72.07493,50.5 L72.07493,50.5 Z M106.157563,179.015406 L106.157563,136.466387 L143.279412,136.466387 C150.660401,136.466387 156.594049,138.166883 161.080532,141.567927 C165.567016,144.968971 167.810224,150.649353 167.810224,158.609244 C167.810224,162.661552 167.122789,165.990183 165.747899,168.595238 C164.373009,171.200293 162.527789,173.262597 160.212185,174.782213 C157.89658,176.301828 155.219203,177.387252 152.179972,178.038515 C149.140741,178.689779 145.956833,179.015406 142.628151,179.015406 L106.157563,179.015406 L106.157563,179.015406 Z" fill="#FFFFFF"/>
    </g>
    <rect width="30.717" height="24.47" rx="288" fill="#f7df1e" x="21.911" y="41.108" style=""/>
    <path d="M 41.349 58.792 C 41.949 59.603 42.789 60.177 44.168 60.177 C 45.369 60.177 46.149 59.699 46.149 59.03 C 46.149 58.266 45.369 57.979 44.049 57.5 L 43.328 57.262 C 41.229 56.545 39.849 55.685 39.849 53.821 C 39.849 52.1 41.469 50.762 44.049 50.762 C 45.908 50.762 47.229 51.288 48.128 52.626 L 45.908 53.773 C 45.428 53.056 44.889 52.77 44.049 52.77 C 43.209 52.77 42.669 53.199 42.669 53.773 C 42.669 54.442 43.209 54.729 44.469 55.159 L 45.189 55.398 C 47.648 56.258 49.029 57.071 49.029 59.03 C 49.029 61.086 46.989 62.232 44.229 62.232 C 41.529 62.232 39.789 61.228 38.95 59.89 L 41.349 58.792 Z M 31.15 58.982 C 31.63 59.603 31.99 60.177 33.01 60.177 C 33.97 60.177 34.57 59.89 34.57 58.744 L 34.57 50.81 L 37.45 50.81 L 37.45 58.648 C 37.45 61.038 35.71 62.088 33.13 62.088 C 30.791 62.088 29.47 61.133 28.81 59.986 L 31.15 58.982 Z" style=""/>
    <path d="M 465.949 107.438 L 465.949 118.364 L 468.987 120.185 L 468.987 112.9 L 475.063 116.544 L 481.14 112.9 L 481.14 116.544 L 475.063 120.185 L 475.063 123.828 L 481.14 127.469 L 490.255 122.007 L 490.255 114.722 L 487.216 116.544 L 487.216 120.185 L 481.14 123.828 L 478.102 122.007 L 484.179 118.364 L 484.179 107.438 L 475.063 112.9 L 465.949 107.438 Z M 490.255 107.438 L 487.216 109.257 L 487.216 112.9 L 490.255 111.08 L 490.255 107.437 L 490.255 107.438 Z" style=""/>
    <polygon points="421.783 154.83 419.863 133.685 440.955 133.685 439.033 154.827 430.396 157.179 421.783 154.83" style="fill: rgb(228, 79, 38);"/>
    <polygon points="430.409 155.381 437.389 153.481 439.031 135.414 430.409 135.414 430.409 155.381" style="fill: rgb(241, 102, 42);"/>
    <polygon points="430.409 143.256 426.915 143.256 426.674 140.6 430.409 140.6 430.409 138.007 430.4 138.007 423.788 138.007 423.852 138.703 424.5 145.85 430.409 145.85 430.409 143.256" style="fill: rgb(235, 235, 235);"/>
    <polygon points="430.409 149.991 430.397 149.995 427.457 149.215 427.269 147.147 425.84 147.147 424.618 147.147 424.988 151.218 430.397 152.693 430.409 152.69 430.409 149.991" style="fill: rgb(235, 235, 235);"/>
    <polygon points="430.4 143.256 430.4 145.85 433.651 145.85 433.345 149.213 430.4 149.994 430.4 152.692 435.813 151.218 435.853 150.78 436.473 143.952 436.538 143.256 435.826 143.256 430.4 143.256" style="fill: rgb(255, 255, 255);"/>
    <polygon points="430.4 138.007 430.4 139.618 430.4 140.594 430.4 140.6 436.769 140.6 436.769 140.6 436.778 140.6 436.831 140.018 436.951 138.703 437.014 138.007 430.4 138.007" style="fill: rgb(255, 255, 255);"/>
    <polygon points="454.348 193.678 452.429 172.532 473.519 172.532 471.598 193.674 462.961 196.026 454.348 193.678" style="fill: rgb(21, 114, 182);"/>
    <polygon points="462.974 194.229 469.954 192.328 471.596 174.261 462.974 174.261 462.974 194.229" style="fill: rgb(51, 169, 220);"/>
    <polygon points="462.974 181.922 466.468 181.922 466.709 179.267 462.974 179.267 462.974 176.673 462.984 176.673 469.595 176.673 469.532 177.369 468.883 184.516 462.974 184.516 462.974 181.922" style="fill: rgb(255, 255, 255);"/>
    <polygon points="462.99 188.657 462.978 188.661 460.038 187.88 459.85 185.812 458.421 185.812 457.199 185.812 457.569 189.884 462.978 191.359 462.99 191.356 462.99 188.657" style="fill: rgb(235, 235, 235);"/>
    <polygon points="466.243 184.406 465.926 187.879 462.981 188.659 462.981 191.357 468.394 189.884 468.434 189.446 468.893 184.406 466.243 184.406" style="fill: rgb(255, 255, 255);"/>
    <polygon points="462.984 176.673 462.984 178.284 462.984 179.26 462.984 179.267 456.614 179.267 456.614 179.267 456.605 179.267 456.552 178.683 456.432 177.369 456.369 176.673 462.984 176.673" style="fill: rgb(235, 235, 235);"/>
    <polygon points="462.974 181.922 462.974 183.533 462.974 184.509 462.974 184.516 460.079 184.516 460.079 184.516 460.07 184.516 460.017 183.933 459.898 182.618 459.835 181.922 462.974 181.922" style="fill: rgb(235, 235, 235);"/>
    <path d="M 15.292 110.272 C 15.067 110.271 14.841 110.3 14.622 110.356 L 14.622 110.385 L 14.654 110.385 C 14.811 110.618 14.986 110.837 15.177 111.044 C 15.308 111.301 15.423 111.556 15.554 111.813 C 15.57 111.797 15.586 111.78 15.586 111.78 C 15.833 111.588 15.962 111.285 15.928 110.977 C 15.857 110.869 15.791 110.757 15.731 110.642 C 15.633 110.482 15.42 110.401 15.29 110.273" style="fill: rgb(93, 135, 161); fill-rule: evenodd;"/>
    <path d="M 32.834 124.274 C 31.757 124.2 30.676 124.353 29.663 124.724 C 29.418 124.82 29.027 124.82 28.993 125.125 C 29.124 125.253 29.14 125.461 29.255 125.639 C 29.479 126.011 29.767 126.342 30.105 126.619 C 30.447 126.875 30.788 127.131 31.151 127.356 C 31.788 127.743 32.508 127.967 33.128 128.352 C 33.489 128.577 33.848 128.866 34.208 129.107 C 34.387 129.236 34.501 129.443 34.73 129.527 L 34.73 129.478 C 34.663 129.299 34.58 129.127 34.481 128.964 C 34.318 128.804 34.154 128.659 33.99 128.499 C 33.512 127.876 32.938 127.33 32.29 126.878 C 31.767 126.524 30.622 126.039 30.411 125.451 L 30.377 125.419 C 30.761 125.365 31.139 125.279 31.506 125.16 C 32.061 125.016 32.568 125.049 33.139 124.909 C 33.402 124.844 33.876 124.684 33.876 124.684 L 33.876 124.432 C 33.584 124.147 33.374 123.765 33.067 123.496 C 32.23 122.778 31.339 122.125 30.4 121.542 C 29.898 121.224 29.252 121.019 28.718 120.748 C 28.525 120.653 28.205 120.606 28.088 120.446 C 27.823 120.064 27.6 119.653 27.425 119.224 C 26.957 118.351 26.503 117.384 26.1 116.461 C 25.862 115.842 25.587 115.237 25.276 114.651 C 23.778 112.149 21.616 110.095 19.02 108.707 C 18.365 108.396 17.669 108.177 16.952 108.056 C 16.547 108.039 16.143 108.008 15.739 107.993 C 15.479 107.825 15.231 107.639 14.997 107.436 C 14.073 106.861 11.698 105.626 11.018 107.261 C 10.582 108.294 11.665 109.309 12.037 109.834 C 12.35 110.204 12.626 110.602 12.861 111.024 C 12.975 111.295 13.007 111.581 13.117 111.864 C 13.355 112.589 13.637 113.301 13.961 113.993 C 14.135 114.335 14.335 114.664 14.559 114.976 C 14.689 115.152 14.915 115.228 14.964 115.518 C 14.785 115.896 14.659 116.296 14.591 116.708 C 14.021 118.477 14.19 120.396 15.06 122.043 C 15.316 122.44 15.933 123.313 16.758 122.98 C 17.485 122.694 17.323 121.789 17.533 120.996 C 17.581 120.804 17.55 120.678 17.646 120.551 L 17.646 120.706 C 17.646 120.706 18.059 121.596 18.264 122.048 C 18.822 122.878 19.514 123.612 20.314 124.221 C 20.631 124.492 20.885 124.826 21.062 125.201 L 21.062 125.488 L 21.427 125.488 C 21.412 125.226 21.278 124.983 21.062 124.827 C 20.763 124.524 20.49 124.2 20.243 123.854 C 19.575 122.918 18.985 121.931 18.48 120.901 C 18.224 120.398 18.007 119.846 17.802 119.343 C 17.708 119.149 17.708 118.856 17.55 118.756 C 17.259 119.095 17.005 119.464 16.795 119.857 C 16.541 120.652 16.392 121.476 16.354 122.308 C 16.291 122.325 16.322 122.308 16.291 122.34 C 15.788 122.21 15.615 121.676 15.425 121.222 C 14.935 119.825 14.886 118.315 15.283 116.89 C 15.392 116.55 15.867 115.479 15.677 115.154 C 15.582 114.845 15.267 114.668 15.094 114.424 C 14.875 114.095 14.685 113.747 14.528 113.386 C 14.153 112.483 13.963 111.476 13.555 110.566 C 13.329 110.129 13.066 109.71 12.768 109.317 C 12.439 108.923 12.149 108.5 11.901 108.052 C 11.822 107.874 11.712 107.582 11.838 107.387 C 11.856 107.276 11.946 107.19 12.059 107.176 C 12.262 106.998 12.846 107.224 13.05 107.322 C 13.599 107.534 14.122 107.806 14.608 108.133 C 14.829 108.296 15.348 108.708 15.348 108.708 L 15.502 108.708 C 16.025 108.819 16.612 108.739 17.104 108.884 C 17.933 109.155 18.724 109.528 19.458 109.992 C 21.623 111.347 23.383 113.242 24.557 115.483 C 24.754 115.852 24.837 116.19 25.016 116.574 C 25.358 117.363 25.785 118.168 26.127 118.935 C 26.428 119.694 26.819 120.416 27.288 121.087 C 27.533 121.422 28.514 121.6 28.956 121.776 C 29.339 121.906 29.716 122.057 30.084 122.225 C 30.64 122.561 31.194 122.948 31.718 123.316 C 31.978 123.509 32.796 123.91 32.845 124.231" style="fill: rgb(0, 117, 143); fill-rule: evenodd;"/>
    <path d="M 97.93 54.477 C 97.15 53.697 97.15 52.432 97.93 51.651 L 109.932 39.65 C 110.712 38.869 111.978 38.869 112.758 39.65 L 124.76 51.651 C 125.54 52.432 125.54 53.697 124.76 54.477 L 112.758 66.479 C 111.978 67.259 110.712 67.259 109.932 66.479 L 97.93 54.477 Z" fill="#EE513B"/>
    <path d="M 107.494 42.126 L 106.279 43.341 L 109.417 46.48 C 109.29 46.752 109.22 47.056 109.22 47.377 C 109.22 48.286 109.791 49.062 110.595 49.365 L 110.595 57.044 C 109.791 57.347 109.22 58.123 109.22 59.033 C 109.22 60.206 110.171 61.158 111.345 61.158 C 112.518 61.158 113.47 60.206 113.47 59.033 C 113.47 58.208 113 57.493 112.313 57.141 L 112.313 49.376 L 115.314 52.376 C 115.193 52.643 115.126 52.94 115.126 53.252 C 115.126 54.425 116.077 55.377 117.251 55.377 C 118.424 55.377 119.376 54.425 119.376 53.252 C 119.376 52.078 118.424 51.127 117.251 51.127 C 117.023 51.127 116.803 51.163 116.597 51.229 L 113.375 48.007 C 113.436 47.808 113.47 47.596 113.47 47.377 C 113.47 46.203 112.518 45.252 111.345 45.252 C 111.125 45.252 110.914 45.285 110.715 45.347 L 107.494 42.126 Z" fill="white"/>
    <g transform="matrix(0.09335500001907349, 0, 0, 0.09135500341653824, 25.48697853088379, 171.2628631591797)" style="">
        <path d="M127.999999,288.463771 C124.024844,288.463771 120.314699,287.403728 116.869564,285.548656 L81.6231884,264.612838 C76.32298,261.697724 78.9730854,260.637682 80.5631458,260.107661 C87.7184259,257.72257 89.0434775,257.192547 96.4637688,252.952381 C97.2587979,252.422361 98.3188405,252.687372 99.1138718,253.217392 L126.144927,269.383024 C127.20497,269.913045 128.530021,269.913045 129.325053,269.383024 L235.064182,208.165634 C236.124225,207.635611 236.654245,206.575571 236.654245,205.250519 L236.654245,83.0807467 C236.654245,81.7556929 236.124225,80.6956526 235.064182,80.1656324 L129.325053,19.2132506 C128.26501,18.6832305 126.939959,18.6832305 126.144927,19.2132506 L20.4057954,80.1656324 C19.3457551,80.6956526 18.8157349,82.0207041 18.8157349,83.0807467 L18.8157349,205.250519 C18.8157349,206.31056 19.3457551,207.635611 20.4057954,208.165634 L49.2919247,224.861286 C64.9275364,232.811595 74.7329196,223.536234 74.7329196,214.260871 L74.7329196,93.681159 C74.7329196,92.0910985 76.0579711,90.5010358 77.9130428,90.5010358 L91.4285716,90.5010358 C93.0186343,90.5010358 94.6086948,91.8260873 94.6086948,93.681159 L94.6086948,214.260871 C94.6086948,235.196689 83.2132512,247.387164 63.3374737,247.387164 C57.2422362,247.387164 52.4720502,247.387164 38.9565214,240.761906 L11.1304347,224.861286 C4.24016581,220.886129 5.68434189e-14,213.46584 5.68434189e-14,205.515528 L5.68434189e-14,83.3457557 C5.68434189e-14,75.3954465 4.24016581,67.9751552 11.1304347,64.0000006 L116.869564,2.78260752 C123.494824,-0.927535841 132.505176,-0.927535841 139.130436,2.78260752 L244.869565,64.0000006 C251.759834,67.9751552 256,75.3954465 256,83.3457557 L256,205.515528 C256,213.46584 251.759834,220.886129 244.869565,224.861286 L139.130436,286.078676 C135.685299,287.668739 131.710145,288.463771 127.999999,288.463771 L127.999999,288.463771 Z M160.596274,204.455488 C114.219461,204.455488 104.679089,183.254659 104.679089,165.233955 C104.679089,163.643893 106.004141,162.053832 107.859212,162.053832 L121.639752,162.053832 C123.229813,162.053832 124.554864,163.113872 124.554864,164.703935 C126.674947,178.749484 132.770187,185.639753 160.861283,185.639753 C183.122154,185.639753 192.662526,180.604556 192.662526,168.67909 C192.662526,161.788821 190.012423,156.753624 155.296065,153.308489 C126.409938,150.393375 108.389235,144.033126 108.389235,120.977226 C108.389235,99.5113875 126.409938,86.7908901 156.621119,86.7908901 C190.542443,86.7908901 207.238095,98.4513472 209.358178,123.89234 C209.358178,124.687371 209.093167,125.482403 208.563147,126.277434 C208.033127,126.807454 207.238095,127.337474 206.443064,127.337474 L192.662526,127.337474 C191.337475,127.337474 190.012423,126.277434 189.747412,124.952382 C186.567289,110.376813 178.351966,105.606625 156.621119,105.606625 C132.240165,105.606625 129.325053,114.086957 129.325053,120.447205 C129.325053,128.132506 132.770187,130.5176 165.631471,134.757766 C198.227744,138.997931 213.598344,145.093169 213.598344,167.884058 C213.333333,191.20497 194.252589,204.455488 160.596274,204.455488 L160.596274,204.455488 Z" fill="#539E43"/>
    </g>
</svg>