<?xml version="1.0" encoding="utf-8"?>
<svg xmlns="http://www.w3.org/2000/svg" viewBox="-15 39 530 184.4256" width="1" height="1">
  <defs>
    <radialGradient id="a" cx="-16.114" cy="20.532" r="18.384" gradientTransform="matrix(1.18882, 0, 0, 1.117702, 123.566278, 186.242693)" gradientUnits="userSpaceOnUse">
      <stop offset="0" stop-color="#ffffff"/>
      <stop offset="0.5" stop-color="#4c6b96"/>
      <stop offset="1" stop-color="#231f20"/>
    </radialGradient>
  </defs>
  <path d="M 48.211 49.848 L 25.127 49.848 C 21.088 49.848 17.914 53.459 17.914 58.055 L 17.914 74.467 C 17.914 79.062 21.088 82.674 25.127 82.674 L 48.211 82.674 C 52.25 82.674 55.424 79.062 55.424 74.467 L 55.424 58.055 C 55.424 53.459 52.25 49.848 48.211 49.848 Z" style="fill: rgb(14, 116, 144); fill-opacity: 0.4;"/>
  <path d="M 122.415 31.892 L 99.331 31.892 C 95.292 31.892 92.118 35.503 92.118 40.099 L 92.118 56.511 C 92.118 61.106 95.292 64.718 99.331 64.718 L 122.415 64.718 C 126.454 64.718 129.628 61.106 129.628 56.511 L 129.628 40.099 C 129.628 35.503 126.454 31.892 122.415 31.892 Z" style="fill: rgb(14, 116, 144); fill-opacity: 0.4;"/>
  <path d="M 81.555 95.486 L 58.471 95.486 C 54.432 95.486 51.258 99.097 51.258 103.693 L 51.258 120.105 C 51.258 124.7 54.432 128.312 58.471 128.312 L 81.555 128.312 C 85.594 128.312 88.768 124.7 88.768 120.105 L 88.768 103.693 C 88.768 99.097 85.594 95.486 81.555 95.486 Z" style="fill: rgb(14, 116, 144); fill-opacity: 0.4;"/>
  <path d="M 81.556 141.197 L 58.472 141.197 C 54.433 141.197 51.259 144.808 51.259 149.404 L 51.259 165.816 C 51.259 170.411 54.433 174.023 58.472 174.023 L 81.556 174.023 C 85.595 174.023 88.769 170.411 88.769 165.816 L 88.769 149.404 C 88.769 144.808 85.595 141.197 81.556 141.197 Z" style="fill: rgb(14, 116, 144); fill-opacity: 0.4;"/>
  <path d="M 33.543 114.23 L 10.459 114.23 C 6.42 114.23 3.246 117.841 3.246 122.437 L 3.246 138.849 C 3.246 143.444 6.42 147.056 10.459 147.056 L 33.543 147.056 C 37.582 147.056 40.756 143.444 40.756 138.849 L 40.756 122.437 C 40.756 117.841 37.582 114.23 33.543 114.23 Z" style="fill: rgb(14, 116, 144); fill-opacity: 0.4;"/>
  <path d="M 122.447 198.393 L 99.363 198.393 C 95.324 198.393 92.15 202.004 92.15 206.6 L 92.15 223.012 C 92.15 227.607 95.324 231.219 99.363 231.219 L 122.447 231.219 C 126.486 231.219 129.66 227.607 129.66 223.012 L 129.66 206.6 C 129.66 202.004 126.486 198.393 122.447 198.393 Z" style="fill: rgb(14, 116, 144); fill-opacity: 0.4;"/>
  <path d="M 48.341 180.663 L 25.257 180.663 C 21.218 180.663 18.044 184.274 18.044 188.87 L 18.044 205.282 C 18.044 209.877 21.218 213.489 25.257 213.489 L 48.341 213.489 C 52.38 213.489 55.554 209.877 55.554 205.282 L 55.554 188.87 C 55.554 184.274 52.38 180.663 48.341 180.663 Z" style="fill: rgb(14, 116, 144); fill-opacity: 0.4;"/>
  <path d="M 401.528 198.397 L 378.444 198.397 C 374.405 198.397 371.231 202.008 371.231 206.604 L 371.231 223.016 C 371.231 227.611 374.405 231.223 378.444 231.223 L 401.528 231.223 C 405.567 231.223 408.741 227.611 408.741 223.016 L 408.741 206.604 C 408.741 202.008 405.567 198.397 401.528 198.397 Z" style="fill: rgb(14, 116, 144); fill-opacity: 0.4;"/>
  <path d="M 489.008 114.231 L 465.924 114.231 C 461.885 114.231 458.711 117.842 458.711 122.438 L 458.711 138.85 C 458.711 143.445 461.885 147.057 465.924 147.057 L 489.008 147.057 C 493.047 147.057 496.221 143.445 496.221 138.85 L 496.221 122.438 C 496.221 117.842 493.047 114.231 489.008 114.231 Z" style="fill: rgb(14, 116, 144); fill-opacity: 0.4;"/>
  <path d="M 473.881 180.661 L 450.797 180.661 C 446.758 180.661 443.584 184.272 443.584 188.868 L 443.584 205.28 C 443.584 209.875 446.758 213.487 450.797 213.487 L 473.881 213.487 C 477.92 213.487 481.094 209.875 481.094 205.28 L 481.094 188.868 C 481.094 184.272 477.92 180.661 473.881 180.661 Z" style="fill: rgb(14, 116, 144); fill-opacity: 0.4;"/>
  <path d="M 473.552 49.775 L 450.468 49.775 C 446.429 49.775 443.255 53.386 443.255 57.982 L 443.255 74.394 C 443.255 78.989 446.429 82.601 450.468 82.601 L 473.552 82.601 C 477.591 82.601 480.765 78.989 480.765 74.394 L 480.765 57.982 C 480.765 53.386 477.591 49.775 473.552 49.775 Z" style="fill: rgb(14, 116, 144); fill-opacity: 0.4;"/>
  <path d="M 440.666 141.526 L 417.582 141.526 C 413.543 141.526 410.369 145.137 410.369 149.733 L 410.369 166.145 C 410.369 170.74 413.543 174.352 417.582 174.352 L 440.666 174.352 C 444.705 174.352 447.879 170.74 447.879 166.145 L 447.879 149.733 C 447.879 145.137 444.705 141.526 440.666 141.526 Z" style="fill: rgb(14, 116, 144); fill-opacity: 0.4;"/>
  <path d="M 440.666 95.486 L 417.582 95.486 C 413.543 95.486 410.369 99.097 410.369 103.693 L 410.369 120.105 C 410.369 124.7 413.543 128.312 417.582 128.312 L 440.666 128.312 C 444.705 128.312 447.879 124.7 447.879 120.105 L 447.879 103.693 C 447.879 99.097 444.705 95.486 440.666 95.486 Z" style="fill: rgb(14, 116, 144); fill-opacity: 0.4;"/>
  <path d="M 401.203 31.998 L 378.119 31.998 C 374.08 31.998 370.906 35.609 370.906 40.205 L 370.906 56.617 C 370.906 61.212 374.08 64.824 378.119 64.824 L 401.203 64.824 C 405.242 64.824 408.416 61.212 408.416 56.617 L 408.416 40.205 C 408.416 35.609 405.242 31.998 401.203 31.998 Z" style="fill: rgb(14, 116, 144); fill-opacity: 0.4;"/>
  <path d="M 80.73 157.533 C 80.73 164.09 75.676 169.402 69.439 169.402 C 63.201 169.402 58.147 164.09 58.147 157.533 C 58.147 150.977 63.201 145.665 69.439 145.665 C 75.676 145.665 80.73 150.977 80.73 157.533 Z M 74.375 150.054 C 73.229 150.096 72.229 150.76 71.483 151.68 C 70.656 152.689 70.108 153.885 69.711 155.103 C 69.004 154.498 68.461 153.705 67.325 153.361 C 66.413 153.067 65.428 153.261 64.675 153.871 C 64.289 154.188 64.009 154.621 63.866 155.112 C 63.527 156.275 64.226 157.313 64.542 157.684 L 65.237 158.465 C 65.377 158.616 65.726 159.017 65.553 159.589 C 65.373 160.215 64.66 160.616 63.925 160.381 C 63.598 160.276 63.127 160.019 63.234 159.658 C 63.278 159.508 63.377 159.399 63.432 159.272 C 63.48 159.163 63.505 159.079 63.52 159.033 C 63.652 158.573 63.472 157.973 63.001 157.823 C 62.564 157.679 62.12 157.793 61.943 158.382 C 61.748 159.055 62.053 160.273 63.692 160.807 C 65.615 161.424 67.235 160.327 67.467 158.893 C 67.611 157.997 67.224 157.329 66.518 156.474 L 65.942 155.802 C 65.592 155.439 65.475 154.813 65.835 154.334 C 66.14 153.928 66.574 153.758 67.284 153.96 C 68.323 154.257 68.783 155.009 69.555 155.62 C 69.236 156.718 69.025 157.819 68.839 158.808 L 68.725 159.545 C 68.173 162.582 67.754 164.252 66.659 165.21 C 66.438 165.373 66.123 165.619 65.652 165.638 C 65.401 165.642 65.316 165.465 65.316 165.384 C 65.309 165.202 65.457 165.117 65.556 165.035 C 65.699 164.955 65.924 164.811 65.905 164.368 C 65.89 163.842 65.475 163.386 64.876 163.406 C 64.427 163.421 63.744 163.865 63.769 164.677 C 63.795 165.519 64.541 166.149 65.661 166.106 C 66.265 166.086 67.603 165.828 68.922 164.178 C 70.458 162.289 70.889 160.122 71.212 158.534 L 71.573 156.443 C 71.774 156.467 71.987 156.482 72.222 156.49 C 74.134 156.532 75.09 155.489 75.104 154.733 C 75.116 154.273 74.819 153.82 74.406 153.832 C 74.043 153.845 73.729 154.107 73.646 154.482 C 73.558 154.903 74.256 155.285 73.712 155.656 C 73.326 155.918 72.632 156.104 71.657 155.953 L 71.834 154.921 C 72.198 152.967 72.642 150.563 74.337 150.506 C 74.462 150.499 74.913 150.509 74.921 150.823 C 74.925 150.927 74.904 150.959 74.786 151.194 C 74.675 151.349 74.62 151.538 74.628 151.727 C 74.642 152.226 75.002 152.554 75.528 152.534 C 76.226 152.511 76.425 151.792 76.418 151.426 C 76.389 150.56 75.521 150.019 74.373 150.055 L 74.375 150.054 Z" style=""/>
  <ellipse cx="111.06" cy="214.529" rx="16.643" ry="8.232" style="fill: url('#a');"/>
  <ellipse cx="111.06" cy="214.529" rx="15.994" ry="7.62" style="fill: rgb(98, 128, 182);"/>
  <path d="M 114.3 216.987 L 115.092 213.149 C 115.323 212.481 115.155 211.748 114.65 211.228 C 113.959 210.767 113.114 210.559 112.273 210.641 L 110.902 210.641 L 111.296 208.742 C 111.327 208.592 111.203 208.452 111.04 208.451 L 109.138 208.451 C 109.013 208.451 108.906 208.534 108.882 208.649 L 108.04 212.724 C 107.976 212.288 107.778 211.879 107.472 211.545 C 106.784 210.899 105.827 210.568 104.857 210.644 L 101.193 210.644 C 101.068 210.644 100.961 210.728 100.937 210.841 L 99.232 219.09 C 99.202 219.24 99.325 219.381 99.488 219.381 L 101.395 219.381 C 101.518 219.382 101.626 219.298 101.65 219.183 L 102.062 217.187 L 103.489 217.187 C 104.119 217.204 104.748 217.129 105.352 216.964 C 105.863 216.805 106.33 216.543 106.72 216.193 C 107.04 215.921 107.312 215.603 107.528 215.25 L 107.187 216.899 C 107.157 217.049 107.28 217.19 107.443 217.19 L 109.345 217.19 C 109.47 217.191 109.577 217.107 109.6 216.992 L 110.535 212.465 L 111.836 212.465 C 112.391 212.465 112.551 212.569 112.598 212.613 C 112.645 212.658 112.716 212.797 112.628 213.248 L 111.872 216.898 C 111.842 217.048 111.965 217.189 112.128 217.189 L 114.053 217.189 C 114.176 217.184 114.278 217.101 114.3 216.987 Z M 105.509 213.82 C 105.451 214.29 105.214 214.723 104.842 215.041 C 104.374 215.315 103.826 215.439 103.278 215.4 L 102.432 215.4 L 103.044 212.436 L 104.139 212.436 C 104.944 212.436 105.267 212.598 105.399 212.733 C 105.6 213.065 105.64 213.46 105.509 213.82 Z" style="fill: rgb(255, 255, 255);"/>
  <path d="M 122.409 211.546 C 121.72 210.9 120.763 210.569 119.793 210.645 L 116.118 210.645 C 115.994 210.645 115.887 210.729 115.863 210.842 L 114.158 219.091 C 114.128 219.242 114.251 219.382 114.414 219.382 L 116.326 219.382 C 116.45 219.383 116.557 219.299 116.58 219.184 L 116.994 217.189 L 118.42 217.189 C 119.051 217.206 119.68 217.13 120.284 216.965 C 120.795 216.807 121.262 216.543 121.651 216.194 C 122.319 215.629 122.769 214.873 122.93 214.041 C 123.19 213.18 122.997 212.253 122.409 211.546 Z M 120.427 213.82 C 120.369 214.29 120.132 214.723 119.761 215.041 C 119.291 215.315 118.743 215.439 118.193 215.398 L 117.349 215.398 L 117.962 212.435 L 119.057 212.435 C 119.861 212.435 120.185 212.597 120.315 212.732 C 120.518 213.064 120.559 213.46 120.427 213.82 Z" style="fill: rgb(255, 255, 255);"/>
  <path d="M 104.139 212.191 C 104.657 212.131 105.181 212.265 105.591 212.569 C 105.856 212.954 105.92 213.432 105.763 213.865 C 105.695 214.395 105.424 214.88 105 215.233 C 104.489 215.542 103.884 215.688 103.278 215.646 L 102.116 215.646 L 102.829 212.194 L 104.139 212.191 Z M 99.482 219.138 L 101.395 219.138 L 101.846 216.945 L 103.484 216.945 C 104.086 216.96 104.689 216.89 105.267 216.731 C 105.742 216.584 106.177 216.339 106.54 216.014 C 107.165 215.484 107.589 214.773 107.74 213.993 C 107.984 213.207 107.813 212.359 107.281 211.709 C 106.644 211.115 105.758 210.816 104.863 210.891 L 101.193 210.891 L 99.482 219.138 Z" style="fill: rgb(0, 0, 4);"/>
  <path d="M 109.143 208.696 L 111.045 208.696 L 110.585 210.89 L 112.274 210.89 C 113.05 210.813 113.829 210.999 114.474 211.412 C 114.907 211.876 115.045 212.522 114.836 213.107 L 114.042 216.945 L 112.118 216.945 L 112.874 213.296 C 112.98 213.014 112.944 212.702 112.778 212.445 C 112.504 212.262 112.162 212.182 111.827 212.222 L 110.311 212.222 L 109.334 216.948 L 107.432 216.948 L 109.143 208.696 Z" style="fill: rgb(0, 0, 4);"/>
  <path d="M 119.058 212.191 C 119.576 212.131 120.098 212.265 120.508 212.569 C 120.776 212.954 120.838 213.432 120.681 213.865 C 120.614 214.395 120.343 214.88 119.918 215.233 C 119.405 215.543 118.801 215.688 118.193 215.646 L 117.031 215.646 L 117.744 212.194 L 119.058 212.191 Z M 114.4 219.138 L 116.313 219.138 L 116.765 216.945 L 118.402 216.945 C 119.006 216.96 119.607 216.89 120.185 216.731 C 120.661 216.584 121.095 216.339 121.457 216.014 C 122.084 215.484 122.507 214.773 122.659 213.993 C 122.902 213.207 122.732 212.359 122.201 211.709 C 121.562 211.115 120.677 210.816 119.781 210.891 L 116.105 210.891 L 114.4 219.138 Z" style="fill: rgb(0, 0, 4);"/>
  <g transform="matrix(0.10682699829339981, 0, 0, 0.09666900336742401, 57.200927734375, 99.8541030883789)" style="">
    <path d="M255.855641,59.619717 C255.950565,59.9710596 256,60.3333149 256,60.6972536 L256,117.265345 C256,118.743206 255.209409,120.108149 253.927418,120.843385 L206.448786,148.178786 L206.448786,202.359798 C206.448786,203.834322 205.665123,205.195421 204.386515,205.937838 L105.27893,262.990563 C105.05208,263.119455 104.804608,263.201946 104.557135,263.289593 C104.464333,263.320527 104.376687,263.377239 104.278729,263.403017 C103.585929,263.58546 102.857701,263.58546 102.164901,263.403017 C102.051476,263.372083 101.948363,263.310215 101.840093,263.26897 C101.613244,263.186479 101.376082,263.1143 101.159544,262.990563 L2.07258227,205.937838 C0.7913718,205.201819 0,203.837372 0,202.359798 L0,32.6555248 C0,32.2843161 0.0515567729,31.9234187 0.144358964,31.5728326 C0.175293028,31.454252 0.24747251,31.3459828 0.288717928,31.2274022 C0.366053087,31.0108638 0.438232569,30.7891697 0.55165747,30.5880982 C0.628992629,30.4540506 0.742417529,30.3457814 0.83521972,30.2220451 C0.953800298,30.0570635 1.06206952,29.8869261 1.20127281,29.7425672 C1.31985339,29.6239866 1.4745237,29.5363401 1.60857131,29.4332265 C1.75808595,29.3094903 1.89213356,29.1754427 2.06227091,29.0774848 L2.06742659,29.0774848 L51.6134853,0.551122364 C52.8901903,-0.183535768 54.4613221,-0.183535768 55.7380271,0.551122364 L105.284086,29.0774848 L105.294397,29.0774848 C105.459379,29.1805983 105.598582,29.3094903 105.748097,29.4280708 C105.882144,29.5311844 106.031659,29.6239866 106.15024,29.7374115 C106.294599,29.8869261 106.397712,30.0570635 106.521448,30.2220451 C106.609095,30.3457814 106.727676,30.4540506 106.799855,30.5880982 C106.918436,30.7943253 106.985459,31.0108638 107.06795,31.2274022 C107.109196,31.3459828 107.181375,31.454252 107.212309,31.5779883 C107.307234,31.9293308 107.355765,32.2915861 107.356668,32.6555248 L107.356668,138.651094 L148.643332,114.878266 L148.643332,60.6920979 C148.643332,60.3312005 148.694889,59.9651474 148.787691,59.619717 C148.823781,59.4959808 148.890804,59.3877116 148.93205,59.269131 C149.014541,59.0525925 149.08672,58.8308984 149.200145,58.629827 C149.27748,58.4957794 149.390905,58.3875102 149.478552,58.2637739 C149.602288,58.0987922 149.705401,57.9286549 149.84976,57.7842959 C149.968341,57.6657153 150.117856,57.5780688 150.251903,57.4749553 C150.406573,57.351219 150.540621,57.2171714 150.705603,57.1192136 L150.710758,57.1192136 L200.261973,28.5928511 C201.538395,27.8571345 203.110093,27.8571345 204.386515,28.5928511 L253.932573,57.1192136 C254.107866,57.2223271 254.241914,57.351219 254.396584,57.4697996 C254.525476,57.5729132 254.674991,57.6657153 254.793572,57.7791402 C254.93793,57.9286549 255.041044,58.0987922 255.16478,58.2637739 C255.257582,58.3875102 255.371007,58.4957794 255.443187,58.629827 C255.561767,58.8308984 255.628791,59.0525925 255.711282,59.269131 C255.757683,59.3877116 255.824707,59.4959808 255.855641,59.619717 Z M247.740605,114.878266 L247.740605,67.8378666 L230.402062,77.8192579 L206.448786,91.6106946 L206.448786,138.651094 L247.745761,114.878266 L247.740605,114.878266 Z M198.194546,199.97272 L198.194546,152.901386 L174.633101,166.357704 L107.351512,204.757188 L107.351512,252.27191 L198.194546,199.97272 Z M8.25939501,39.7961379 L8.25939501,199.97272 L99.0921175,252.266755 L99.0921175,204.762344 L51.6392637,177.906421 L51.6237967,177.89611 L51.603174,177.885798 C51.443348,177.792996 51.3093004,177.658949 51.1597857,177.545524 C51.0308938,177.44241 50.8813791,177.359919 50.7679542,177.246494 L50.7576429,177.231027 C50.6235953,177.102135 50.5307931,176.942309 50.4173682,176.79795 C50.3142546,176.658747 50.1905184,176.540167 50.1080276,176.395808 L50.1028719,176.380341 C50.0100697,176.22567 49.9533572,176.040066 49.8863334,175.864773 C49.8193096,175.710103 49.7316631,175.565744 49.6904177,175.400762 L49.6904177,175.395606 C49.6388609,175.19969 49.6285496,174.993463 49.6079269,174.792392 C49.5873041,174.637722 49.5460587,174.483051 49.5460587,174.328381 L49.5460587,174.31807 L49.5460587,63.5689658 L25.5979377,49.7723734 L8.25939501,39.8012935 L8.25939501,39.7961379 Z M53.6809119,8.89300821 L12.3994039,32.6555248 L53.6706006,56.4180414 L94.9469529,32.6503692 L53.6706006,8.89300821 L53.6809119,8.89300821 Z M75.1491521,157.19091 L99.0972731,143.404629 L99.0972731,39.7961379 L81.7587304,49.7775291 L57.8054537,63.5689658 L57.8054537,167.177457 L75.1491521,157.19091 Z M202.324244,36.934737 L161.047891,60.6972536 L202.324244,84.4597702 L243.59544,60.6920979 L202.324244,36.934737 Z M198.194546,91.6106946 L174.24127,77.8192579 L156.902727,67.8378666 L156.902727,114.878266 L180.850848,128.664547 L198.194546,138.651094 L198.194546,91.6106946 Z M103.216659,197.616575 L163.759778,163.052915 L194.023603,145.781396 L152.778185,122.034346 L105.289242,149.374903 L62.0073307,174.292291 L103.216659,197.616575 Z" fill="#FF2D20"/>
  </g>
  <path d="M 397.016 37.657 L 402.18 37.657 L 389.27 60.723 L 376.359 37.657 L 386.235 37.657 L 389.27 43.006 L 392.239 37.657 L 397.016 37.657 Z" style="fill: rgb(65, 184, 131);"/>
  <path d="M 376.359 37.657 L 389.27 60.723 L 402.18 37.657 L 397.016 37.657 L 389.27 51.496 L 381.459 37.657 L 376.359 37.657 Z" style="fill: rgb(65, 184, 131);"/>
  <path d="M 381.459 37.657 L 389.27 51.563 L 397.016 37.657 L 392.239 37.657 L 389.27 43.006 L 386.235 37.657 L 381.459 37.657 Z" style="fill: rgb(53, 73, 94);"/>
  <g transform="matrix(0.10057099908590317, 0, 0, 0.09506800770759583, 377.6200256347656, 203.5279083251953)" style="">
    <path d="M210.483381,73.8236374 C207.827698,72.9095503 205.075867,72.0446761 202.24247,71.2267368 C202.708172,69.3261098 203.135596,67.4500894 203.515631,65.6059664 C209.753843,35.3248922 205.675082,10.9302478 191.747328,2.89849283 C178.392359,-4.80289661 156.551327,3.22703567 134.492936,22.4237776 C132.371761,24.2697233 130.244662,26.2241201 128.118477,28.2723861 C126.701777,26.917204 125.287358,25.6075897 123.876584,24.3549348 C100.758745,3.82852863 77.5866802,-4.82157937 63.6725966,3.23341515 C50.3303869,10.9571328 46.3792156,33.8904224 51.9945178,62.5880206 C52.5367729,65.3599011 53.1706189,68.1905639 53.8873982,71.068617 C50.6078941,71.9995641 47.4418534,72.9920277 44.4125156,74.0478303 C17.3093297,83.497195 0,98.3066828 0,113.667995 C0,129.533287 18.5815786,145.446423 46.8116526,155.095373 C49.0394553,155.856809 51.3511025,156.576778 53.7333796,157.260293 C52.9600965,160.37302 52.2875179,163.423318 51.7229345,166.398431 C46.3687351,194.597975 50.5500231,216.989464 63.8566899,224.664425 C77.6012619,232.590464 100.66852,224.443422 123.130185,204.809231 C124.905501,203.257196 126.687196,201.611293 128.472081,199.886102 C130.785552,202.113904 133.095375,204.222319 135.392897,206.199955 C157.14963,224.922338 178.637969,232.482469 191.932332,224.786092 C205.663234,216.837268 210.125675,192.78347 204.332202,163.5181 C203.88974,161.283006 203.374826,158.99961 202.796573,156.675661 C204.416503,156.196743 206.006814,155.702335 207.557482,155.188332 C236.905331,145.46465 256,129.745175 256,113.667995 C256,98.2510906 238.132466,83.3418093 210.483381,73.8236374 L210.483381,73.8236374 Z M204.118035,144.807565 C202.718197,145.270987 201.281904,145.718918 199.818271,146.153177 C196.578411,135.896354 192.205739,124.989735 186.854729,113.72131 C191.961041,102.721277 196.164656,91.9540963 199.313837,81.7638014 C201.93261,82.5215915 204.474374,83.3208483 206.923636,84.1643056 C230.613348,92.3195488 245.063763,104.377206 245.063763,113.667995 C245.063763,123.564379 229.457753,136.411268 204.118035,144.807565 L204.118035,144.807565 Z M193.603754,165.642007 C196.165567,178.582766 196.531475,190.282717 194.834536,199.429057 C193.309843,207.64764 190.243595,213.12715 186.452366,215.321689 C178.384612,219.991462 161.131788,213.921395 142.525146,197.909832 C140.392124,196.074366 138.243609,194.114502 136.088259,192.040261 C143.301619,184.151133 150.510878,174.979732 157.54698,164.793993 C169.922699,163.695814 181.614905,161.900447 192.218042,159.449363 C192.740247,161.555956 193.204126,163.621993 193.603754,165.642007 L193.603754,165.642007 Z M87.2761866,214.514686 C79.3938934,217.298414 73.1160375,217.378157 69.3211631,215.189998 C61.2461189,210.532528 57.8891498,192.554265 62.4682434,168.438039 C62.9927272,165.676183 63.6170041,162.839142 64.3365173,159.939216 C74.8234575,162.258154 86.4299951,163.926841 98.8353334,164.932519 C105.918826,174.899534 113.336329,184.06091 120.811247,192.08264 C119.178102,193.65928 117.551336,195.16028 115.933685,196.574699 C106.001303,205.256705 96.0479605,211.41654 87.2761866,214.514686 L87.2761866,214.514686 Z M50.3486141,144.746959 C37.8658105,140.48046 27.5570398,134.935332 20.4908634,128.884403 C14.1414664,123.446815 10.9357817,118.048415 10.9357817,113.667995 C10.9357817,104.34622 24.8334611,92.4562517 48.0123604,84.3748281 C50.8247961,83.3942121 53.7689223,82.4701001 56.8242337,81.6020363 C60.0276398,92.0224477 64.229889,102.917218 69.3011135,113.93411 C64.1642716,125.11459 59.9023288,136.182975 56.6674809,146.725506 C54.489347,146.099407 52.3791089,145.440499 50.3486141,144.746959 L50.3486141,144.746959 Z M62.7270678,60.4878073 C57.9160346,35.9004118 61.1112387,17.3525532 69.1516515,12.6982729 C77.7160924,7.74005624 96.6544653,14.8094222 116.614922,32.5329619 C117.890816,33.6657739 119.171723,34.8514442 120.456275,36.0781256 C113.018267,44.0647686 105.66866,53.1573386 98.6480514,63.0655695 C86.6081646,64.1815215 75.0831931,65.9741531 64.4868907,68.3746571 C63.8206914,65.6948233 63.2305903,63.0619242 62.7270678,60.4878073 L62.7270678,60.4878073 Z M173.153901,87.7550367 C170.620796,83.3796304 168.020249,79.1076627 165.369124,74.9523483 C173.537126,75.9849113 181.362914,77.3555864 188.712066,79.0329319 C186.505679,86.1041206 183.755673,93.4974728 180.518546,101.076741 C178.196419,96.6680702 175.740322,92.2229454 173.153901,87.7550367 L173.153901,87.7550367 Z M128.122121,43.8938899 C133.166461,49.3588189 138.218091,55.4603279 143.186789,62.0803968 C138.179814,61.8439007 133.110868,61.720868 128.000001,61.720868 C122.937434,61.720868 117.905854,61.8411667 112.929865,62.0735617 C117.903575,55.515009 122.99895,49.4217021 128.122121,43.8938899 L128.122121,43.8938899 Z M82.8018984,87.830679 C80.2715265,92.2183886 77.8609975,96.6393627 75.5753239,101.068539 C72.3906004,93.5156998 69.6661103,86.0886276 67.440586,78.9171899 C74.7446255,77.2826781 82.5335049,75.9461789 90.6495601,74.9332099 C87.9610684,79.1268011 85.3391054,83.4302106 82.8018984,87.8297677 L82.8018984,87.830679 L82.8018984,87.830679 Z M90.8833221,153.182899 C82.4979621,152.247395 74.5919739,150.979704 67.289757,149.390303 C69.5508242,142.09082 72.3354636,134.505173 75.5876271,126.789657 C77.8792246,131.215644 80.2993228,135.638441 82.8451877,140.03572 L82.8456433,140.03572 C85.4388987,144.515476 88.1255676,148.90364 90.8833221,153.182899 L90.8833221,153.182899 Z M128.424691,184.213105 C123.24137,178.620587 118.071264,172.434323 113.021912,165.780078 C117.923624,165.972373 122.921029,166.0708 128.000001,166.0708 C133.217953,166.0708 138.376211,165.953235 143.45336,165.727219 C138.468257,172.501308 133.434855,178.697141 128.424691,184.213105 L128.424691,184.213105 Z M180.622896,126.396409 C184.044571,134.195313 186.929004,141.741317 189.219234,148.9164 C181.796719,150.609693 173.782736,151.973534 165.339049,152.986959 C167.996555,148.775595 170.619884,144.430263 173.197646,139.960532 C175.805484,135.438399 178.28163,130.90943 180.622896,126.396409 L180.622896,126.396409 Z M163.724586,134.496971 C159.722835,141.435557 155.614455,148.059271 151.443648,154.311611 C143.847063,154.854776 135.998946,155.134562 128.000001,155.134562 C120.033408,155.134562 112.284171,154.887129 104.822013,154.402745 C100.48306,148.068386 96.285368,141.425078 92.3091341,134.556664 L92.3100455,134.556664 C88.3442923,127.706935 84.6943232,120.799333 81.3870228,113.930466 C84.6934118,107.045648 88.3338117,100.130301 92.276781,93.292874 L92.2758697,93.294241 C96.2293193,86.4385872 100.390102,79.8276317 104.688954,73.5329157 C112.302398,72.9573964 120.109505,72.6571055 127.999545,72.6571055 L128.000001,72.6571055 C135.925583,72.6571055 143.742714,72.9596746 151.353879,73.5402067 C155.587114,79.7888993 159.719645,86.3784378 163.688588,93.2350031 C167.702644,100.168578 171.389978,107.037901 174.724618,113.77508 C171.400003,120.627999 167.720871,127.566587 163.724586,134.496971 L163.724586,134.496971 Z M186.284677,12.3729198 C194.857321,17.3165548 198.191049,37.2542268 192.804953,63.3986692 C192.461372,65.0669011 192.074504,66.7661189 191.654369,68.4881206 C181.03346,66.0374921 169.500286,64.2138746 157.425315,63.0810626 C150.391035,53.0639249 143.101577,43.9572289 135.784778,36.073113 C137.751934,34.1806885 139.716356,32.3762092 141.672575,30.673346 C160.572216,14.2257007 178.236518,7.73185406 186.284677,12.3729198 L186.284677,12.3729198 Z M128.000001,90.8080696 C140.624975,90.8080696 150.859926,101.042565 150.859926,113.667995 C150.859926,126.292969 140.624975,136.527922 128.000001,136.527922 C115.375026,136.527922 105.140075,126.292969 105.140075,113.667995 C105.140075,101.042565 115.375026,90.8080696 128.000001,90.8080696 L128.000001,90.8080696 Z" fill="#00D8FF"/>
  </g>
  <path d="M 453.891 62.493 C 454.91 58.738 457.458 56.86 461.534 56.86 C 467.65 56.86 468.414 61.085 471.472 61.789 C 473.51 62.259 475.294 61.555 476.823 59.676 C 475.803 63.432 473.255 65.309 469.179 65.309 C 463.064 65.309 462.299 61.085 459.242 60.381 C 457.203 59.912 455.42 60.616 453.891 62.493 Z M 446.247 70.941 C 447.266 67.187 449.814 65.309 453.891 65.309 C 460.006 65.309 460.771 69.533 463.828 70.237 C 465.866 70.707 467.65 70.003 469.179 68.125 C 468.159 71.881 465.611 73.758 461.534 73.758 C 455.42 73.758 454.656 69.533 451.597 68.829 C 449.559 68.361 447.776 69.065 446.247 70.941 Z" style="fill: rgb(68, 168, 179);"/>
  <g transform="matrix(0.08344100415706635, 0, 0, 0.08987200260162354, 418.4823913574219, 100.4541244506836)" style="">
    <path d="M0,222.991225 C0,241.223474 14.7785318,256 33.0087747,256 L222.991225,256 C241.223474,256 256,241.221468 256,222.991225 L256,33.0087747 C256,14.7765263 241.221468,0 222.991225,0 L33.0087747,0 C14.7765263,0 0,14.7785318 0,33.0087747 L0,222.991225 Z" fill="#563D7C"/>
    <path d="M106.157563,113.238095 L106.157563,76.9845938 L138.069328,76.9845938 C141.108559,76.9845938 144.039202,77.2378593 146.861345,77.7443978 C149.683488,78.2509362 152.179961,79.1554557 154.35084,80.4579832 C156.52172,81.7605107 158.258397,83.5695496 159.560924,85.8851541 C160.863452,88.2007585 161.514706,91.1675823 161.514706,94.7857143 C161.514706,101.298352 159.560944,106.001853 155.653361,108.896359 C151.745779,111.790864 146.752832,113.238095 140.67437,113.238095 L106.157563,113.238095 L106.157563,113.238095 Z M72.07493,50.5 L72.07493,205.5 L147.186975,205.5 C154.133788,205.5 160.899594,204.631661 167.484594,202.894958 C174.069594,201.158255 179.93088,198.480877 185.068627,194.862745 C190.206375,191.244613 194.294803,186.577293 197.334034,180.860644 C200.373264,175.143996 201.892857,168.37819 201.892857,160.563025 C201.892857,150.866431 199.541107,142.581033 194.837535,135.706583 C190.133963,128.832132 183.00635,124.020088 173.454482,121.270308 C180.401295,117.941627 185.647508,113.672295 189.193277,108.462185 C192.739047,103.252075 194.511905,96.7395349 194.511905,88.9243697 C194.511905,81.6881057 193.317939,75.6097352 190.929972,70.6890756 C188.542005,65.7684161 185.177193,61.8247114 180.835434,58.8578431 C176.493676,55.8909749 171.283644,53.756309 165.205182,52.4537815 C159.12672,51.151254 152.397096,50.5 145.016106,50.5 L72.07493,50.5 L72.07493,50.5 Z M106.157563,179.015406 L106.157563,136.466387 L143.279412,136.466387 C150.660401,136.466387 156.594049,138.166883 161.080532,141.567927 C165.567016,144.968971 167.810224,150.649353 167.810224,158.609244 C167.810224,162.661552 167.122789,165.990183 165.747899,168.595238 C164.373009,171.200293 162.527789,173.262597 160.212185,174.782213 C157.89658,176.301828 155.219203,177.387252 152.179972,178.038515 C149.140741,178.689779 145.956833,179.015406 142.628151,179.015406 L106.157563,179.015406 L106.157563,179.015406 Z" fill="#FFFFFF"/>
  </g>
  <rect width="30.717" height="24.47" rx="288" fill="#f7df1e" x="21.21" y="54.071" style=""/>
  <path d="M 40.648 71.755 C 41.248 72.566 42.088 73.14 43.467 73.14 C 44.668 73.14 45.448 72.662 45.448 71.993 C 45.448 71.229 44.668 70.942 43.348 70.463 L 42.627 70.225 C 40.528 69.508 39.148 68.648 39.148 66.784 C 39.148 65.063 40.768 63.725 43.348 63.725 C 45.207 63.725 46.528 64.251 47.427 65.589 L 45.207 66.736 C 44.727 66.019 44.188 65.733 43.348 65.733 C 42.508 65.733 41.968 66.162 41.968 66.736 C 41.968 67.405 42.508 67.692 43.768 68.122 L 44.488 68.361 C 46.947 69.221 48.328 70.034 48.328 71.993 C 48.328 74.049 46.288 75.195 43.528 75.195 C 40.828 75.195 39.088 74.191 38.249 72.853 L 40.648 71.755 Z M 30.449 71.945 C 30.929 72.566 31.289 73.14 32.309 73.14 C 33.269 73.14 33.869 72.853 33.869 71.707 L 33.869 63.773 L 36.749 63.773 L 36.749 71.611 C 36.749 74.001 35.009 75.051 32.429 75.051 C 30.09 75.051 28.769 74.096 28.109 72.949 L 30.449 71.945 Z" style=""/>
  <path d="M 465.248 120.401 L 465.248 131.327 L 468.286 133.148 L 468.286 125.863 L 474.362 129.507 L 480.439 125.863 L 480.439 129.507 L 474.362 133.148 L 474.362 136.791 L 480.439 140.432 L 489.554 134.97 L 489.554 127.685 L 486.515 129.507 L 486.515 133.148 L 480.439 136.791 L 477.401 134.97 L 483.478 131.327 L 483.478 120.401 L 474.362 125.863 L 465.248 120.401 Z M 489.554 120.401 L 486.515 122.22 L 486.515 125.863 L 489.554 124.043 L 489.554 120.4 L 489.554 120.401 Z" style=""/>
  <polygon points="421.082 167.793 419.162 146.648 440.254 146.648 438.332 167.79 429.695 170.142 421.082 167.793" style="fill: rgb(228, 79, 38);"/>
  <polygon points="429.708 168.344 436.688 166.444 438.33 148.377 429.708 148.377 429.708 168.344" style="fill: rgb(241, 102, 42);"/>
  <polygon points="429.708 156.219 426.214 156.219 425.973 153.563 429.708 153.563 429.708 150.97 429.699 150.97 423.087 150.97 423.151 151.666 423.799 158.813 429.708 158.813 429.708 156.219" style="fill: rgb(235, 235, 235);"/>
  <polygon points="429.708 162.954 429.696 162.958 426.756 162.178 426.568 160.11 425.139 160.11 423.917 160.11 424.287 164.181 429.696 165.656 429.708 165.653 429.708 162.954" style="fill: rgb(235, 235, 235);"/>
  <polygon points="429.699 156.219 429.699 158.813 432.95 158.813 432.644 162.176 429.699 162.957 429.699 165.655 435.112 164.181 435.152 163.743 435.772 156.915 435.837 156.219 435.125 156.219 429.699 156.219" style="fill: rgb(255, 255, 255);"/>
  <polygon points="429.699 150.97 429.699 152.581 429.699 153.557 429.699 153.563 436.068 153.563 436.068 153.563 436.077 153.563 436.13 152.981 436.25 151.666 436.313 150.97 429.699 150.97" style="fill: rgb(255, 255, 255);"/>
  <polygon points="453.647 206.641 451.728 185.495 472.818 185.495 470.897 206.637 462.26 208.989 453.647 206.641" style="fill: rgb(21, 114, 182);"/>
  <polygon points="462.273 207.192 469.253 205.291 470.895 187.224 462.273 187.224 462.273 207.192" style="fill: rgb(51, 169, 220);"/>
  <polygon points="462.273 194.885 465.767 194.885 466.008 192.23 462.273 192.23 462.273 189.636 462.283 189.636 468.894 189.636 468.831 190.332 468.182 197.479 462.273 197.479 462.273 194.885" style="fill: rgb(255, 255, 255);"/>
  <polygon points="462.289 201.62 462.277 201.624 459.337 200.843 459.149 198.775 457.72 198.775 456.498 198.775 456.868 202.847 462.277 204.322 462.289 204.319 462.289 201.62" style="fill: rgb(235, 235, 235);"/>
  <polygon points="465.542 197.369 465.225 200.842 462.28 201.622 462.28 204.32 467.693 202.847 467.733 202.409 468.192 197.369 465.542 197.369" style="fill: rgb(255, 255, 255);"/>
  <polygon points="462.283 189.636 462.283 191.247 462.283 192.223 462.283 192.23 455.913 192.23 455.913 192.23 455.904 192.23 455.851 191.646 455.731 190.332 455.668 189.636 462.283 189.636" style="fill: rgb(235, 235, 235);"/>
  <polygon points="462.273 194.885 462.273 196.496 462.273 197.472 462.273 197.479 459.378 197.479 459.378 197.479 459.369 197.479 459.316 196.896 459.197 195.581 459.134 194.885 462.273 194.885" style="fill: rgb(235, 235, 235);"/>
  <path d="M 14.591 123.235 C 14.366 123.234 14.14 123.263 13.921 123.319 L 13.921 123.348 L 13.953 123.348 C 14.11 123.581 14.285 123.8 14.476 124.007 C 14.607 124.264 14.722 124.519 14.853 124.776 C 14.869 124.76 14.885 124.743 14.885 124.743 C 15.132 124.551 15.261 124.248 15.227 123.94 C 15.156 123.832 15.09 123.72 15.03 123.605 C 14.932 123.445 14.719 123.364 14.589 123.236" style="fill: rgb(93, 135, 161); fill-rule: evenodd;"/>
  <path d="M 32.133 137.237 C 31.056 137.163 29.975 137.316 28.962 137.687 C 28.717 137.783 28.326 137.783 28.292 138.088 C 28.423 138.216 28.439 138.424 28.554 138.602 C 28.778 138.974 29.066 139.305 29.404 139.582 C 29.746 139.838 30.087 140.094 30.45 140.319 C 31.087 140.706 31.807 140.93 32.427 141.315 C 32.788 141.54 33.147 141.829 33.507 142.07 C 33.686 142.199 33.8 142.406 34.029 142.49 L 34.029 142.441 C 33.962 142.262 33.879 142.09 33.78 141.927 C 33.617 141.767 33.453 141.622 33.289 141.462 C 32.811 140.839 32.237 140.293 31.589 139.841 C 31.066 139.487 29.921 139.002 29.71 138.414 L 29.676 138.382 C 30.06 138.328 30.438 138.242 30.805 138.123 C 31.36 137.979 31.867 138.012 32.438 137.872 C 32.701 137.807 33.175 137.647 33.175 137.647 L 33.175 137.395 C 32.883 137.11 32.673 136.728 32.366 136.459 C 31.529 135.741 30.638 135.088 29.699 134.505 C 29.197 134.187 28.551 133.982 28.017 133.711 C 27.824 133.616 27.504 133.569 27.387 133.409 C 27.122 133.027 26.899 132.616 26.724 132.187 C 26.256 131.314 25.802 130.347 25.399 129.424 C 25.161 128.805 24.886 128.2 24.575 127.614 C 23.077 125.112 20.915 123.058 18.319 121.67 C 17.664 121.359 16.968 121.14 16.251 121.019 C 15.846 121.002 15.442 120.971 15.038 120.956 C 14.778 120.788 14.53 120.602 14.296 120.399 C 13.372 119.824 10.997 118.589 10.317 120.224 C 9.881 121.257 10.964 122.272 11.336 122.797 C 11.649 123.167 11.925 123.565 12.16 123.987 C 12.274 124.258 12.306 124.544 12.416 124.827 C 12.654 125.552 12.936 126.264 13.26 126.956 C 13.434 127.298 13.634 127.627 13.858 127.939 C 13.988 128.115 14.214 128.191 14.263 128.481 C 14.084 128.859 13.958 129.259 13.89 129.671 C 13.32 131.44 13.489 133.359 14.359 135.006 C 14.615 135.403 15.232 136.276 16.057 135.943 C 16.784 135.657 16.622 134.752 16.832 133.959 C 16.88 133.767 16.849 133.641 16.945 133.514 L 16.945 133.669 C 16.945 133.669 17.358 134.559 17.563 135.011 C 18.121 135.841 18.813 136.575 19.613 137.184 C 19.93 137.455 20.184 137.789 20.361 138.164 L 20.361 138.451 L 20.726 138.451 C 20.711 138.189 20.577 137.946 20.361 137.79 C 20.062 137.487 19.789 137.163 19.542 136.817 C 18.874 135.881 18.284 134.894 17.779 133.864 C 17.523 133.361 17.306 132.809 17.101 132.306 C 17.007 132.112 17.007 131.819 16.849 131.719 C 16.558 132.058 16.304 132.427 16.094 132.82 C 15.84 133.615 15.691 134.439 15.653 135.271 C 15.59 135.288 15.621 135.271 15.59 135.303 C 15.087 135.173 14.914 134.639 14.724 134.185 C 14.234 132.788 14.185 131.278 14.582 129.853 C 14.691 129.513 15.166 128.442 14.976 128.117 C 14.881 127.808 14.566 127.631 14.393 127.387 C 14.174 127.058 13.984 126.71 13.827 126.349 C 13.452 125.446 13.262 124.439 12.854 123.529 C 12.628 123.092 12.365 122.673 12.067 122.28 C 11.738 121.886 11.448 121.463 11.2 121.015 C 11.121 120.837 11.011 120.545 11.137 120.35 C 11.155 120.239 11.245 120.153 11.358 120.139 C 11.561 119.961 12.145 120.187 12.349 120.285 C 12.898 120.497 13.421 120.769 13.907 121.096 C 14.128 121.259 14.647 121.671 14.647 121.671 L 14.801 121.671 C 15.324 121.782 15.911 121.702 16.403 121.847 C 17.232 122.118 18.023 122.491 18.757 122.955 C 20.922 124.31 22.682 126.205 23.856 128.446 C 24.053 128.815 24.136 129.153 24.315 129.537 C 24.657 130.326 25.084 131.131 25.426 131.898 C 25.727 132.657 26.118 133.379 26.587 134.05 C 26.832 134.385 27.813 134.563 28.255 134.739 C 28.638 134.869 29.015 135.02 29.383 135.188 C 29.939 135.524 30.493 135.911 31.017 136.279 C 31.277 136.472 32.095 136.873 32.144 137.194" style="fill: rgb(0, 117, 143); fill-rule: evenodd;"/>
  <path d="M 97.214 49.557 C 96.434 48.777 96.434 47.512 97.214 46.731 L 109.216 34.73 C 109.996 33.949 111.262 33.949 112.042 34.73 L 124.044 46.731 C 124.824 47.512 124.824 48.777 124.044 49.557 L 112.042 61.559 C 111.262 62.339 109.996 62.339 109.216 61.559 L 97.214 49.557 Z" fill="#EE513B"/>
  <path d="M 106.778 37.206 L 105.563 38.421 L 108.701 41.56 C 108.574 41.832 108.504 42.136 108.504 42.457 C 108.504 43.366 109.075 44.142 109.879 44.445 L 109.879 52.124 C 109.075 52.427 108.504 53.203 108.504 54.113 C 108.504 55.286 109.455 56.238 110.629 56.238 C 111.802 56.238 112.754 55.286 112.754 54.113 C 112.754 53.288 112.284 52.573 111.597 52.221 L 111.597 44.456 L 114.598 47.456 C 114.477 47.723 114.41 48.02 114.41 48.332 C 114.41 49.505 115.361 50.457 116.535 50.457 C 117.708 50.457 118.66 49.505 118.66 48.332 C 118.66 47.158 117.708 46.207 116.535 46.207 C 116.307 46.207 116.087 46.243 115.881 46.309 L 112.659 43.087 C 112.72 42.888 112.754 42.676 112.754 42.457 C 112.754 41.283 111.802 40.332 110.629 40.332 C 110.409 40.332 110.198 40.365 109.999 40.427 L 106.778 37.206 Z" fill="white"/>
  <g transform="matrix(0.09335500001907349, 0, 0, 0.09135500341653824, 24.786298751831055, 183.89915466308594)" style="">
    <path d="M127.999999,288.463771 C124.024844,288.463771 120.314699,287.403728 116.869564,285.548656 L81.6231884,264.612838 C76.32298,261.697724 78.9730854,260.637682 80.5631458,260.107661 C87.7184259,257.72257 89.0434775,257.192547 96.4637688,252.952381 C97.2587979,252.422361 98.3188405,252.687372 99.1138718,253.217392 L126.144927,269.383024 C127.20497,269.913045 128.530021,269.913045 129.325053,269.383024 L235.064182,208.165634 C236.124225,207.635611 236.654245,206.575571 236.654245,205.250519 L236.654245,83.0807467 C236.654245,81.7556929 236.124225,80.6956526 235.064182,80.1656324 L129.325053,19.2132506 C128.26501,18.6832305 126.939959,18.6832305 126.144927,19.2132506 L20.4057954,80.1656324 C19.3457551,80.6956526 18.8157349,82.0207041 18.8157349,83.0807467 L18.8157349,205.250519 C18.8157349,206.31056 19.3457551,207.635611 20.4057954,208.165634 L49.2919247,224.861286 C64.9275364,232.811595 74.7329196,223.536234 74.7329196,214.260871 L74.7329196,93.681159 C74.7329196,92.0910985 76.0579711,90.5010358 77.9130428,90.5010358 L91.4285716,90.5010358 C93.0186343,90.5010358 94.6086948,91.8260873 94.6086948,93.681159 L94.6086948,214.260871 C94.6086948,235.196689 83.2132512,247.387164 63.3374737,247.387164 C57.2422362,247.387164 52.4720502,247.387164 38.9565214,240.761906 L11.1304347,224.861286 C4.24016581,220.886129 5.68434189e-14,213.46584 5.68434189e-14,205.515528 L5.68434189e-14,83.3457557 C5.68434189e-14,75.3954465 4.24016581,67.9751552 11.1304347,64.0000006 L116.869564,2.78260752 C123.494824,-0.927535841 132.505176,-0.927535841 139.130436,2.78260752 L244.869565,64.0000006 C251.759834,67.9751552 256,75.3954465 256,83.3457557 L256,205.515528 C256,213.46584 251.759834,220.886129 244.869565,224.861286 L139.130436,286.078676 C135.685299,287.668739 131.710145,288.463771 127.999999,288.463771 L127.999999,288.463771 Z M160.596274,204.455488 C114.219461,204.455488 104.679089,183.254659 104.679089,165.233955 C104.679089,163.643893 106.004141,162.053832 107.859212,162.053832 L121.639752,162.053832 C123.229813,162.053832 124.554864,163.113872 124.554864,164.703935 C126.674947,178.749484 132.770187,185.639753 160.861283,185.639753 C183.122154,185.639753 192.662526,180.604556 192.662526,168.67909 C192.662526,161.788821 190.012423,156.753624 155.296065,153.308489 C126.409938,150.393375 108.389235,144.033126 108.389235,120.977226 C108.389235,99.5113875 126.409938,86.7908901 156.621119,86.7908901 C190.542443,86.7908901 207.238095,98.4513472 209.358178,123.89234 C209.358178,124.687371 209.093167,125.482403 208.563147,126.277434 C208.033127,126.807454 207.238095,127.337474 206.443064,127.337474 L192.662526,127.337474 C191.337475,127.337474 190.012423,126.277434 189.747412,124.952382 C186.567289,110.376813 178.351966,105.606625 156.621119,105.606625 C132.240165,105.606625 129.325053,114.086957 129.325053,120.447205 C129.325053,128.132506 132.770187,130.5176 165.631471,134.757766 C198.227744,138.997931 213.598344,145.093169 213.598344,167.884058 C213.333333,191.20497 194.252589,204.455488 160.596274,204.455488 L160.596274,204.455488 Z" fill="#539E43"/>
  </g>
</svg>