<?xml version="1.0" encoding="utf-8"?>
<!-- <svg viewBox="0 -100 500 500" width="1400" height="500" xmlns="http://www.w3.org/2000/svg"> -->
<!-- <svg xmlns="http://www.w3.org/2000/svg" viewBox="13.218 40.9844 473.565 184.4256" width="1" height="1"> -->
<svg xmlns="http://www.w3.org/2000/svg" viewBox="-100 40.9844 650 184.4256" width="2.5" height="1">
  <defs>
    <radialGradient id="a" cx="-16.114" cy="20.532" r="18.384" gradientTransform="matrix(1.391598, 0, 0, 1.332075, 145.77301, 177.521234)" gradientUnits="userSpaceOnUse">
      <stop offset="0" stop-color="#ffffff"/>
      <stop offset="0.5" stop-color="#4c6b96"/>
      <stop offset="1" stop-color="#231f20"/>
    </radialGradient>
    <linearGradient x1="49.9972467%" y1="-19.5160457%" x2="49.9972467%" y2="129.625092%" id="linearGradient-1">
      <stop stop-color="#0994DC" offset="0"/>
      <stop stop-color="#66CEF5" offset="0.35"/>
      <stop stop-color="#66CEF5" offset="0.35"/>
      <stop stop-color="#127BCA" offset="0.8462"/>
      <stop stop-color="#127BCA" offset="0.8462"/>
      <stop stop-color="#127BCA" offset="1"/>
    </linearGradient>
    <linearGradient x1="50.0007616%" y1="-19.5161868%" x2="50.0007616%" y2="129.624154%" id="linearGradient-2">
      <stop stop-color="#0E76BC" offset="0"/>
      <stop stop-color="#36AEE8" offset="0.36"/>
      <stop stop-color="#36AEE8" offset="0.36"/>
      <stop stop-color="#00ADEF" offset="0.8462"/>
      <stop stop-color="#00ADEF" offset="0.8462"/>
      <stop stop-color="#00ADEF" offset="1"/>
    </linearGradient>
    <linearGradient x1="49.9991979%" y1="110.921751%" x2="49.9991979%" y2="-6.21395776%" id="linearGradient-3">
      <stop stop-color="#1C63B7" offset="0"/>
      <stop stop-color="#33BDF2" offset="0.5"/>
      <stop stop-color="#33BDF2" stop-opacity="0.41960785" offset="1"/>
    </linearGradient>
    <linearGradient x1="50.0009899%" y1="-19.5149993%" x2="50.0009899%" y2="129.627315%" id="linearGradient-4">
      <stop stop-color="#166AB8" offset="0"/>
      <stop stop-color="#36AEE8" offset="0.4"/>
      <stop stop-color="#36AEE8" offset="0.4"/>
      <stop stop-color="#0798DD" offset="0.8462"/>
      <stop stop-color="#0798DD" offset="0.8462"/>
      <stop stop-color="#0798DD" offset="1"/>
    </linearGradient>
    <linearGradient x1="49.9985422%" y1="-19.5211325%" x2="49.9985422%" y2="129.626892%" id="linearGradient-5">
      <stop stop-color="#124379" offset="0"/>
      <stop stop-color="#1487CB" offset="0.39"/>
      <stop stop-color="#1487CB" offset="0.39"/>
      <stop stop-color="#165197" offset="0.7802"/>
      <stop stop-color="#165197" offset="0.7802"/>
      <stop stop-color="#165197" offset="1"/>
    </linearGradient>
    <linearGradient x1="0.000304652977%" y1="50.000544%" x2="100.000291%" y2="50.000544%" id="linearGradient-6">
      <stop stop-color="#33BDF2" stop-opacity="0.69803923" offset="0"/>
      <stop stop-color="#1DACD8" offset="1"/>
    </linearGradient>
    <linearGradient x1="50.0095709%" y1="94.6864084%" x2="50.0095709%" y2="-3.02458407%" id="linearGradient-7">
      <stop stop-color="#136AB4" offset="0"/>
      <stop stop-color="#59CAF5" stop-opacity="0.54901963" offset="0.6"/>
      <stop stop-color="#59CAF5" stop-opacity="0.23529412" offset="1"/>
    </linearGradient>
    <linearGradient x1="-0.000760861053%" y1="49.999714%" x2="99.9992241%" y2="49.999714%" id="linearGradient-8">
      <stop stop-color="#05A1E6" stop-opacity="0.24705882" offset="0"/>
      <stop stop-color="#05A1E6" offset="1"/>
    </linearGradient>
    <linearGradient x1="49.9983236%" y1="124.313712%" x2="49.9983236%" y2="-9.42137278%" id="linearGradient-9">
      <stop stop-color="#318ED5" offset="0"/>
      <stop stop-color="#38A7E4" offset="1"/>
    </linearGradient>
    <linearGradient x1="49.99857%" y1="91.1999524%" x2="49.99857%" y2="-76.7854074%" id="linearGradient-10">
      <stop stop-color="#05A1E6" offset="0"/>
      <stop stop-color="#05A1E6" stop-opacity="0.54901963" offset="1"/>
    </linearGradient>
    <linearGradient x1="50.0000694%" y1="100.01049%" x2="50.0000694%" y2="0.0101898204%" id="linearGradient-11">
      <stop stop-color="#1959A6" offset="0"/>
      <stop stop-color="#05A1E6" offset="0.5"/>
      <stop stop-color="#05A1E6" offset="0.5"/>
      <stop stop-color="#7EC5EA" offset="0.9176"/>
      <stop stop-color="#7EC5EA" offset="1"/>
    </linearGradient>
    <linearGradient x1="59.8041209%" y1="94.5677442%" x2="38.4710575%" y2="5.75513731%" id="linearGradient-12">
      <stop stop-color="#165096" offset="0"/>
      <stop stop-color="#0D82CA" offset="1"/>
    </linearGradient>
    <linearGradient x1="49.9946843%" y1="76.9980959%" x2="49.9946843%" y2="-3.29893613%" id="linearGradient-13">
      <stop stop-color="#05A1E6" offset="0"/>
      <stop stop-color="#0495D6" offset="0.8736"/>
      <stop stop-color="#0495D6" offset="1"/>
    </linearGradient>
    <linearGradient x1="65.2631169%" y1="-4.16143813%" x2="34.2626975%" y2="105.843625%" id="linearGradient-14">
      <stop stop-color="#38A7E4" stop-opacity="0.32941177" offset="0"/>
      <stop stop-color="#0E88D3" offset="0.9615"/>
      <stop stop-color="#0E88D3" offset="0.9615"/>
      <stop stop-color="#0E88D3" offset="1"/>
    </linearGradient>
    <linearGradient x1="50.016714%" y1="-0.295776148%" x2="50.016714%" y2="101.881944%" id="linearGradient-15">
      <stop stop-color="#168CD4" offset="0"/>
      <stop stop-color="#1C87CC" offset="0.5"/>
      <stop stop-color="#154B8D" offset="1"/>
    </linearGradient>
    <linearGradient x1="16.6738062%" y1="205.564966%" x2="87.8125992%" y2="-19.8362753%" id="linearGradient-16">
      <stop stop-color="#97D6EE" offset="0"/>
      <stop stop-color="#55C1EA" offset="0.7033"/>
      <stop stop-color="#55C1EA" offset="1"/>
    </linearGradient>
    <linearGradient x1="6.89015912%" y1="6.30038251%" x2="75.7828966%" y2="116.770678%" id="linearGradient-17">
      <stop stop-color="#7ACCEC" offset="0"/>
      <stop stop-color="#3FB7ED" offset="1"/>
    </linearGradient>
    <linearGradient x1="49.9966533%" y1="6.36281892%" x2="49.9966533%" y2="127.96135%" id="linearGradient-18">
      <stop stop-color="#1DA7E7" offset="0"/>
      <stop stop-color="#37ABE7" stop-opacity="0" offset="1"/>
    </linearGradient>
  </defs>
  <path d="M 91.911 164.83 C 91.911 172.644 85.995 178.975 78.694 178.975 C 71.392 178.975 65.476 172.644 65.476 164.83 C 65.476 157.016 71.392 150.685 78.694 150.685 C 85.995 150.685 91.911 157.016 91.911 164.83 Z M 84.472 155.916 C 83.13 155.966 81.96 156.758 81.086 157.854 C 80.118 159.056 79.477 160.482 79.012 161.934 C 78.185 161.212 77.549 160.267 76.219 159.857 C 75.152 159.507 73.999 159.738 73.117 160.465 C 72.665 160.843 72.338 161.359 72.17 161.944 C 71.774 163.33 72.592 164.567 72.962 165.009 L 73.775 165.94 C 73.939 166.12 74.347 166.598 74.145 167.28 C 73.934 168.026 73.1 168.504 72.239 168.224 C 71.856 168.099 71.305 167.792 71.43 167.362 C 71.482 167.183 71.598 167.054 71.662 166.902 C 71.718 166.772 71.748 166.672 71.765 166.617 C 71.92 166.069 71.709 165.354 71.158 165.175 C 70.646 165.004 70.126 165.139 69.919 165.842 C 69.691 166.644 70.048 168.095 71.967 168.731 C 74.218 169.467 76.114 168.159 76.385 166.451 C 76.554 165.383 76.101 164.586 75.275 163.568 L 74.6 162.767 C 74.191 162.334 74.054 161.588 74.475 161.017 C 74.832 160.533 75.34 160.331 76.171 160.571 C 77.387 160.925 77.926 161.822 78.83 162.55 C 78.456 163.858 78.209 165.17 77.991 166.349 L 77.858 167.228 C 77.212 170.847 76.722 172.837 75.44 173.979 C 75.181 174.173 74.812 174.467 74.261 174.489 C 73.967 174.494 73.868 174.283 73.868 174.186 C 73.859 173.969 74.033 173.868 74.148 173.771 C 74.316 173.675 74.579 173.504 74.557 172.975 C 74.54 172.349 74.054 171.805 73.352 171.829 C 72.827 171.847 72.027 172.376 72.057 173.344 C 72.087 174.347 72.96 175.098 74.272 175.047 C 74.979 175.023 76.545 174.716 78.089 172.749 C 79.887 170.498 80.391 167.915 80.769 166.023 L 81.192 163.53 C 81.427 163.559 81.677 163.577 81.952 163.586 C 84.19 163.637 85.309 162.394 85.325 161.492 C 85.339 160.944 84.991 160.405 84.508 160.419 C 84.083 160.434 83.716 160.746 83.619 161.193 C 83.515 161.695 84.332 162.151 83.696 162.593 C 83.244 162.905 82.431 163.127 81.29 162.947 L 81.497 161.717 C 81.924 159.388 82.443 156.523 84.427 156.455 C 84.574 156.446 85.102 156.459 85.111 156.833 C 85.116 156.957 85.091 156.995 84.953 157.275 C 84.823 157.459 84.759 157.685 84.768 157.91 C 84.784 158.505 85.206 158.896 85.822 158.872 C 86.639 158.845 86.872 157.988 86.863 157.551 C 86.829 156.519 85.813 155.874 84.47 155.917 L 84.472 155.916 Z" style="" transform="matrix(1, 0, 0, 1, 0, -1.7763568394002505e-15)"/>
  <ellipse cx="131.133" cy="211.232" rx="19.482" ry="9.811" style="fill: url('#a');" transform="matrix(1, 0, 0, 1, 0, -1.7763568394002505e-15)"/>
  <ellipse cx="131.133" cy="211.232" rx="18.722" ry="9.082" style="fill: rgb(98, 128, 182);" transform="matrix(1, 0, 0, 1, 0, -1.7763568394002505e-15)"/>
  <path d="M 134.926 214.162 L 135.853 209.588 C 136.123 208.792 135.926 207.918 135.336 207.298 C 134.527 206.749 133.538 206.501 132.553 206.599 L 130.948 206.599 L 131.409 204.335 C 131.446 204.156 131.3 203.99 131.11 203.988 L 128.883 203.988 C 128.737 203.988 128.612 204.087 128.584 204.224 L 127.598 209.081 C 127.523 208.562 127.291 208.074 126.933 207.676 C 126.128 206.906 125.007 206.512 123.872 206.602 L 119.583 206.602 C 119.437 206.602 119.312 206.702 119.283 206.837 L 117.288 216.668 C 117.253 216.847 117.397 217.015 117.587 217.015 L 119.819 217.015 C 119.964 217.016 120.09 216.916 120.118 216.779 L 120.6 214.4 L 122.271 214.4 C 123.008 214.42 123.744 214.331 124.452 214.134 C 125.05 213.945 125.596 213.632 126.053 213.216 C 126.427 212.891 126.746 212.512 126.999 212.092 L 126.6 214.057 C 126.564 214.236 126.708 214.404 126.899 214.404 L 129.125 214.404 C 129.272 214.405 129.397 214.305 129.424 214.168 L 130.519 208.772 L 132.042 208.772 C 132.691 208.772 132.878 208.896 132.933 208.949 C 132.988 209.002 133.071 209.168 132.968 209.706 L 132.084 214.056 C 132.048 214.235 132.192 214.403 132.383 214.403 L 134.637 214.403 C 134.781 214.397 134.9 214.298 134.926 214.162 Z M 124.635 210.387 C 124.567 210.947 124.29 211.463 123.854 211.842 C 123.307 212.169 122.665 212.317 122.024 212.27 L 121.033 212.27 L 121.75 208.738 L 123.031 208.738 C 123.974 208.738 124.352 208.931 124.506 209.092 C 124.742 209.487 124.789 209.958 124.635 210.387 Z" style="fill: rgb(255, 255, 255);" transform="matrix(1, 0, 0, 1, 0, -1.7763568394002505e-15)"/>
  <path d="M 144.418 207.677 C 143.611 206.907 142.491 206.513 141.356 206.603 L 137.054 206.603 C 136.909 206.603 136.783 206.703 136.755 206.838 L 134.759 216.669 C 134.724 216.849 134.868 217.016 135.059 217.016 L 137.297 217.016 C 137.443 217.017 137.568 216.917 137.595 216.78 L 138.079 214.403 L 139.748 214.403 C 140.487 214.423 141.223 214.332 141.93 214.135 C 142.529 213.947 143.075 213.633 143.531 213.217 C 144.313 212.543 144.839 211.642 145.028 210.651 C 145.332 209.624 145.106 208.52 144.418 207.677 Z M 142.098 210.387 C 142.03 210.947 141.753 211.463 141.318 211.842 C 140.768 212.169 140.126 212.317 139.483 212.268 L 138.495 212.268 L 139.212 208.737 L 140.494 208.737 C 141.435 208.737 141.814 208.93 141.967 209.091 C 142.204 209.486 142.252 209.958 142.098 210.387 Z" style="fill: rgb(255, 255, 255);" transform="matrix(1, 0, 0, 1, 0, -1.7763568394002505e-15)"/>
  <path d="M 123.031 208.446 C 123.638 208.374 124.251 208.534 124.731 208.896 C 125.042 209.355 125.116 209.925 124.932 210.441 C 124.853 211.072 124.536 211.651 124.039 212.071 C 123.441 212.44 122.733 212.613 122.024 212.563 L 120.663 212.563 L 121.498 208.449 L 123.031 208.446 Z M 117.58 216.725 L 119.819 216.725 L 120.348 214.112 L 122.265 214.112 C 122.97 214.13 123.675 214.046 124.352 213.857 C 124.908 213.681 125.417 213.389 125.842 213.002 C 126.574 212.37 127.07 211.523 127.247 210.593 C 127.532 209.657 127.332 208.646 126.71 207.871 C 125.964 207.164 124.927 206.807 123.879 206.896 L 119.583 206.896 L 117.58 216.725 Z" style="fill: rgb(0, 0, 4);" transform="matrix(1, 0, 0, 1, 0, -1.7763568394002505e-15)"/>
  <path d="M 128.889 204.281 L 131.116 204.281 L 130.577 206.895 L 132.554 206.895 C 133.463 206.804 134.374 207.025 135.129 207.518 C 135.636 208.071 135.798 208.84 135.553 209.538 L 134.624 214.112 L 132.372 214.112 L 133.256 209.763 C 133.381 209.427 133.339 209.055 133.144 208.749 C 132.823 208.53 132.423 208.435 132.031 208.483 L 130.256 208.483 L 129.113 214.115 L 126.886 214.115 L 128.889 204.281 Z" style="fill: rgb(0, 0, 4);" transform="matrix(1, 0, 0, 1, 0, -1.7763568394002505e-15)"/>
  <path d="M 140.495 208.446 C 141.102 208.374 141.713 208.534 142.193 208.896 C 142.506 209.355 142.579 209.925 142.395 210.441 C 142.317 211.072 142 211.651 141.502 212.071 C 140.902 212.441 140.194 212.614 139.483 212.563 L 138.122 212.563 L 138.957 208.449 L 140.495 208.446 Z M 135.043 216.725 L 137.282 216.725 L 137.811 214.112 L 139.728 214.112 C 140.434 214.13 141.138 214.046 141.815 213.857 C 142.372 213.681 142.88 213.389 143.304 213.002 C 144.037 212.37 144.533 211.523 144.71 210.593 C 144.995 209.657 144.796 208.646 144.174 207.871 C 143.427 207.164 142.39 206.807 141.342 206.896 L 137.039 206.896 L 135.043 216.725 Z" style="fill: rgb(0, 0, 4);" transform="matrix(1, 0, 0, 1, 0, -1.7763568394002505e-15)"/>
  <g transform="matrix(0.12504899501800537, 0, 0, 0.11521000415086746, 65.52330780029297, 95.69642639160155)" style="">
    <path d="M255.855641,59.619717 C255.950565,59.9710596 256,60.3333149 256,60.6972536 L256,117.265345 C256,118.743206 255.209409,120.108149 253.927418,120.843385 L206.448786,148.178786 L206.448786,202.359798 C206.448786,203.834322 205.665123,205.195421 204.386515,205.937838 L105.27893,262.990563 C105.05208,263.119455 104.804608,263.201946 104.557135,263.289593 C104.464333,263.320527 104.376687,263.377239 104.278729,263.403017 C103.585929,263.58546 102.857701,263.58546 102.164901,263.403017 C102.051476,263.372083 101.948363,263.310215 101.840093,263.26897 C101.613244,263.186479 101.376082,263.1143 101.159544,262.990563 L2.07258227,205.937838 C0.7913718,205.201819 0,203.837372 0,202.359798 L0,32.6555248 C0,32.2843161 0.0515567729,31.9234187 0.144358964,31.5728326 C0.175293028,31.454252 0.24747251,31.3459828 0.288717928,31.2274022 C0.366053087,31.0108638 0.438232569,30.7891697 0.55165747,30.5880982 C0.628992629,30.4540506 0.742417529,30.3457814 0.83521972,30.2220451 C0.953800298,30.0570635 1.06206952,29.8869261 1.20127281,29.7425672 C1.31985339,29.6239866 1.4745237,29.5363401 1.60857131,29.4332265 C1.75808595,29.3094903 1.89213356,29.1754427 2.06227091,29.0774848 L2.06742659,29.0774848 L51.6134853,0.551122364 C52.8901903,-0.183535768 54.4613221,-0.183535768 55.7380271,0.551122364 L105.284086,29.0774848 L105.294397,29.0774848 C105.459379,29.1805983 105.598582,29.3094903 105.748097,29.4280708 C105.882144,29.5311844 106.031659,29.6239866 106.15024,29.7374115 C106.294599,29.8869261 106.397712,30.0570635 106.521448,30.2220451 C106.609095,30.3457814 106.727676,30.4540506 106.799855,30.5880982 C106.918436,30.7943253 106.985459,31.0108638 107.06795,31.2274022 C107.109196,31.3459828 107.181375,31.454252 107.212309,31.5779883 C107.307234,31.9293308 107.355765,32.2915861 107.356668,32.6555248 L107.356668,138.651094 L148.643332,114.878266 L148.643332,60.6920979 C148.643332,60.3312005 148.694889,59.9651474 148.787691,59.619717 C148.823781,59.4959808 148.890804,59.3877116 148.93205,59.269131 C149.014541,59.0525925 149.08672,58.8308984 149.200145,58.629827 C149.27748,58.4957794 149.390905,58.3875102 149.478552,58.2637739 C149.602288,58.0987922 149.705401,57.9286549 149.84976,57.7842959 C149.968341,57.6657153 150.117856,57.5780688 150.251903,57.4749553 C150.406573,57.351219 150.540621,57.2171714 150.705603,57.1192136 L150.710758,57.1192136 L200.261973,28.5928511 C201.538395,27.8571345 203.110093,27.8571345 204.386515,28.5928511 L253.932573,57.1192136 C254.107866,57.2223271 254.241914,57.351219 254.396584,57.4697996 C254.525476,57.5729132 254.674991,57.6657153 254.793572,57.7791402 C254.93793,57.9286549 255.041044,58.0987922 255.16478,58.2637739 C255.257582,58.3875102 255.371007,58.4957794 255.443187,58.629827 C255.561767,58.8308984 255.628791,59.0525925 255.711282,59.269131 C255.757683,59.3877116 255.824707,59.4959808 255.855641,59.619717 Z M247.740605,114.878266 L247.740605,67.8378666 L230.402062,77.8192579 L206.448786,91.6106946 L206.448786,138.651094 L247.745761,114.878266 L247.740605,114.878266 Z M198.194546,199.97272 L198.194546,152.901386 L174.633101,166.357704 L107.351512,204.757188 L107.351512,252.27191 L198.194546,199.97272 Z M8.25939501,39.7961379 L8.25939501,199.97272 L99.0921175,252.266755 L99.0921175,204.762344 L51.6392637,177.906421 L51.6237967,177.89611 L51.603174,177.885798 C51.443348,177.792996 51.3093004,177.658949 51.1597857,177.545524 C51.0308938,177.44241 50.8813791,177.359919 50.7679542,177.246494 L50.7576429,177.231027 C50.6235953,177.102135 50.5307931,176.942309 50.4173682,176.79795 C50.3142546,176.658747 50.1905184,176.540167 50.1080276,176.395808 L50.1028719,176.380341 C50.0100697,176.22567 49.9533572,176.040066 49.8863334,175.864773 C49.8193096,175.710103 49.7316631,175.565744 49.6904177,175.400762 L49.6904177,175.395606 C49.6388609,175.19969 49.6285496,174.993463 49.6079269,174.792392 C49.5873041,174.637722 49.5460587,174.483051 49.5460587,174.328381 L49.5460587,174.31807 L49.5460587,63.5689658 L25.5979377,49.7723734 L8.25939501,39.8012935 L8.25939501,39.7961379 Z M53.6809119,8.89300821 L12.3994039,32.6555248 L53.6706006,56.4180414 L94.9469529,32.6503692 L53.6706006,8.89300821 L53.6809119,8.89300821 Z M75.1491521,157.19091 L99.0972731,143.404629 L99.0972731,39.7961379 L81.7587304,49.7775291 L57.8054537,63.5689658 L57.8054537,167.177457 L75.1491521,157.19091 Z M202.324244,36.934737 L161.047891,60.6972536 L202.324244,84.4597702 L243.59544,60.6920979 L202.324244,36.934737 Z M198.194546,91.6106946 L174.24127,77.8192579 L156.902727,67.8378666 L156.902727,114.878266 L180.850848,128.664547 L198.194546,138.651094 L198.194546,91.6106946 Z M103.216659,197.616575 L163.759778,163.052915 L194.023603,145.781396 L152.778185,122.034346 L105.289242,149.374903 L62.0073307,174.292291 L103.216659,197.616575 Z" fill="#FF2D20"/>
  </g>
  <g transform="matrix(0.14816100895404816, 0, 0, 0.1211250051856041, 113.33037567138672, 40.98442077636719)" style="">
    <g transform="translate(26.734177, 116.658228)" fill="#000000">
      <path d="M187.534955,11.347281 C187.534955,10.9179949 187.417163,10.611119 187.175016,10.4105316 C186.906783,10.1946329 186.442823,10.0795139 185.79699,10.0795139 L184.868504,10.0795139 L184.868504,12.6314127 L185.989071,12.6314127 C187.023846,12.6314127 187.534955,12.2021266 187.534955,11.347281 L187.534955,11.347281 Z M188.982651,16.6680304 L187.706702,16.6680304 L186.893011,14.8725468 C186.479765,13.9728203 186.038084,13.522957 185.555573,13.522957 L184.868504,13.522957 L184.868504,16.6680304 L183.817284,16.6680304 L183.817284,9.18367595 L185.923613,9.18367595 C186.860282,9.18367595 187.56339,9.38653165 188.046307,9.80957975 C188.455259,10.1734076 188.659735,10.6398785 188.659735,11.2206582 C188.659735,11.7359797 188.492849,12.1694785 188.156565,12.5290127 C187.829355,12.8931646 187.358914,13.1385519 186.757882,13.2654987 L186.757882,13.2979038 C187.175016,13.3960911 187.59215,13.8541367 187.996889,14.6802228 L188.982651,16.672081 L188.982651,16.6680304 Z M191.313709,12.9994532 C191.313709,11.5272101 190.810864,10.2839899 189.808737,9.29822785 C188.802722,8.31278987 187.575785,7.81804557 186.128089,7.81804557 C184.635188,7.81804557 183.392292,8.31278987 182.40653,9.30673418 C181.420768,10.3045671 180.930317,11.539281 180.930317,12.9994532 C180.930317,14.4923544 181.441345,15.7395443 182.455623,16.7334886 C183.45775,17.7271089 184.684606,18.2178835 186.128089,18.2178835 C187.56339,18.2178835 188.790246,17.7231392 189.800555,16.7168 C190.810864,15.7270684 191.313709,14.4841722 191.313709,12.9994532 L191.313709,12.9994532 Z M192.021112,12.9670481 C192.021112,14.6196253 191.452808,16.0058329 190.311907,17.1221873 C189.170763,18.2469671 187.772079,18.8070886 186.09933,18.8070886 C184.414671,18.8070886 183.016069,18.2551494 181.90336,17.1712 C180.791299,16.0712911 180.239036,14.6889722 180.239036,13.0122532 C180.239036,11.3721519 180.80337,9.99404557 181.932119,8.86140759 C183.060869,7.73265823 184.467654,7.16832405 186.148666,7.16832405 C187.796626,7.16832405 189.178945,7.70811139 190.299512,8.78355443 C191.448514,9.88775696 192.021112,11.2782582 192.021112,12.9670481 L192.021112,12.9670481 Z"/>
      <path d="M32.0650208,33.8363139 L28.437679,33.8363139 L28.437679,13.0773063 C28.437679,11.4375291 28.5456689,9.44178228 28.738722,7.08617722 L28.6568992,7.08617722 C28.3172942,8.46420253 28.0064486,9.46211646 27.7326258,10.079838 L17.1895575,33.8363139 L15.4228334,33.8363139 L4.85913924,10.2515848 C4.56140962,9.5929519 4.24994835,8.53363038 3.93488203,7.08617722 L3.85638076,7.08617722 C3.96761924,8.32518481 4.02978835,10.3333266 4.02978835,13.1182177 L4.02978835,33.8363139 L0.532982278,33.8363139 L0.532982278,2.92293671 L5.31785722,2.92293671 L14.8018876,24.4792709 C15.5174157,26.1030076 15.9797063,27.3380456 16.2044678,28.1804962 L16.3549732,28.1804962 C16.9723382,26.4913823 17.4630967,25.2235342 17.8354147,24.3892658 L27.5236132,2.92293671 L32.0630765,2.92293671 L32.0630765,33.8363139 L32.0650208,33.8363139 Z"/>
      <path d="M43.2232182,33.8353418 L39.6982765,33.8353418 L39.6982765,11.7594734 L43.2232182,11.7594734 L43.2232182,33.8353418 L43.2232182,33.8353418 Z M43.8327575,3.84591392 C43.8327575,4.49628354 43.6037347,5.04004051 43.1495777,5.48601519 C42.7040081,5.93158481 42.1520689,6.15671899 41.5055878,6.15671899 C40.8757954,6.15671899 40.3277448,5.94073924 39.8782056,5.51056203 C39.4283423,5.07706329 39.2071777,4.5248 39.2071777,3.84591392 C39.2071777,3.20793924 39.4296385,2.66418228 39.8782056,2.22250127 C40.3277448,1.78082025 40.8757954,1.56816203 41.5055878,1.56816203 C42.1517448,1.56816203 42.7040081,1.78082025 43.1495777,2.22250127 C43.6037347,2.66418228 43.8327575,3.20793924 43.8327575,3.84591392 L43.8327575,3.84591392 Z"/>
      <path d="M65.2535575,32.8139342 C63.5604739,33.8526785 61.5401803,34.368 59.2048284,34.368 C56.0398258,34.368 53.4918157,33.3171038 51.5451625,31.218957 C49.6557043,29.1822987 48.7029954,26.5528709 48.7029954,23.3301873 C48.7029954,19.7146734 49.7375271,16.7867949 51.823198,14.5620253 C53.896798,12.333043 56.6859828,11.2206582 60.1948841,11.2206582 C62.1127777,11.2206582 63.8140435,11.596881 65.3026511,12.3412253 L65.3026511,15.9688911 C63.6546916,14.8113823 61.9125144,14.2387848 60.0433904,14.2387848 C57.7940739,14.2387848 55.9661853,15.0240405 54.5469246,16.5905013 C53.0703878,18.1936608 52.3221549,20.3366076 52.3221549,23.0112405 C52.3221549,25.5795038 53.0052537,27.6119494 54.3630258,29.1129519 C55.7247676,30.6055291 57.5366157,31.3540861 59.8225499,31.3540861 C61.7528385,31.3540861 63.5604739,30.72 65.2535575,29.4565266 L65.2535575,32.8139342 L65.2535575,32.8139342 Z"/>
      <path d="M82.1152891,15.341043 C81.493679,14.8627443 80.5982461,14.6294278 79.4161904,14.6294278 C77.9808891,14.6294278 76.7742866,15.2716962 75.7970309,16.5678987 C74.6885347,18.0156759 74.1365954,20.0196051 74.1365954,22.5796861 L74.1365954,33.8343696 L70.6031473,33.8343696 L70.6031473,11.7585013 L74.1365954,11.7585013 L74.1365954,16.3104405 L74.2216587,16.3104405 C74.7411929,14.6990987 75.5428132,13.4597671 76.6142866,12.5806987 C77.6160891,11.7791595 78.7490511,11.3740962 79.996241,11.3740962 C80.936879,11.3740962 81.6363423,11.4755241 82.114641,11.6750582 L82.114641,15.3394228 L82.1152891,15.341043 Z"/>
      <path d="M101.808737,22.8374684 C101.808737,20.0117468 101.170763,17.8524354 99.8948132,16.3719291 C98.6558056,14.9487797 96.9256992,14.2371646 94.697041,14.2371646 C92.5007068,14.2371646 90.7382765,14.956962 89.4210916,16.3964759 C88.0266208,17.9341772 87.3314511,20.1056405 87.3314511,22.9235848 C87.3314511,25.5654886 87.9939727,27.6387646 89.3314106,29.1191899 C90.6603423,30.6077975 92.4516132,31.3521418 94.697041,31.3521418 C97.019917,31.3521418 98.7987929,30.5957266 100.017466,29.0907544 C101.211674,27.6184304 101.808737,25.5366481 101.808737,22.8374684 M105.43219,22.7131949 C105.43219,26.2302785 104.43857,29.0564051 102.459107,31.1748051 C100.471623,33.3013873 97.7969904,34.3647595 94.4352891,34.3647595 C91.1226815,34.3647595 88.4846663,33.3013873 86.5504891,31.1748051 C84.6568182,29.1257519 83.7041094,26.4183899 83.7041094,23.0528 C83.7041094,19.2124759 84.7794714,16.2515443 86.9387828,14.1495089 C88.9345296,12.1988861 91.6049499,11.2173367 94.9506106,11.2173367 C98.24256,11.2173367 100.815117,12.2436861 102.667552,14.2764557 C104.503947,16.3212152 105.43219,19.1349468 105.43219,22.7131949"/>
      <path d="M122.955714,27.9292759 C122.955714,29.7369114 122.281122,31.2337013 120.927319,32.4279089 C119.451107,33.7202228 117.422631,34.3663797 114.870732,34.3663797 C112.780768,34.3663797 110.948585,33.9289114 109.394519,33.0373671 L109.394519,29.2379544 C111.124626,30.6448203 113.034256,31.3524658 115.132403,31.3524658 C117.92977,31.3524658 119.332342,30.3219038 119.332342,28.268881 C119.332342,27.4057722 119.024818,26.6902684 118.40418,26.1380051 C117.782489,25.5736709 116.575887,24.8989975 114.780727,24.1095291 C112.93218,23.2998076 111.615319,22.4697519 110.838327,21.6067241 C109.905871,20.5842633 109.435431,19.2553316 109.435431,17.619443 C109.435431,15.7872608 110.167623,14.2617114 111.615319,13.0472506 C113.066985,11.8284962 114.931897,11.219038 117.222044,11.219038 C118.976697,11.219038 120.547127,11.5625316 121.941517,12.2538127 L121.941517,15.8118076 C120.485638,14.7606684 118.821314,14.2371646 116.931856,14.2371646 C115.762276,14.2371646 114.821638,14.5283241 114.122175,15.0959797 C113.414773,15.6766785 113.058803,16.4171342 113.058803,17.3207494 C113.058803,18.2983291 113.356525,19.059038 113.946459,19.6027949 C114.469882,20.1059646 115.582266,20.7193924 117.259066,21.4348962 C119.144231,22.2243646 120.506216,23.0423494 121.336271,23.8805063 C122.411957,24.9399089 122.955714,26.2894987 122.955714,27.9292759"/>
      <path d="M144.550368,22.8374684 C144.550368,20.0117468 143.912393,17.8524354 142.632474,16.3719291 C141.397436,14.9487797 139.66336,14.2371646 137.438671,14.2371646 C135.242337,14.2371646 133.479826,14.956962 132.154783,16.3964759 C130.764363,17.9341772 130.073001,20.1056405 130.073001,22.9235848 C130.073001,25.5654886 130.735522,27.6387646 132.060565,29.1191899 C133.406266,30.6077975 135.197537,31.3521418 137.438671,31.3521418 C139.765436,31.3521418 141.540342,30.5957266 142.759097,29.0907544 C143.953223,27.6184304 144.550368,25.5366481 144.550368,22.8374684 M148.181922,22.7131949 C148.181922,26.2302785 147.180119,29.0564051 145.196525,31.1748051 C143.217142,33.3013873 140.542509,34.3647595 137.180808,34.3647595 C133.864312,34.3647595 131.226297,33.3013873 129.292038,31.1748051 C127.398449,29.1257519 126.445659,26.4183899 126.445659,23.0528 C126.445659,19.2124759 127.529284,16.2515443 129.676525,14.1495089 C131.672271,12.1988861 134.346904,11.2173367 137.69613,11.2173367 C140.988403,11.2173367 143.556747,12.2436861 145.405213,14.2764557 C147.245578,16.3212152 148.181922,19.1349468 148.181922,22.7131949"/>
      <path d="M163.752312,4.25843038 C163.057061,3.87402532 162.284363,3.67773165 161.404889,3.67773165 C158.930519,3.67773165 157.703583,5.23568608 157.703583,8.35629367 L157.703583,11.7588253 L162.877132,11.7588253 L162.877132,14.7524861 L157.703583,14.7524861 L157.703583,33.8346937 L154.166246,33.8346937 L154.166246,14.7524861 L150.411957,14.7524861 L150.411957,11.7588253 L154.166246,11.7588253 L154.166246,8.18057722 C154.166246,5.75100759 154.910509,3.84526582 156.423745,2.47112911 C157.720271,1.27692152 159.306742,0.684070886 161.192231,0.684070886 C162.284363,0.684070886 163.134995,0.814987342 163.752312,1.06855696 L163.752312,4.25843038 L163.752312,4.25843038 Z"/>
      <path d="M177.698641,33.612881 C176.864373,34.0915038 175.751988,34.3287089 174.377851,34.3287089 C170.525456,34.3287089 168.59938,32.1570025 168.59938,27.8137519 L168.59938,14.7557266 L164.812363,14.7557266 L164.812363,11.7578532 L168.59938,11.7578532 L168.59938,6.37196962 C169.72813,6.016 170.901679,5.62762532 172.141011,5.2268557 L172.141011,11.7578532 L177.698641,11.7578532 L177.698641,14.7557266 L172.141011,14.7557266 L172.141011,27.2128 C172.141011,28.6932253 172.383076,29.7523038 172.889244,30.3657316 C173.400595,30.9997367 174.234864,31.3105823 175.412707,31.3105823 C176.291856,31.3105823 177.052484,31.0749975 177.698641,30.5989671 L177.698641,33.612881 L177.698641,33.612881 Z"/>
    </g>
    <g transform="translate(0.000000, 160.405063)" fill="#000000">
      <path d="M13.4143919,76.2476557 C13.4143919,77.977438 12.7970187,79.4742278 11.5495129,80.7381063 C10.3062603,81.9976911 8.79702684,82.6317772 7.02637367,82.6317772 C5.29629165,82.6317772 3.8240243,81.9976911 2.61774582,80.7381063 C1.41114329,79.4742278 0.810126582,77.977438 0.810126582,76.2476557 C0.810126582,74.4688608 1.41114329,72.9677772 2.61774582,71.724557 C3.8240243,70.477043 5.29629165,69.8596456 7.02637367,69.8596456 C8.79702684,69.8596456 10.3062603,70.4855494 11.5495129,71.7491038 C12.7970187,73.0129823 13.4143919,74.5136608 13.4143919,76.2476557"/>
      <path d="M92.5311676,81.3316051 L81.0066309,81.3316051 L39.1738653,16.7277367 C38.1962775,15.1736709 37.3538187,13.484557 36.6382906,11.6402228 L36.2944324,11.6402228 C36.592162,13.3700051 36.7446197,17.0833823 36.7446197,22.7722532 L36.7446197,81.3316051 L27.2442329,81.3316051 L27.2442329,0.279250633 L39.5746511,0.279250633 L80.155998,63.8649519 C81.7715524,66.3880911 82.8754309,68.1956456 83.4358765,69.2835646 L83.6615777,69.2835646 C83.2853549,66.9524253 83.0893853,62.9772962 83.0893853,57.3663595 L83.0893853,0.279250633 L92.5322208,0.279250633 L92.5322208,81.3316051 L92.5311676,81.3316051 Z"/>
      <path d="M153.436079,81.3316051 L110.478469,81.3316051 L110.478469,0.279250633 L151.571168,0.279250633 L151.571168,8.86748354 L119.970722,8.86748354 L119.970722,35.8302785 L149.252504,35.8302785 L149.252504,44.4228051 L119.970722,44.4228051 L119.970722,72.7394025 L153.436079,72.7394025 L153.436079,81.3316051 L153.436079,81.3316051 Z"/>
      <path d="M218.594965,8.8684557 L195.247522,8.8684557 L195.247522,81.3329013 L185.75138,81.3329013 L185.75138,8.8684557 L162.358651,8.8684557 L162.358651,0.276334177 L218.594965,0.276334177 L218.594965,8.8684557 L218.594965,8.8684557 Z"/>
    </g>
    <g transform="translate(0.810127, 0.000000)">
      <path d="M88.4994916,20.6885266 C97.6642916,48.7146127 101.136413,98.7106025 127.935806,98.7106025 L127.935806,98.7106025 C129.976514,98.7106025 132.037719,98.5109873 134.107107,98.1174278 L134.107107,98.1174278 C109.745142,92.4370633 106.857851,42.9849114 91.9920284,17.3755949 L91.9920284,17.3755949 C90.8264182,18.4349165 89.6690714,19.539119 88.4994916,20.6885266" fill="url(#linearGradient-1)"/>
      <path d="M91.9920284,17.3755949 C106.857851,42.9849114 109.745142,92.4370633 134.107107,98.1174278 L134.107107,98.1174278 C136.021031,97.7657519 137.939087,97.2340658 139.861193,96.563362 L139.861193,96.563362 C117.993932,85.8485468 111.949416,37.8279696 95.0674309,14.7091443 L95.0674309,14.7091443 C94.0449701,15.5601013 93.0185397,16.4516456 91.9920284,17.3755949" fill="url(#linearGradient-2)"/>
      <path d="M113.411208,2.14545823 C111.37455,2.14545823 109.309132,2.34499241 107.235856,2.73863291 C101.81295,3.76101266 96.3044132,6.09604051 90.7506714,9.62948861 C92.2677954,11.1262785 93.711279,12.8396962 95.0690511,14.7088203 C100.71693,10.0220759 106.327947,6.55829873 111.918631,4.47651646 C114.016454,3.69952405 116.106418,3.1148557 118.204241,2.73045063 C116.691087,2.34564051 115.096109,2.14545823 113.411208,2.14545823" fill="#14559A"/>
      <path d="M156.93137,86.6867038 C159.168373,84.9079089 161.409507,82.9405975 163.654692,80.793762 C154.342611,52.8981873 151.009588,2.18669367 124.022003,2.18669367 C122.091714,2.18669367 120.145061,2.36662278 118.202459,2.72648101 C142.785264,8.84066835 145.934307,62.3249013 156.93137,86.6867038" fill="url(#linearGradient-3)"/>
      <path d="M118.203269,2.72842532 C116.690114,2.34402025 115.095218,2.14383797 113.410236,2.14383797 L124.022894,2.18272405 C122.092525,2.18272405 120.145871,2.36265316 118.203269,2.72680506" fill="#3092C4"/>
      <path d="M156.460038,92.6127797 C155.40493,91.6067646 154.403127,90.502562 153.417365,89.324719 C148.877821,92.5391392 144.354722,94.9765671 139.860383,96.563362 C141.459249,97.3446481 143.135968,97.9254278 144.915168,98.2852861 C146.293193,98.566643 147.720636,98.7106025 149.221395,98.7106025 C154.264028,98.7106025 158.251309,98.1135392 161.645659,96.4858329 C159.776859,95.4755241 158.063198,94.1668456 156.460038,92.6127797" fill="#1969BC"/>
      <path d="M111.916687,4.48113418 C133.93536,15.9974886 135.849284,68.1485772 153.418337,89.324719 L153.418337,89.324719 C154.59618,88.4946633 155.761709,87.6152709 156.927238,86.6867038 L156.927238,86.6867038 C145.930256,62.3249013 142.785264,8.83637468 118.20659,2.72648101 L118.20659,2.72648101 C116.108606,3.11906835 114.014671,3.70017215 111.916687,4.48113418" fill="url(#linearGradient-4)"/>
      <path d="M95.0674309,14.7091443 C111.949416,37.8279696 117.993932,85.8485468 139.861193,96.563362 L139.861193,96.563362 C144.355694,94.9765671 148.878874,92.5391392 153.418337,89.324719 L153.418337,89.324719 C135.849284,68.1485772 133.93536,15.9974886 111.916687,4.48113418 L111.916687,4.48113418 C106.326165,6.55862278 100.715228,10.0224 95.0674309,14.7091443" fill="url(#linearGradient-5)"/>
      <path d="M77.698317,20.0135291 C75.0522815,25.996881 72.3490511,33.8610228 69.0814056,44.1260557 C75.5798359,34.9691949 82.0578511,27.0804253 88.4990056,20.6885266 C87.6115929,17.9605873 86.658722,15.4455494 85.6322106,13.2041722 C82.9984891,15.2204962 80.3442714,17.4903899 77.698317,20.0135291" fill="url(#linearGradient-6)"/>
      <path d="M87.9785803,11.4790076 C87.2015068,12.0351595 86.4205448,12.6037873 85.6353701,13.2048203 C86.6617195,15.4459544 87.6104587,17.9612354 88.4981144,20.6888506 C89.6674511,19.5437367 90.8288486,18.4355646 91.9903271,17.376243 C90.7431372,15.2332152 89.4180942,13.2538329 87.9785803,11.4790076" fill="#2B74B1"/>
      <path d="M90.7506714,9.62948861 C89.826398,10.214481 88.9064182,10.8317975 87.9779322,11.4779544 C89.4174461,13.2528608 90.7424891,15.232243 91.9939727,17.3794835 C93.0205651,16.4509975 94.0469144,15.5554835 95.0693752,14.7088203 C93.711603,12.8400203 92.2681195,11.1262785 90.7506714,9.62948861" fill="#125A9E"/>
      <path d="M240.936717,0.0112607595 C228.483613,48.0357266 202.473527,86.6091747 180.667593,96.3343392 L180.626276,96.3343392 C180.229638,96.5142684 179.83697,96.6779139 179.448514,96.8371848 C179.395046,96.8695899 179.346438,96.8736405 179.305203,96.8930835 C179.190651,96.9392608 179.084363,96.9749063 178.969811,97.0206785 C178.916342,97.0530835 178.867735,97.0636152 178.818722,97.0830582 C178.634823,97.1486785 178.454732,97.2041722 178.274803,97.2761114 C178.197031,97.3085165 178.123633,97.3287696 178.049669,97.3546937 C177.967846,97.3870987 177.873628,97.4170734 177.779735,97.4430785 C177.697993,97.4754835 177.612282,97.4989772 177.517983,97.5346228 C177.440211,97.5670278 177.358388,97.5808 177.285071,97.6132051 C177.125395,97.6593823 176.978519,97.6982684 176.818844,97.753843 C176.753223,97.753843 176.692221,97.7894886 176.62255,97.8065013 C176.524363,97.8389063 176.41378,97.8624 176.307492,97.8915646 C176.23377,97.9239696 176.172687,97.9345013 176.094833,97.9507038 C175.984251,97.9831089 175.861517,98.0130835 175.751259,98.0390886 C175.604059,98.0714937 175.473223,98.1014684 175.334125,98.1307139 C176.319725,98.4947848 177.346236,98.6786835 178.45457,98.6786835 C199.131755,98.6786835 219.980363,61.6226835 254.476606,1.84741111e-13 L240.931775,1.84741111e-13 L240.936717,0.0112607595 Z" fill="url(#linearGradient-7)"/>
      <path d="M64.5910359,4.09437975 C64.603998,4.09437975 64.6202005,4.06197468 64.6283018,4.06197468 C64.6445043,4.06197468 64.6696182,4.06197468 64.6777195,4.02956962 L64.7036435,4.02956962 C64.8181144,3.99068354 64.9244841,3.94450633 65.0389549,3.90197468 C65.0681195,3.90197468 65.0835119,3.90197468 65.1045752,3.86956962 C65.1337397,3.86956962 65.1620942,3.83716456 65.1906106,3.83311392 C65.3133448,3.79422785 65.435998,3.74805063 65.5505499,3.70551899 L65.5699929,3.70551899 C65.8441397,3.62377722 66.0975473,3.52234937 66.3633499,3.42748354 C66.4006157,3.42748354 66.4370714,3.39507848 66.4817904,3.39507848 C66.5923727,3.35943291 66.7069246,3.31973671 66.8212334,3.29365063 C66.8747018,3.26124557 66.927603,3.26124557 66.9766157,3.24423291 C67.0950562,3.20858734 67.2099322,3.16889114 67.3201904,3.14280506 C67.3696081,3.14280506 67.4144081,3.1104 67.4510258,3.10715949 C67.8313803,3.00249114 68.207603,2.9043038 68.5879575,2.81267848 C68.6414258,2.81267848 68.6861448,2.78027342 68.7433397,2.77703291 C68.853598,2.74462785 68.956079,2.72761519 69.0746005,2.71141266 C69.1240182,2.67900759 69.1809701,2.67900759 69.2382461,2.66199494 C69.3485043,2.62958987 69.4547929,2.62634937 69.5735575,2.59961519 L69.6513296,2.59961519 C69.8803524,2.55343797 70.1135068,2.5145519 70.3425296,2.47202025 L70.4815473,2.47202025 C70.5918056,2.43961519 70.6899929,2.43637468 70.8005752,2.41612152 C70.8613347,2.41612152 70.9232284,2.38371646 70.9805043,2.38371646 C71.0825803,2.38371646 71.1849803,2.35131139 71.2870562,2.33753924 C71.3405246,2.33753924 71.3933448,2.33753924 71.4549144,2.30513418 C71.6960081,2.27272911 71.9456081,2.25976709 72.1991777,2.23951392 C71.4835119,2.17065316 70.7473499,2.12496203 69.9989549,2.12496203 C46.7125792,2.12496203 14.6293792,45.3318481 0.176599494,101.286238 L2.96164456,101.286238 C7.58702177,93.0376101 11.7420962,85.2345519 15.5413711,77.9098734 C25.6632223,38.2773468 46.2790805,11.2487696 64.5924942,4.08797975" fill="url(#linearGradient-8)"/>
      <path d="M77.69856,20.0135291 C80.3446765,17.4903899 82.9987322,15.2204962 85.6324537,13.2044962 C85.0314208,11.8876354 84.4098106,10.668881 83.7429954,9.55228354 C81.6124435,12.1369114 79.6657904,15.5477063 77.69856,20.0135291" fill="#0D82CA"/>
      <path d="M79.6115119,4.42191392 C81.1328486,5.69786329 82.4945094,7.45243544 83.7420233,9.5545519 C84.1346106,9.07195949 84.5314916,8.62606582 84.9444132,8.20893165 C83.2146309,6.59362025 81.3455068,5.26857722 79.3170309,4.2707443 C79.3988537,4.31611139 79.4805954,4.35256709 79.5656587,4.38853671 C79.5656587,4.38853671 79.5980638,4.42094177 79.6118359,4.42094177" fill="#0D82CA"/>
      <path d="M15.5403261,77.9146532 C36.7737195,36.9976709 46.8342278,11.1020557 64.591441,4.09243544 L64.591441,4.09243544 C46.2821266,11.257762 25.6621772,38.2860152 15.5403261,77.9146532" fill="url(#linearGradient-9)"/>
      <path d="M84.9430359,8.20787848 C84.5301954,8.62930633 84.1376081,9.07098734 83.7407271,9.55357975 C84.4074613,10.6698532 85.0288284,11.884638 85.634398,13.2054684 C86.4195727,12.6044354 87.2005347,12.0358076 87.9776081,11.4796557 C87.016717,10.2936304 86.0024385,9.19364051 84.9430359,8.20787848" fill="#127BCA"/>
      <path d="M25.179601,101.107119 L25.179601,101.107119 C25.0487332,101.139524 24.9178653,101.139524 24.7951716,101.153296 L24.7215311,101.153296 C24.6109489,101.153296 24.4964375,101.185701 24.3943615,101.185701 L24.3410552,101.185701 C24.0753904,101.218106 23.8134927,101.218106 23.5599311,101.238359 L23.4781408,101.238359 C44.9691868,100.637003 54.7924739,89.8769823 59.6673296,74.2709468 C63.3725246,62.4397772 66.415279,52.4731949 69.0817296,44.1100152 C60.0804132,56.7797468 51.0381853,71.8826127 41.9469448,88.8015392 C37.5628476,96.9562734 30.8967453,100.362775 25.1794309,101.091078" fill="url(#linearGradient-10)"/>
      <path d="M25.179601,101.098937 L25.179601,101.098937 C30.8969154,100.370633 37.5630258,96.9681013 41.9471149,88.8093975 L41.9471149,88.8093975 C51.0383473,71.8946835 60.0846258,56.7876051 69.07776,44.1178734 L69.07776,44.1178734 C72.3494562,33.8486278 75.0486359,25.9886987 77.698722,20.0053468 L77.698722,20.0053468 C59.7738613,37.0673418 41.7794349,65.4373266 25.179601,101.090754" fill="url(#linearGradient-11)"/>
      <path d="M15.5393134,77.9156253 C11.7402005,85.2403038 7.58513418,93.043362 2.95958684,101.29199 L11.0613225,101.29199 C12.1328122,93.1002329 13.654157,85.2890734 15.5393134,77.9195139" fill="#05A1E6"/>
      <path d="M71.4538613,2.32603544 C71.388241,2.32603544 71.3393094,2.35844051 71.2821144,2.35844051 L71.2821144,2.35844051 C71.1839271,2.39084557 71.0815271,2.39084557 70.9794511,2.40137722 L70.9794511,2.40137722 C70.9186916,2.40137722 70.8610106,2.40137722 70.799522,2.43378228 L70.799522,2.43378228 C70.6889397,2.46618734 70.5868638,2.46942785 70.4804942,2.48968101 L70.4804942,2.48968101 C70.4310765,2.48968101 70.3823878,2.48968101 70.3414765,2.52208608 L70.3414765,2.52208608 C70.10816,2.56097215 69.8792992,2.60390886 69.6502765,2.64311899 L69.6502765,2.64311899 L69.5725043,2.64311899 L69.5725043,2.64311899 C69.4540638,2.67552405 69.3474511,2.69253671 69.2371929,2.70873924 L69.2371929,2.70873924 C69.1796739,2.7411443 69.122641,2.7411443 69.0693347,2.75410633 L69.0693347,2.75410633 C68.9590765,2.78651139 68.8484942,2.80028354 68.7422056,2.81972658 L68.7422056,2.81972658 C68.6846866,2.85213165 68.6401296,2.85213165 68.5867423,2.85537215 L68.5867423,2.85537215 C68.2064689,2.94699747 67.8301651,3.04518481 67.4498106,3.14985316 L67.4498106,3.14985316 C67.4093043,3.14985316 67.3680689,3.18225823 67.3189752,3.18873924 L67.3189752,3.18873924 C67.2045043,3.2211443 67.093922,3.25435949 66.9754815,3.29016709 L66.9754815,3.29016709 C66.9260638,3.32257215 66.8691119,3.32257215 66.8200182,3.33553418 L66.8200182,3.33553418 C66.7055473,3.36793924 66.5909954,3.40115443 66.4805752,3.43696203 L66.4805752,3.43696203 C66.4360182,3.43696203 66.3988334,3.46936709 66.357922,3.46936709 L66.357922,3.46936709 C66.0961701,3.56747342 65.8385499,3.66566076 65.5686157,3.74748354 L65.5686157,3.74748354 L65.5686157,3.74748354 L65.5686157,3.74748354 C65.4541448,3.78312911 65.3314106,3.82922532 65.2087575,3.87175696 L65.2087575,3.87175696 C65.1593397,3.90416203 65.1145397,3.91145316 65.0575878,3.93413671 L65.0575878,3.93413671 C64.9430359,3.96978228 64.8285651,4.01595949 64.7221954,4.05849114 L64.7221954,4.05849114 C64.6816891,4.0908962 64.6404537,4.09413671 64.6119372,4.11114937 L64.6119372,4.11114937 C46.8547646,11.1207696 36.7942562,37.0163848 15.5608628,77.9333671 L15.5608628,77.9333671 C13.6755362,85.3029266 12.1501003,93.1140861 11.0827099,101.305519 L11.0827099,101.305519 L12.2196253,101.305519 C15.4218127,101.305519 16.3256223,101.273114 20.0103858,101.273114 L20.0103858,101.273114 L20.1985053,101.273114 L20.7465154,101.273114 L20.934643,101.273114 L20.9879494,101.273114 L21.1760689,101.273114 L21.282398,101.273114 L21.3560385,101.273114 L21.5032628,101.273114 L21.9613084,101.273114 L22.4193458,101.273114 L22.8037671,101.273114 L22.9058511,101.273114 L23.580638,101.273114 L23.580638,101.273114 C23.8341914,101.240709 24.0959352,101.240709 24.361762,101.220456 L24.361762,101.220456 L24.4108557,101.220456 L24.4108557,101.220456 C24.521438,101.220456 24.6316962,101.188051 24.7380253,101.188051 L24.7380253,101.188051 L24.8155544,101.188051 L24.8155544,101.188051 C24.9339868,101.188051 25.0691078,101.155646 25.1999757,101.141873 L25.1999757,101.141873 C41.7998177,65.4884456 59.7941954,37.1184608 77.7190562,20.0564658 L77.7190562,20.0564658 C79.6902562,15.590643 81.6328587,12.1798481 83.759522,9.59943291 L83.759522,9.59943291 C82.5162208,7.49739747 81.154398,5.7388557 79.6330613,4.46258228 L79.6330613,4.46258228 C79.6330613,4.46258228 79.5917448,4.46258228 79.5885043,4.43017722 L79.5885043,4.43017722 C79.5024689,4.39453165 79.4210511,4.35159494 79.3350157,4.3091443 L79.3350157,4.3091443 C79.2488992,4.26296709 79.1753397,4.22732152 79.0856587,4.18154937 L79.0856587,4.18154937 C79.0078866,4.1491443 78.9178815,4.10620759 78.8402714,4.06375696 L78.8402714,4.06375696 C78.7339828,4.0313519 78.6479473,3.98517468 78.5540537,3.94264304 L78.5540537,3.94264304 C78.4762815,3.91023797 78.4067727,3.87702278 78.3289195,3.84453671 L78.3289195,3.84453671 C78.1692435,3.78215696 78.0099727,3.71694177 77.858641,3.64824304 L77.858641,3.64824304 C77.7889701,3.61583797 77.7238359,3.59882532 77.6580537,3.57290127 L77.6580537,3.57290127 C77.5477954,3.53320506 77.4208486,3.48127595 77.3063777,3.43218228 L77.3063777,3.43218228 C77.2488587,3.39977722 77.1836435,3.3932962 77.1182663,3.36980253 L77.1182663,3.36980253 C76.9507322,3.3139038 76.7870056,3.25533165 76.6315423,3.20291646 L76.6315423,3.20291646 L76.5910359,3.20291646 L76.5910359,3.20291646 C76.4028435,3.14053671 76.2188638,3.09500759 76.0266208,3.04259241 L76.0266208,3.04259241 C75.9820638,3.01018734 75.944798,3.01018734 75.899998,3.00370633 L75.899998,3.00370633 C75.7321397,2.95752911 75.5849397,2.91208101 75.4255878,2.86954937 L75.4255878,2.86954937 C75.3850815,2.86954937 75.3478157,2.8371443 75.3153296,2.8371443 L75.3153296,2.8371443 C74.9309246,2.73571646 74.5342056,2.65397468 74.1334359,2.57871392 L74.1334359,2.57871392 C74.0921195,2.57871392 74.0516942,2.54630886 74.0107828,2.54630886 L74.0107828,2.54630886 C73.8390359,2.5139038 73.6713397,2.48392911 73.4995929,2.46448608 L73.4995929,2.46448608 C73.4582765,2.43208101 73.4339727,2.43208101 73.397517,2.43208101 L73.397517,2.43208101 C73.193041,2.39967595 72.9926157,2.37618228 72.7921904,2.35349873 L72.7921904,2.35349873 L72.6859018,2.35349873 L72.6859018,2.35349873 C72.5223372,2.32109367 72.3711676,2.31785316 72.2196739,2.30084051 L72.2196739,2.30084051 C71.9618916,2.33324557 71.7166663,2.34701772 71.4753296,2.36970127" fill="url(#linearGradient-12)"/>
      <path d="M192.294449,26.5978329 C188.208899,39.6846987 184.900342,50.4813367 182.021314,59.3640506 L182.021314,59.3640506 C193.230955,43.9379443 204.27298,24.5324152 214.787613,2.13792405 L214.787613,2.13792405 C202.522621,5.98999494 195.979228,14.8075747 192.294449,26.5978329" fill="url(#linearGradient-13)"/>
      <path d="M182.377041,95.5164354 C181.804525,95.8075949 181.232008,96.0847392 180.667593,96.3343392 C202.473527,86.6091747 228.483613,48.0357266 240.936717,0.0112607595 L238.413254,0.0112607595 C209.802175,51.1193114 200.600514,85.3332253 182.377041,95.5164354" fill="url(#linearGradient-14)"/>
      <path d="M168.138094,91.2226025 C172.882033,85.4317367 176.74658,75.5881316 182.02253,59.3643747 C175.936859,67.7235848 169.810925,74.9092456 163.680373,80.7695392 C163.680373,80.8019443 163.680373,80.8019443 163.647968,80.8221975 C164.985487,84.8300557 166.453436,88.3673924 168.126266,91.2219544" fill="#079AE1"/>
      <path d="M168.138094,91.2226025 C166.52254,93.1938835 164.813335,94.6948861 162.911482,95.8072709 C162.494347,96.0494177 162.073325,96.2774684 161.643714,96.486157 C163.651937,97.5697823 165.843654,98.2937924 168.297365,98.5839797 L168.297365,98.5839797 C168.65698,98.6196253 169.01295,98.6528405 169.385284,98.6788456 L169.450904,98.6788456 C169.61779,98.6788456 169.794479,98.6788456 169.974408,98.7112506 L170.046509,98.7112506 L170.582408,98.7112506 L171.159218,98.7112506 L171.339228,98.7112506 L171.74818,98.7112506 C171.813801,98.7112506 171.882256,98.7112506 171.947714,98.6788456 C172.075309,98.6788456 172.209466,98.6788456 172.340302,98.6464405 L172.386479,98.6464405 L172.533679,98.6464405 C172.667836,98.6464405 172.815036,98.6140354 172.958995,98.6002633 L172.991401,98.6002633 C173.034337,98.6002633 173.079704,98.5678582 173.122236,98.5678582 C173.272757,98.5354532 173.429841,98.521681 173.576393,98.4989975 L173.71055,98.4989975 C173.877355,98.4665924 174.049831,98.4463392 174.221578,98.4139342 L174.253983,98.4139342 L174.303401,98.4139342 C174.646975,98.3483139 174.982287,98.2830987 175.321568,98.1980354 C172.507917,97.1673924 170.152312,94.7381468 168.123836,91.2783392" fill="#1969BC"/>
      <path d="M127.936292,98.7112506 C129.977163,98.7112506 132.038368,98.5117165 134.107674,98.1141873 C136.021679,97.7667241 137.939573,97.2347139 139.861679,96.5640101 C141.460869,97.3452962 143.137588,97.9260759 144.912494,98.2859342 C146.290601,98.5672911 147.721932,98.7112506 149.223016,98.7112506 L127.936292,98.7112506 L127.936292,98.7112506 Z" fill="#1E5CB3"/>
      <path d="M149.22334,98.7112506 C154.26176,98.7112506 158.253254,98.1141873 161.643714,96.486481 C163.651613,97.5701063 165.843654,98.2941165 168.297365,98.5846278 L168.297365,98.5846278 C168.657304,98.6202734 169.013274,98.6534886 169.385284,98.6794937 L169.450904,98.6794937 C169.61779,98.6794937 169.794479,98.6794937 169.974408,98.7118987 L170.04975,98.7118987 L170.585649,98.7118987 L149.208919,98.7118987 L149.22334,98.7112506 Z" fill="#1E5CB3"/>
      <path d="M170.598368,98.7112506 L171.179147,98.7112506 L171.359076,98.7112506 L171.76414,98.7112506 C171.833001,98.7112506 171.898216,98.7112506 171.963674,98.6788456 C172.091269,98.6788456 172.225426,98.6788456 172.360555,98.6464405 L172.403492,98.6464405 L172.554013,98.6464405 C172.688089,98.6464405 172.83537,98.6140354 172.97536,98.6010734 L173.011006,98.6010734 C173.053942,98.6010734 173.096069,98.5686684 173.138601,98.5686684 C173.289122,98.5362633 173.446206,98.5233013 173.592433,98.4998076 C173.641851,98.4998076 173.680737,98.4998076 173.733071,98.4674025 C173.899957,98.4349975 174.072676,98.4179848 174.244504,98.3856608 L174.276909,98.3856608 L174.326327,98.3856608 C174.669902,98.3200405 175.005213,98.2547443 175.344494,98.169681 L175.344494,98.169681 C176.329932,98.5335089 177.356606,98.7177316 178.464697,98.7177316 L170.604444,98.7501367 L170.598368,98.7112506 Z" fill="#1D60B5"/>
      <path d="M163.661092,80.8228456 L163.661092,80.7904405 C161.415988,82.937357 159.174854,84.9046684 156.937689,86.6834633 C155.768028,87.6119494 154.602661,88.4910987 153.424899,89.3214785 C154.410337,90.4992405 155.412464,91.603443 156.467573,92.6095392 C158.070732,94.163281 159.784069,95.4722835 161.653193,96.4822684 C162.078509,96.2728506 162.503826,96.0444759 162.916747,95.8033823 C164.822489,94.6909975 166.532018,93.190238 168.147573,91.219038 C166.474742,88.3644759 165.006712,84.8267342 163.669274,80.818957" fill="#175FAB"/>
      <path d="M230.422165,0.0112607595 L219.813638,0.0112607595 L218.758449,0.0112607595 L218.758449,0.0112607595 L217.760616,0.0112607595 L217.760616,0.0112607595 L217.72173,0.0112607595 C217.034661,0.0436658228 216.368251,0.0671594937 215.709618,0.109448101 L215.709618,0.109448101 C215.398854,0.776263291 215.079826,1.44299747 214.77295,2.11370127 L214.77295,2.11370127 C204.258641,24.5081924 193.216616,43.9137215 182.006975,59.3398278 L182.006975,59.3398278 C176.735401,75.5632608 172.866641,85.4071899 168.122621,91.1981367 L168.122621,91.1981367 C170.151097,94.6579443 172.510833,97.0910785 175.316302,98.1217215 L175.316302,98.1217215 C175.398125,98.0893165 175.463502,98.0893165 175.537142,98.0723038 L175.537142,98.0723038 L175.582509,98.0723038 L175.582509,98.0723038 C175.631927,98.0723038 175.684585,98.0398987 175.737973,98.0398987 L175.737973,98.0398987 C175.852444,98.0074937 175.975178,97.9872405 176.089649,97.9515949 L176.089649,97.9515949 C176.16337,97.9191899 176.224454,97.9159494 176.298418,97.8924557 L176.298418,97.8924557 C176.404707,97.8600506 176.514965,97.836557 176.613152,97.8106329 L176.613152,97.8106329 C176.678773,97.7782278 176.743988,97.7676962 176.809446,97.7547342 L176.809446,97.7547342 C176.973011,97.7020759 177.120211,97.6631089 177.275674,97.6140152 L177.275674,97.6140152 C177.349395,97.5816101 177.427168,97.5548759 177.508909,97.5354329 L177.508909,97.5354329 C177.598914,97.5030278 177.688838,97.4795342 177.770661,97.4405671 L177.770661,97.4405671 C177.864879,97.408162 177.958773,97.3911494 178.040595,97.3555038 L178.040595,97.3555038 C178.114317,97.3230987 178.191765,97.3028456 178.261436,97.273681 L178.261436,97.273681 C178.445254,97.2080608 178.625426,97.1526481 178.809406,97.0806278 L178.809406,97.0806278 C178.858823,97.0806278 178.907593,97.0352608 178.960899,97.0247291 L178.960899,97.0247291 C179.071157,96.9785519 179.185709,96.9429063 179.296292,96.8938127 L179.296292,96.8938127 C179.336798,96.8614076 179.386216,96.8581671 179.439198,96.8411544 L179.439198,96.8411544 C179.823684,96.6808304 180.220322,96.5172658 180.617041,96.3383089 L180.617041,96.3383089 L180.658357,96.3383089 L180.658357,96.3383089 C181.222692,96.089681 181.795289,95.8105924 182.363755,95.5204051 L182.363755,95.5204051 C200.591279,85.3371949 209.793102,51.123281 238.40418,0.0152303797 L238.40418,0.0152303797 L230.413011,0.0152303797 L230.422165,0.0112607595 Z" fill="url(#linearGradient-15)"/>
      <path d="M72.1990157,2.25701266 C72.2443828,2.25701266 72.2850511,2.25701266 72.3298511,2.28941772 C72.4401094,2.28941772 72.5506916,2.28941772 72.6611119,2.32506329 L72.7716942,2.32506329 C72.9719575,2.35746835 73.1724638,2.37448101 73.3769397,2.40364557 C73.4142056,2.40364557 73.4466106,2.40364557 73.4790157,2.43605063 C73.6465499,2.4684557 73.8184587,2.49518987 73.9902056,2.52111392 C74.0274714,2.52111392 74.076322,2.55351899 74.1171524,2.55351899 C74.5098208,2.63210127 74.9105904,2.71384304 75.2949954,2.81527089 C75.3314511,2.81527089 75.368717,2.84767595 75.4013651,2.84767595 C75.5649296,2.88656203 75.7121296,2.93597975 75.8756942,2.9817519 C75.9251119,2.9817519 75.9614056,3.01415696 76.0066106,3.0214481 C76.1989347,3.07086582 76.3787828,3.11963544 76.5668942,3.18177215 C76.5749954,3.18177215 76.5863372,3.18177215 76.6082106,3.21417722 C76.7674815,3.26278481 76.9311271,3.32540759 77.0989043,3.38098228 C77.1645246,3.41338734 77.2255271,3.42715949 77.2870157,3.44336203 C77.4015676,3.49277975 77.5285144,3.54146835 77.6387727,3.58732152 C77.7043929,3.58732152 77.7696081,3.63268861 77.8389549,3.65618228 C77.9901246,3.72504304 78.1498005,3.78701772 78.3051828,3.85247595 C78.3870056,3.88488101 78.4563524,3.92133671 78.5342056,3.95058228 C78.6242106,3.99675949 78.7181043,4.03896709 78.8162916,4.0716962 C78.8980334,4.11058228 78.9880385,4.15343797 79.0655676,4.18940759 C79.151603,4.23558481 79.2331018,4.27123038 79.3151676,4.31700253 C81.3436435,5.31491646 83.2126056,6.64417215 84.9425499,8.25551392 C85.5805246,7.58481013 86.2470967,6.98345316 86.9382967,6.44366582 C83.1553296,3.76085063 78.8694359,2.23133165 73.9250714,2.23133165 C73.3524739,2.23133165 72.7799575,2.26373671 72.1992587,2.30667342" fill="#7DCBEC"/>
      <path d="M84.943117,8.20787848 C86.0023575,9.19331646 87.0165549,10.2936304 87.9776081,11.4796557 C88.9059322,10.8334987 89.8261549,10.2118076 90.7504284,9.63110886 C89.5398562,8.42053671 88.2639068,7.33269873 86.9347322,6.39603038 C86.2436132,6.93192911 85.5810916,7.53717468 84.943117,8.20787848" fill="#5EC5ED"/>
      <path d="M72.1980425,6.28463137 C72.778771,6.33370702 73.3513202,6.3541552 73.9238694,6.3541552 C78.8682407,6.3541552 83.1541803,4.82463093 86.9370947,2.14591862 C90.9285805,5.29493919 95.7543523,6.39505157 102.457267,6.39505157 L69.9978178,6.39505157 C70.7462214,6.39505157 71.4782664,6.35006557 72.1980425,6.28463137" fill="url(#linearGradient-16)" transform="translate(86.227543, 4.270485) scale(1, -1) translate(-86.227543, -4.270485) "/>
      <path d="M102.457267,9.62995452 C95.7543523,9.62995452 90.9285805,8.52984214 86.9370947,5.38082157 C88.2621371,4.44429467 89.5381039,3.35645121 90.7486364,2.14591862 C96.3064533,5.67936508 101.811105,8.0186375 107.238053,9.04104678 C109.30741,9.4295623 111.372676,9.62995452 113.409316,9.62995452 L102.457267,9.62995452 L102.457267,9.62995452 Z" fill="url(#linearGradient-17)" transform="translate(100.173205, 5.887937) scale(1, -1) translate(-100.173205, -5.887937) "/>
      <path d="M182.021314,59.3722329 C184.904474,50.4813367 188.204768,39.6889924 192.298499,26.5978329 C195.987411,14.803362 202.51857,5.98610633 214.783319,2.13792405 C215.107289,1.47929114 215.413193,0.800405063 215.728251,0.133670886 C195.733841,1.33209114 186.389031,11.5028253 181.685922,26.5651848 C173.461679,52.8614886 168.480454,69.907119 163.68337,80.7692152 C169.809628,74.9128101 175.935887,67.7232608 182.021314,59.3722329" fill="url(#linearGradient-18)"/>
      <path d="M211.354621,91.7061671 L209.08894,91.7061671 L209.08894,98.7485165 L208.164666,98.7485165 L208.164666,91.7061671 L205.890884,91.7061671 L205.890884,90.8680101 L211.354621,90.8680101 L211.354621,91.7061671 L211.354621,91.7061671 Z" fill="#000000"/>
      <path d="M220.631866,98.7472203 L219.711887,98.7472203 L219.711887,93.4552304 C219.711887,93.0380962 219.744292,92.5270684 219.787228,91.9257114 L219.787228,91.9257114 C219.692282,92.2856506 219.61378,92.5352506 219.541841,92.6946025 L216.859026,98.7472203 L216.409163,98.7472203 L213.718165,92.7397266 C213.639583,92.5728405 213.561163,92.3020152 213.476099,91.9257114 L213.443694,91.9257114 C213.476099,92.243119 213.486631,92.7560911 213.486631,93.4677063 L213.486631,98.7472203 L212.603269,98.7472203 L212.603269,90.8667139 L213.821942,90.8667139 L216.238793,96.3670684 C216.421963,96.7803139 216.536514,97.0992608 216.594763,97.311919 L216.630408,97.311919 C216.790732,96.8784203 216.921568,96.5551797 217.010925,96.3425215 L219.476788,90.8667139 L220.638266,90.8667139 L220.638266,98.7472203 L220.631866,98.7472203 Z" fill="#000000"/>
    </g>
  </g>
  <path d="M 378.461 42.796 L 384.506 42.796 L 369.393 70.285 L 354.28 42.796 L 365.841 42.796 L 369.393 49.17 L 372.869 42.796 L 378.461 42.796 Z" style="fill: rgb(65, 184, 131);" transform="matrix(1, 0, 0, 1, 0, -1.7763568394002505e-15)"/>
  <path d="M 354.28 42.796 L 369.393 70.285 L 384.506 42.796 L 378.461 42.796 L 369.393 59.289 L 360.25 42.796 L 354.28 42.796 Z" style="fill: rgb(65, 184, 131);" transform="matrix(1, 0, 0, 1, 0, -1.7763568394002505e-15)"/>
  <path d="M 360.25 42.796 L 369.393 59.369 L 378.461 42.796 L 372.869 42.796 L 369.393 49.17 L 365.841 42.796 L 360.25 42.796 Z" style="fill: rgb(53, 73, 94);" transform="matrix(1, 0, 0, 1, 0, -1.7763568394002505e-15)"/>
  <g transform="matrix(0.11772599071264267, 0, 0, 0.11330199241638184, 356.14483642578125, 198.5496368408203)" style="">
    <path d="M210.483381,73.8236374 C207.827698,72.9095503 205.075867,72.0446761 202.24247,71.2267368 C202.708172,69.3261098 203.135596,67.4500894 203.515631,65.6059664 C209.753843,35.3248922 205.675082,10.9302478 191.747328,2.89849283 C178.392359,-4.80289661 156.551327,3.22703567 134.492936,22.4237776 C132.371761,24.2697233 130.244662,26.2241201 128.118477,28.2723861 C126.701777,26.917204 125.287358,25.6075897 123.876584,24.3549348 C100.758745,3.82852863 77.5866802,-4.82157937 63.6725966,3.23341515 C50.3303869,10.9571328 46.3792156,33.8904224 51.9945178,62.5880206 C52.5367729,65.3599011 53.1706189,68.1905639 53.8873982,71.068617 C50.6078941,71.9995641 47.4418534,72.9920277 44.4125156,74.0478303 C17.3093297,83.497195 0,98.3066828 0,113.667995 C0,129.533287 18.5815786,145.446423 46.8116526,155.095373 C49.0394553,155.856809 51.3511025,156.576778 53.7333796,157.260293 C52.9600965,160.37302 52.2875179,163.423318 51.7229345,166.398431 C46.3687351,194.597975 50.5500231,216.989464 63.8566899,224.664425 C77.6012619,232.590464 100.66852,224.443422 123.130185,204.809231 C124.905501,203.257196 126.687196,201.611293 128.472081,199.886102 C130.785552,202.113904 133.095375,204.222319 135.392897,206.199955 C157.14963,224.922338 178.637969,232.482469 191.932332,224.786092 C205.663234,216.837268 210.125675,192.78347 204.332202,163.5181 C203.88974,161.283006 203.374826,158.99961 202.796573,156.675661 C204.416503,156.196743 206.006814,155.702335 207.557482,155.188332 C236.905331,145.46465 256,129.745175 256,113.667995 C256,98.2510906 238.132466,83.3418093 210.483381,73.8236374 L210.483381,73.8236374 Z M204.118035,144.807565 C202.718197,145.270987 201.281904,145.718918 199.818271,146.153177 C196.578411,135.896354 192.205739,124.989735 186.854729,113.72131 C191.961041,102.721277 196.164656,91.9540963 199.313837,81.7638014 C201.93261,82.5215915 204.474374,83.3208483 206.923636,84.1643056 C230.613348,92.3195488 245.063763,104.377206 245.063763,113.667995 C245.063763,123.564379 229.457753,136.411268 204.118035,144.807565 L204.118035,144.807565 Z M193.603754,165.642007 C196.165567,178.582766 196.531475,190.282717 194.834536,199.429057 C193.309843,207.64764 190.243595,213.12715 186.452366,215.321689 C178.384612,219.991462 161.131788,213.921395 142.525146,197.909832 C140.392124,196.074366 138.243609,194.114502 136.088259,192.040261 C143.301619,184.151133 150.510878,174.979732 157.54698,164.793993 C169.922699,163.695814 181.614905,161.900447 192.218042,159.449363 C192.740247,161.555956 193.204126,163.621993 193.603754,165.642007 L193.603754,165.642007 Z M87.2761866,214.514686 C79.3938934,217.298414 73.1160375,217.378157 69.3211631,215.189998 C61.2461189,210.532528 57.8891498,192.554265 62.4682434,168.438039 C62.9927272,165.676183 63.6170041,162.839142 64.3365173,159.939216 C74.8234575,162.258154 86.4299951,163.926841 98.8353334,164.932519 C105.918826,174.899534 113.336329,184.06091 120.811247,192.08264 C119.178102,193.65928 117.551336,195.16028 115.933685,196.574699 C106.001303,205.256705 96.0479605,211.41654 87.2761866,214.514686 L87.2761866,214.514686 Z M50.3486141,144.746959 C37.8658105,140.48046 27.5570398,134.935332 20.4908634,128.884403 C14.1414664,123.446815 10.9357817,118.048415 10.9357817,113.667995 C10.9357817,104.34622 24.8334611,92.4562517 48.0123604,84.3748281 C50.8247961,83.3942121 53.7689223,82.4701001 56.8242337,81.6020363 C60.0276398,92.0224477 64.229889,102.917218 69.3011135,113.93411 C64.1642716,125.11459 59.9023288,136.182975 56.6674809,146.725506 C54.489347,146.099407 52.3791089,145.440499 50.3486141,144.746959 L50.3486141,144.746959 Z M62.7270678,60.4878073 C57.9160346,35.9004118 61.1112387,17.3525532 69.1516515,12.6982729 C77.7160924,7.74005624 96.6544653,14.8094222 116.614922,32.5329619 C117.890816,33.6657739 119.171723,34.8514442 120.456275,36.0781256 C113.018267,44.0647686 105.66866,53.1573386 98.6480514,63.0655695 C86.6081646,64.1815215 75.0831931,65.9741531 64.4868907,68.3746571 C63.8206914,65.6948233 63.2305903,63.0619242 62.7270678,60.4878073 L62.7270678,60.4878073 Z M173.153901,87.7550367 C170.620796,83.3796304 168.020249,79.1076627 165.369124,74.9523483 C173.537126,75.9849113 181.362914,77.3555864 188.712066,79.0329319 C186.505679,86.1041206 183.755673,93.4974728 180.518546,101.076741 C178.196419,96.6680702 175.740322,92.2229454 173.153901,87.7550367 L173.153901,87.7550367 Z M128.122121,43.8938899 C133.166461,49.3588189 138.218091,55.4603279 143.186789,62.0803968 C138.179814,61.8439007 133.110868,61.720868 128.000001,61.720868 C122.937434,61.720868 117.905854,61.8411667 112.929865,62.0735617 C117.903575,55.515009 122.99895,49.4217021 128.122121,43.8938899 L128.122121,43.8938899 Z M82.8018984,87.830679 C80.2715265,92.2183886 77.8609975,96.6393627 75.5753239,101.068539 C72.3906004,93.5156998 69.6661103,86.0886276 67.440586,78.9171899 C74.7446255,77.2826781 82.5335049,75.9461789 90.6495601,74.9332099 C87.9610684,79.1268011 85.3391054,83.4302106 82.8018984,87.8297677 L82.8018984,87.830679 L82.8018984,87.830679 Z M90.8833221,153.182899 C82.4979621,152.247395 74.5919739,150.979704 67.289757,149.390303 C69.5508242,142.09082 72.3354636,134.505173 75.5876271,126.789657 C77.8792246,131.215644 80.2993228,135.638441 82.8451877,140.03572 L82.8456433,140.03572 C85.4388987,144.515476 88.1255676,148.90364 90.8833221,153.182899 L90.8833221,153.182899 Z M128.424691,184.213105 C123.24137,178.620587 118.071264,172.434323 113.021912,165.780078 C117.923624,165.972373 122.921029,166.0708 128.000001,166.0708 C133.217953,166.0708 138.376211,165.953235 143.45336,165.727219 C138.468257,172.501308 133.434855,178.697141 128.424691,184.213105 L128.424691,184.213105 Z M180.622896,126.396409 C184.044571,134.195313 186.929004,141.741317 189.219234,148.9164 C181.796719,150.609693 173.782736,151.973534 165.339049,152.986959 C167.996555,148.775595 170.619884,144.430263 173.197646,139.960532 C175.805484,135.438399 178.28163,130.90943 180.622896,126.396409 L180.622896,126.396409 Z M163.724586,134.496971 C159.722835,141.435557 155.614455,148.059271 151.443648,154.311611 C143.847063,154.854776 135.998946,155.134562 128.000001,155.134562 C120.033408,155.134562 112.284171,154.887129 104.822013,154.402745 C100.48306,148.068386 96.285368,141.425078 92.3091341,134.556664 L92.3100455,134.556664 C88.3442923,127.706935 84.6943232,120.799333 81.3870228,113.930466 C84.6934118,107.045648 88.3338117,100.130301 92.276781,93.292874 L92.2758697,93.294241 C96.2293193,86.4385872 100.390102,79.8276317 104.688954,73.5329157 C112.302398,72.9573964 120.109505,72.6571055 127.999545,72.6571055 L128.000001,72.6571055 C135.925583,72.6571055 143.742714,72.9596746 151.353879,73.5402067 C155.587114,79.7888993 159.719645,86.3784378 163.688588,93.2350031 C167.702644,100.168578 171.389978,107.037901 174.724618,113.77508 C171.400003,120.627999 167.720871,127.566587 163.724586,134.496971 L163.724586,134.496971 Z M186.284677,12.3729198 C194.857321,17.3165548 198.191049,37.2542268 192.804953,63.3986692 C192.461372,65.0669011 192.074504,66.7661189 191.654369,68.4881206 C181.03346,66.0374921 169.500286,64.2138746 157.425315,63.0810626 C150.391035,53.0639249 143.101577,43.9572289 135.784778,36.073113 C137.751934,34.1806885 139.716356,32.3762092 141.672575,30.673346 C160.572216,14.2257007 178.236518,7.73185406 186.284677,12.3729198 L186.284677,12.3729198 Z M128.000001,90.8080696 C140.624975,90.8080696 150.859926,101.042565 150.859926,113.667995 C150.859926,126.292969 140.624975,136.527922 128.000001,136.527922 C115.375026,136.527922 105.140075,126.292969 105.140075,113.667995 C105.140075,101.042565 115.375026,90.8080696 128.000001,90.8080696 L128.000001,90.8080696 Z" fill="#00D8FF"/>
  </g>
  <path d="M 32.837 205.211 C 34.029 200.736 37.012 198.498 41.784 198.498 C 48.943 198.498 49.837 203.533 53.417 204.372 C 55.802 204.932 57.89 204.093 59.68 201.854 C 58.486 206.331 55.504 208.567 50.732 208.567 C 43.574 208.567 42.679 203.533 39.1 202.694 C 36.714 202.135 34.626 202.974 32.837 205.211 Z M 23.889 215.28 C 25.082 210.806 28.064 208.567 32.837 208.567 C 39.995 208.567 40.89 213.602 44.469 214.441 C 46.854 215.001 48.943 214.162 50.732 211.924 C 49.538 216.4 46.556 218.637 41.784 218.637 C 34.626 218.637 33.732 213.602 30.152 212.763 C 27.766 212.205 25.679 213.044 23.889 215.28 Z" style="fill: rgb(68, 168, 179);" transform="matrix(1, 0, 0, 1, 0, -1.7763568394002505e-15)"/>
  <g transform="matrix(0.09767300635576248, 0, 0, 0.10710900276899338, 402.8182678222656, 96.45227813720702)" style="">
    <path d="M0,222.991225 C0,241.223474 14.7785318,256 33.0087747,256 L222.991225,256 C241.223474,256 256,241.221468 256,222.991225 L256,33.0087747 C256,14.7765263 241.221468,0 222.991225,0 L33.0087747,0 C14.7765263,0 0,14.7785318 0,33.0087747 L0,222.991225 Z" fill="#563D7C"/>
    <path d="M106.157563,113.238095 L106.157563,76.9845938 L138.069328,76.9845938 C141.108559,76.9845938 144.039202,77.2378593 146.861345,77.7443978 C149.683488,78.2509362 152.179961,79.1554557 154.35084,80.4579832 C156.52172,81.7605107 158.258397,83.5695496 159.560924,85.8851541 C160.863452,88.2007585 161.514706,91.1675823 161.514706,94.7857143 C161.514706,101.298352 159.560944,106.001853 155.653361,108.896359 C151.745779,111.790864 146.752832,113.238095 140.67437,113.238095 L106.157563,113.238095 L106.157563,113.238095 Z M72.07493,50.5 L72.07493,205.5 L147.186975,205.5 C154.133788,205.5 160.899594,204.631661 167.484594,202.894958 C174.069594,201.158255 179.93088,198.480877 185.068627,194.862745 C190.206375,191.244613 194.294803,186.577293 197.334034,180.860644 C200.373264,175.143996 201.892857,168.37819 201.892857,160.563025 C201.892857,150.866431 199.541107,142.581033 194.837535,135.706583 C190.133963,128.832132 183.00635,124.020088 173.454482,121.270308 C180.401295,117.941627 185.647508,113.672295 189.193277,108.462185 C192.739047,103.252075 194.511905,96.7395349 194.511905,88.9243697 C194.511905,81.6881057 193.317939,75.6097352 190.929972,70.6890756 C188.542005,65.7684161 185.177193,61.8247114 180.835434,58.8578431 C176.493676,55.8909749 171.283644,53.756309 165.205182,52.4537815 C159.12672,51.151254 152.397096,50.5 145.016106,50.5 L72.07493,50.5 L72.07493,50.5 Z M106.157563,179.015406 L106.157563,136.466387 L143.279412,136.466387 C150.660401,136.466387 156.594049,138.166883 161.080532,141.567927 C165.567016,144.968971 167.810224,150.649353 167.810224,158.609244 C167.810224,162.661552 167.122789,165.990183 165.747899,168.595238 C164.373009,171.200293 162.527789,173.262597 160.212185,174.782213 C157.89658,176.301828 155.219203,177.387252 152.179972,178.038515 C149.140741,178.689779 145.956833,179.015406 142.628151,179.015406 L106.157563,179.015406 L106.157563,179.015406 Z" fill="#FFFFFF"/>
  </g>
  <rect width="35.956" height="29.163" rx="288" fill="#f7df1e" x="23.394" y="41.132" style="" transform="matrix(1, 0, 0, 1, 0, -1.7763568394002505e-15)"/>
  <path d="M 46.147 62.207 C 46.85 63.174 47.833 63.858 49.447 63.858 C 50.853 63.858 51.766 63.288 51.766 62.491 C 51.766 61.58 50.853 61.238 49.308 60.668 L 48.464 60.384 C 46.007 59.53 44.392 58.504 44.392 56.283 C 44.392 54.232 46.288 52.637 49.308 52.637 C 51.484 52.637 53.03 53.264 54.083 54.859 L 51.484 56.226 C 50.922 55.371 50.291 55.03 49.308 55.03 C 48.324 55.03 47.692 55.542 47.692 56.226 C 47.692 57.023 48.324 57.365 49.799 57.878 L 50.642 58.162 C 53.521 59.188 55.137 60.156 55.137 62.491 C 55.137 64.941 52.749 66.307 49.518 66.307 C 46.358 66.307 44.321 65.111 43.339 63.516 L 46.147 62.207 Z M 34.209 62.434 C 34.771 63.174 35.192 63.858 36.386 63.858 C 37.51 63.858 38.212 63.516 38.212 62.15 L 38.212 52.694 L 41.583 52.694 L 41.583 62.036 C 41.583 64.884 39.546 66.136 36.526 66.136 C 33.788 66.136 32.242 64.998 31.469 63.63 L 34.209 62.434 Z" style="" transform="matrix(1, 0, 0, 1, 0, -1.7763568394002505e-15)"/>
  <path d="M 458.331 119.44 L 458.331 132.461 L 461.887 134.632 L 461.887 125.95 L 469 130.293 L 476.113 125.95 L 476.113 130.293 L 469 134.632 L 469 138.973 L 476.113 143.313 L 486.783 136.803 L 486.783 128.121 L 483.226 130.293 L 483.226 134.632 L 476.113 138.973 L 472.557 136.803 L 479.67 132.461 L 479.67 119.44 L 469 125.95 L 458.331 119.44 Z M 486.783 119.44 L 483.226 121.608 L 483.226 125.95 L 486.783 123.78 L 486.783 119.439 L 486.783 119.44 Z" style="" transform="matrix(1, 0, 0, 1, 0, -1.7763568394002505e-15)"/>
  <polygon points="406.631 176.706 404.384 151.505 429.074 151.505 426.824 176.702 416.714 179.505 406.631 176.706" style="fill:#e44f26" transform="matrix(1, 0, 0, 1, 0, -1.7763568394002505e-15)"/>
  <polygon points="416.729 177.363 424.899 175.098 426.821 153.566 416.729 153.566 416.729 177.363" style="fill:#f1662a" transform="matrix(1, 0, 0, 1, 0, -1.7763568394002505e-15)"/>
  <polygon points="416.729 162.912 412.639 162.912 412.357 159.747 416.729 159.747 416.729 156.656 416.718 156.656 408.979 156.656 409.053 157.486 409.812 166.003 416.729 166.003 416.729 162.912" style="fill:#ebebeb" transform="matrix(1, 0, 0, 1, 0, -1.7763568394002505e-15)"/>
  <polygon points="416.729 170.939 416.715 170.943 413.273 170.014 413.053 167.549 411.38 167.549 409.95 167.549 410.383 172.401 416.715 174.159 416.729 174.155 416.729 170.939" style="fill:#ebebeb" transform="matrix(1, 0, 0, 1, 0, -1.7763568394002505e-15)"/>
  <polygon points="416.718 162.912 416.718 166.003 420.524 166.003 420.166 170.012 416.718 170.942 416.718 174.158 423.055 172.401 423.101 171.879 423.827 163.742 423.903 162.912 423.07 162.912 416.718 162.912" style="fill:#fff" transform="matrix(1, 0, 0, 1, 0, -1.7763568394002505e-15)"/>
  <polygon points="416.718 156.656 416.718 158.576 416.718 159.74 416.718 159.747 424.174 159.747 424.174 159.747 424.184 159.747 424.246 159.053 424.387 157.486 424.461 156.656 416.718 156.656" style="fill:#fff" transform="matrix(1, 0, 0, 1, 0, -1.7763568394002505e-15)"/>
  <polygon points="445.906 222.611 443.66 197.41 468.348 197.41 466.099 222.607 455.989 225.41 445.906 222.611" style="fill:#1572b6" transform="matrix(1, 0, 0, 1, 0, -1.7763568394002505e-15)"/>
  <polygon points="456.004 223.268 464.174 221.003 466.096 199.471 456.004 199.471 456.004 223.268" style="fill:#33a9dc" transform="matrix(1, 0, 0, 1, 0, -1.7763568394002505e-15)"/>
  <polygon points="456.004 208.601 460.094 208.601 460.376 205.436 456.004 205.436 456.004 202.345 456.015 202.345 463.754 202.345 463.68 203.174 462.921 211.692 456.004 211.692 456.004 208.601" style="fill:#fff" transform="matrix(1, 0, 0, 1, 0, -1.7763568394002505e-15)"/>
  <polygon points="456.023 216.628 456.009 216.632 452.567 215.702 452.347 213.237 450.674 213.237 449.244 213.237 449.677 218.09 456.008 219.848 456.023 219.844 456.023 216.628" style="fill:#ebebeb" transform="matrix(1, 0, 0, 1, 0, -1.7763568394002505e-15)"/>
  <polygon points="459.831 211.561 459.459 215.7 456.012 216.63 456.012 219.846 462.348 218.09 462.395 217.568 462.932 211.561 459.831 211.561" style="fill:#fff" transform="matrix(1, 0, 0, 1, 0, -1.7763568394002505e-15)"/>
  <polygon points="456.015 202.345 456.015 204.265 456.015 205.428 456.015 205.436 448.559 205.436 448.559 205.436 448.549 205.436 448.487 204.741 448.346 203.174 448.272 202.345 456.015 202.345" style="fill:#ebebeb" transform="matrix(1, 0, 0, 1, 0, -1.7763568394002505e-15)"/>
  <polygon points="456.004 208.601 456.004 210.521 456.004 211.684 456.004 211.692 452.615 211.692 452.615 211.692 452.605 211.692 452.543 210.997 452.403 209.43 452.329 208.601 456.004 208.601" style="fill:#ebebeb" transform="matrix(1, 0, 0, 1, 0, -1.7763568394002505e-15)"/>
  <path d="M 19.88 123.561 C 19.616 123.56 19.352 123.594 19.095 123.661 L 19.095 123.696 L 19.133 123.696 C 19.317 123.973 19.522 124.235 19.745 124.481 C 19.899 124.787 20.033 125.092 20.186 125.398 C 20.205 125.379 20.224 125.359 20.224 125.359 C 20.513 125.13 20.664 124.768 20.624 124.402 C 20.541 124.273 20.464 124.139 20.394 124.002 C 20.279 123.811 20.03 123.715 19.877 123.562" style="fill:#5d87a1;fill-rule:evenodd" transform="matrix(1, 0, 0, 1, 0, -1.7763568394002505e-15)"/>
  <path d="M 38.875 140.249 C 37.614 140.16 36.348 140.343 35.163 140.785 C 34.876 140.9 34.418 140.9 34.378 141.263 C 34.532 141.416 34.55 141.663 34.685 141.876 C 34.947 142.319 35.284 142.714 35.68 143.043 C 36.08 143.349 36.48 143.654 36.905 143.922 C 37.65 144.383 38.493 144.65 39.219 145.109 C 39.641 145.377 40.061 145.721 40.483 146.009 C 40.693 146.162 40.826 146.409 41.094 146.509 L 41.094 146.451 C 41.016 146.238 40.918 146.033 40.803 145.838 C 40.612 145.648 40.42 145.475 40.228 145.284 C 39.668 144.542 38.996 143.891 38.238 143.352 C 37.625 142.93 36.285 142.352 36.038 141.652 L 35.999 141.613 C 36.448 141.549 36.89 141.446 37.32 141.305 C 37.97 141.133 38.563 141.172 39.232 141.005 C 39.539 140.928 40.094 140.737 40.094 140.737 L 40.094 140.437 C 39.752 140.097 39.507 139.642 39.147 139.321 C 38.168 138.466 37.124 137.688 36.025 136.993 C 35.438 136.614 34.681 136.37 34.056 136.047 C 33.83 135.933 33.456 135.877 33.319 135.687 C 33.009 135.231 32.748 134.742 32.543 134.23 C 31.995 133.19 31.464 132.037 30.992 130.937 C 30.713 130.2 30.391 129.479 30.027 128.78 C 28.274 125.798 25.743 123.35 22.704 121.696 C 21.938 121.325 21.123 121.064 20.283 120.92 C 19.809 120.9 19.337 120.863 18.864 120.845 C 18.559 120.645 18.269 120.423 17.995 120.181 C 16.913 119.496 14.133 118.024 13.337 119.973 C 12.827 121.204 14.095 122.414 14.53 123.039 C 14.897 123.48 15.22 123.955 15.495 124.458 C 15.628 124.78 15.666 125.121 15.795 125.458 C 16.073 126.323 16.403 127.171 16.782 127.996 C 16.986 128.404 17.22 128.796 17.482 129.168 C 17.635 129.377 17.899 129.468 17.956 129.813 C 17.747 130.264 17.6 130.741 17.52 131.232 C 16.853 133.34 17.05 135.627 18.069 137.59 C 18.369 138.063 19.091 139.104 20.056 138.706 C 20.907 138.366 20.718 137.287 20.964 136.342 C 21.02 136.113 20.983 135.963 21.096 135.812 L 21.096 135.996 C 21.096 135.996 21.579 137.057 21.819 137.596 C 22.472 138.585 23.283 139.46 24.219 140.186 C 24.59 140.509 24.888 140.907 25.095 141.353 L 25.095 141.696 L 25.522 141.696 C 25.504 141.383 25.348 141.094 25.095 140.908 C 24.745 140.547 24.425 140.16 24.136 139.748 C 23.354 138.633 22.663 137.456 22.072 136.229 C 21.772 135.629 21.519 134.971 21.279 134.372 C 21.169 134.141 21.169 133.792 20.984 133.672 C 20.643 134.076 20.346 134.516 20.1 134.985 C 19.802 135.932 19.628 136.914 19.583 137.906 C 19.51 137.926 19.546 137.906 19.51 137.944 C 18.921 137.789 18.718 137.152 18.496 136.612 C 17.923 134.946 17.865 133.147 18.33 131.448 C 18.458 131.043 19.013 129.767 18.791 129.38 C 18.68 129.011 18.311 128.8 18.109 128.509 C 17.852 128.117 17.63 127.703 17.446 127.272 C 17.007 126.196 16.785 124.996 16.307 123.912 C 16.043 123.391 15.735 122.892 15.386 122.423 C 15.001 121.954 14.661 121.449 14.371 120.916 C 14.279 120.703 14.15 120.355 14.297 120.123 C 14.318 119.99 14.424 119.888 14.556 119.871 C 14.794 119.659 15.477 119.929 15.716 120.045 C 16.359 120.298 16.971 120.622 17.54 121.012 C 17.798 121.206 18.406 121.697 18.406 121.697 L 18.586 121.697 C 19.198 121.83 19.886 121.734 20.462 121.907 C 21.432 122.23 22.358 122.674 23.217 123.227 C 25.751 124.842 27.811 127.101 29.186 129.772 C 29.416 130.211 29.513 130.614 29.723 131.072 C 30.123 132.012 30.623 132.972 31.023 133.886 C 31.376 134.79 31.833 135.651 32.383 136.45 C 32.669 136.85 33.818 137.062 34.335 137.272 C 34.784 137.427 35.225 137.606 35.655 137.807 C 36.306 138.207 36.955 138.668 37.568 139.107 C 37.873 139.337 38.83 139.815 38.888 140.198" style="fill:#00758f;fill-rule:evenodd" transform="matrix(1, 0, 0, 1, 0, -1.7763568394002505e-15)"/>
  <path d="M 455.611 43.243 C 444.203 43.243 437.074 54.43 442.778 63.38 C 444.59 66.221 447.489 68.364 450.925 69.401 C 451.666 69.52 451.943 69.117 451.943 68.764 C 451.943 68.446 451.925 67.388 451.925 66.264 C 448.201 66.885 447.238 65.441 446.942 64.687 C 446.613 63.953 446.093 63.302 445.423 62.79 C 444.904 62.539 444.163 61.918 445.405 61.902 C 446.367 61.996 447.217 62.51 447.683 63.278 C 448.536 64.664 450.47 65.161 451.999 64.385 C 452.063 63.702 452.399 63.064 452.943 62.589 C 449.646 62.253 446.201 61.096 446.201 55.962 C 446.18 54.627 446.724 53.336 447.72 52.354 C 447.268 51.194 447.32 49.921 447.868 48.796 C 447.868 48.796 449.11 48.445 451.943 50.172 C 454.369 49.568 456.928 49.568 459.352 50.172 C 462.187 48.427 463.427 48.796 463.427 48.796 C 463.976 49.921 464.029 51.194 463.575 52.354 C 464.576 53.335 465.119 54.626 465.094 55.962 C 465.094 61.112 461.631 62.253 458.334 62.589 C 459.05 63.247 459.414 64.153 459.334 65.072 C 459.334 66.868 459.315 68.311 459.315 68.764 C 459.315 69.117 459.594 69.536 460.335 69.401 C 471.151 66.102 473.969 53.433 465.407 46.598 C 462.701 44.436 459.217 43.244 455.611 43.243 Z" style="" transform="matrix(1, 0, 0, 1, 0, -1.7763568394002505e-15)"/>
</svg>